<?xml version="1.0" encoding="utf-8" standalone="no"?>
<!DOCTYPE svg PUBLIC "-//W3C//DTD SVG 1.1//EN"
  "http://www.w3.org/Graphics/SVG/1.1/DTD/svg11.dtd">
<svg xmlns:xlink="http://www.w3.org/1999/xlink" width="601.009654pt" height="364.5721pt" viewBox="0 0 601.009654 364.5721" xmlns="http://www.w3.org/2000/svg" version="1.1">
 <metadata>
  <rdf:RDF xmlns:dc="http://purl.org/dc/elements/1.1/" xmlns:cc="http://creativecommons.org/ns#" xmlns:rdf="http://www.w3.org/1999/02/22-rdf-syntax-ns#">
   <cc:Work>
    <dc:type rdf:resource="http://purl.org/dc/dcmitype/StillImage"/>
    <dc:date>2026-04-16T17:56:58.232705</dc:date>
    <dc:format>image/svg+xml</dc:format>
    <dc:creator>
     <cc:Agent>
      <dc:title>Matplotlib v3.10.0, https://matplotlib.org/</dc:title>
     </cc:Agent>
    </dc:creator>
   </cc:Work>
  </rdf:RDF>
 </metadata>
 <defs>
  <style type="text/css">*{stroke-linejoin: round; stroke-linecap: butt}</style>
 </defs>
 <g id="figure_1">
  <g id="patch_1">
   <path d="M 0 364.5721 
L 601.009654 364.5721 
L 601.009654 0 
L 0 0 
z
" style="fill: #faf9f6"/>
  </g>
  <g id="axes_1">
   <g id="patch_2">
    <path d="M 52.31 326.548037 
L 593.809654 326.548037 
L 593.809654 8.289437 
L 52.31 8.289437 
z
" style="fill: #faf9f6"/>
   </g>
   <g id="matplotlib.axis_1">
    <g id="xtick_1">
     <g id="line2d_1">
      <path d="M 76.923621 326.548037 
L 76.923621 8.289437 
" clip-path="url(#p7f46a036ad)" style="fill: none; stroke: #d8d4cc; stroke-opacity: 0.6; stroke-width: 0.5; stroke-linecap: square"/>
     </g>
     <g id="line2d_2">
      <defs>
       <path id="m83a345ed9d" d="M 0 0 
L 0 3 
" style="stroke: #6b6b6b; stroke-width: 0.8"/>
      </defs>
      <g>
       <use xlink:href="#m83a345ed9d" x="76.923621" y="326.548037" style="fill: #6b6b6b; stroke: #6b6b6b; stroke-width: 0.8"/>
      </g>
     </g>
     <g id="text_1">
      <!-- 0 -->
      <g style="fill: #1a1a1a" transform="translate(73.742371 340.646475) scale(0.1 -0.1)">
       <defs>
        <path id="DejaVuSans-30" d="M 2034 4250 
Q 1547 4250 1301 3770 
Q 1056 3291 1056 2328 
Q 1056 1369 1301 889 
Q 1547 409 2034 409 
Q 2525 409 2770 889 
Q 3016 1369 3016 2328 
Q 3016 3291 2770 3770 
Q 2525 4250 2034 4250 
z
M 2034 4750 
Q 2819 4750 3233 4129 
Q 3647 3509 3647 2328 
Q 3647 1150 3233 529 
Q 2819 -91 2034 -91 
Q 1250 -91 836 529 
Q 422 1150 422 2328 
Q 422 3509 836 4129 
Q 1250 4750 2034 4750 
z
" transform="scale(0.015625)"/>
       </defs>
       <use xlink:href="#DejaVuSans-30"/>
      </g>
     </g>
    </g>
    <g id="xtick_2">
     <g id="line2d_3">
      <path d="M 176.372593 326.548037 
L 176.372593 8.289437 
" clip-path="url(#p7f46a036ad)" style="fill: none; stroke: #d8d4cc; stroke-opacity: 0.6; stroke-width: 0.5; stroke-linecap: square"/>
     </g>
     <g id="line2d_4">
      <g>
       <use xlink:href="#m83a345ed9d" x="176.372593" y="326.548037" style="fill: #6b6b6b; stroke: #6b6b6b; stroke-width: 0.8"/>
      </g>
     </g>
     <g id="text_2">
      <!-- 20 -->
      <g style="fill: #1a1a1a" transform="translate(170.010093 340.646475) scale(0.1 -0.1)">
       <defs>
        <path id="DejaVuSans-32" d="M 1228 531 
L 3431 531 
L 3431 0 
L 469 0 
L 469 531 
Q 828 903 1448 1529 
Q 2069 2156 2228 2338 
Q 2531 2678 2651 2914 
Q 2772 3150 2772 3378 
Q 2772 3750 2511 3984 
Q 2250 4219 1831 4219 
Q 1534 4219 1204 4116 
Q 875 4013 500 3803 
L 500 4441 
Q 881 4594 1212 4672 
Q 1544 4750 1819 4750 
Q 2544 4750 2975 4387 
Q 3406 4025 3406 3419 
Q 3406 3131 3298 2873 
Q 3191 2616 2906 2266 
Q 2828 2175 2409 1742 
Q 1991 1309 1228 531 
z
" transform="scale(0.015625)"/>
       </defs>
       <use xlink:href="#DejaVuSans-32"/>
       <use xlink:href="#DejaVuSans-30" transform="translate(63.623047 0)"/>
      </g>
     </g>
    </g>
    <g id="xtick_3">
     <g id="line2d_5">
      <path d="M 275.821565 326.548037 
L 275.821565 8.289437 
" clip-path="url(#p7f46a036ad)" style="fill: none; stroke: #d8d4cc; stroke-opacity: 0.6; stroke-width: 0.5; stroke-linecap: square"/>
     </g>
     <g id="line2d_6">
      <g>
       <use xlink:href="#m83a345ed9d" x="275.821565" y="326.548037" style="fill: #6b6b6b; stroke: #6b6b6b; stroke-width: 0.8"/>
      </g>
     </g>
     <g id="text_3">
      <!-- 40 -->
      <g style="fill: #1a1a1a" transform="translate(269.459065 340.646475) scale(0.1 -0.1)">
       <defs>
        <path id="DejaVuSans-34" d="M 2419 4116 
L 825 1625 
L 2419 1625 
L 2419 4116 
z
M 2253 4666 
L 3047 4666 
L 3047 1625 
L 3713 1625 
L 3713 1100 
L 3047 1100 
L 3047 0 
L 2419 0 
L 2419 1100 
L 313 1100 
L 313 1709 
L 2253 4666 
z
" transform="scale(0.015625)"/>
       </defs>
       <use xlink:href="#DejaVuSans-34"/>
       <use xlink:href="#DejaVuSans-30" transform="translate(63.623047 0)"/>
      </g>
     </g>
    </g>
    <g id="xtick_4">
     <g id="line2d_7">
      <path d="M 375.270537 326.548037 
L 375.270537 8.289437 
" clip-path="url(#p7f46a036ad)" style="fill: none; stroke: #d8d4cc; stroke-opacity: 0.6; stroke-width: 0.5; stroke-linecap: square"/>
     </g>
     <g id="line2d_8">
      <g>
       <use xlink:href="#m83a345ed9d" x="375.270537" y="326.548037" style="fill: #6b6b6b; stroke: #6b6b6b; stroke-width: 0.8"/>
      </g>
     </g>
     <g id="text_4">
      <!-- 60 -->
      <g style="fill: #1a1a1a" transform="translate(368.908037 340.646475) scale(0.1 -0.1)">
       <defs>
        <path id="DejaVuSans-36" d="M 2113 2584 
Q 1688 2584 1439 2293 
Q 1191 2003 1191 1497 
Q 1191 994 1439 701 
Q 1688 409 2113 409 
Q 2538 409 2786 701 
Q 3034 994 3034 1497 
Q 3034 2003 2786 2293 
Q 2538 2584 2113 2584 
z
M 3366 4563 
L 3366 3988 
Q 3128 4100 2886 4159 
Q 2644 4219 2406 4219 
Q 1781 4219 1451 3797 
Q 1122 3375 1075 2522 
Q 1259 2794 1537 2939 
Q 1816 3084 2150 3084 
Q 2853 3084 3261 2657 
Q 3669 2231 3669 1497 
Q 3669 778 3244 343 
Q 2819 -91 2113 -91 
Q 1303 -91 875 529 
Q 447 1150 447 2328 
Q 447 3434 972 4092 
Q 1497 4750 2381 4750 
Q 2619 4750 2861 4703 
Q 3103 4656 3366 4563 
z
" transform="scale(0.015625)"/>
       </defs>
       <use xlink:href="#DejaVuSans-36"/>
       <use xlink:href="#DejaVuSans-30" transform="translate(63.623047 0)"/>
      </g>
     </g>
    </g>
    <g id="xtick_5">
     <g id="line2d_9">
      <path d="M 474.71951 326.548037 
L 474.71951 8.289437 
" clip-path="url(#p7f46a036ad)" style="fill: none; stroke: #d8d4cc; stroke-opacity: 0.6; stroke-width: 0.5; stroke-linecap: square"/>
     </g>
     <g id="line2d_10">
      <g>
       <use xlink:href="#m83a345ed9d" x="474.71951" y="326.548037" style="fill: #6b6b6b; stroke: #6b6b6b; stroke-width: 0.8"/>
      </g>
     </g>
     <g id="text_5">
      <!-- 80 -->
      <g style="fill: #1a1a1a" transform="translate(468.35701 340.646475) scale(0.1 -0.1)">
       <defs>
        <path id="DejaVuSans-38" d="M 2034 2216 
Q 1584 2216 1326 1975 
Q 1069 1734 1069 1313 
Q 1069 891 1326 650 
Q 1584 409 2034 409 
Q 2484 409 2743 651 
Q 3003 894 3003 1313 
Q 3003 1734 2745 1975 
Q 2488 2216 2034 2216 
z
M 1403 2484 
Q 997 2584 770 2862 
Q 544 3141 544 3541 
Q 544 4100 942 4425 
Q 1341 4750 2034 4750 
Q 2731 4750 3128 4425 
Q 3525 4100 3525 3541 
Q 3525 3141 3298 2862 
Q 3072 2584 2669 2484 
Q 3125 2378 3379 2068 
Q 3634 1759 3634 1313 
Q 3634 634 3220 271 
Q 2806 -91 2034 -91 
Q 1263 -91 848 271 
Q 434 634 434 1313 
Q 434 1759 690 2068 
Q 947 2378 1403 2484 
z
M 1172 3481 
Q 1172 3119 1398 2916 
Q 1625 2713 2034 2713 
Q 2441 2713 2670 2916 
Q 2900 3119 2900 3481 
Q 2900 3844 2670 4047 
Q 2441 4250 2034 4250 
Q 1625 4250 1398 4047 
Q 1172 3844 1172 3481 
z
" transform="scale(0.015625)"/>
       </defs>
       <use xlink:href="#DejaVuSans-38"/>
       <use xlink:href="#DejaVuSans-30" transform="translate(63.623047 0)"/>
      </g>
     </g>
    </g>
    <g id="xtick_6">
     <g id="line2d_11">
      <path d="M 574.168482 326.548037 
L 574.168482 8.289437 
" clip-path="url(#p7f46a036ad)" style="fill: none; stroke: #d8d4cc; stroke-opacity: 0.6; stroke-width: 0.5; stroke-linecap: square"/>
     </g>
     <g id="line2d_12">
      <g>
       <use xlink:href="#m83a345ed9d" x="574.168482" y="326.548037" style="fill: #6b6b6b; stroke: #6b6b6b; stroke-width: 0.8"/>
      </g>
     </g>
     <g id="text_6">
      <!-- 100 -->
      <g style="fill: #1a1a1a" transform="translate(564.624732 340.646475) scale(0.1 -0.1)">
       <defs>
        <path id="DejaVuSans-31" d="M 794 531 
L 1825 531 
L 1825 4091 
L 703 3866 
L 703 4441 
L 1819 4666 
L 2450 4666 
L 2450 531 
L 3481 531 
L 3481 0 
L 794 0 
L 794 531 
z
" transform="scale(0.015625)"/>
       </defs>
       <use xlink:href="#DejaVuSans-31"/>
       <use xlink:href="#DejaVuSans-30" transform="translate(63.623047 0)"/>
       <use xlink:href="#DejaVuSans-30" transform="translate(127.246094 0)"/>
      </g>
     </g>
    </g>
    <g id="text_7">
     <!-- Dual ascent step -->
     <g style="fill: #1a1a1a" transform="translate(276.761858 355.084443) scale(0.11 -0.11)">
      <defs>
       <path id="DejaVuSans-44" d="M 1259 4147 
L 1259 519 
L 2022 519 
Q 2988 519 3436 956 
Q 3884 1394 3884 2338 
Q 3884 3275 3436 3711 
Q 2988 4147 2022 4147 
L 1259 4147 
z
M 628 4666 
L 1925 4666 
Q 3281 4666 3915 4102 
Q 4550 3538 4550 2338 
Q 4550 1131 3912 565 
Q 3275 0 1925 0 
L 628 0 
L 628 4666 
z
" transform="scale(0.015625)"/>
       <path id="DejaVuSans-75" d="M 544 1381 
L 544 3500 
L 1119 3500 
L 1119 1403 
Q 1119 906 1312 657 
Q 1506 409 1894 409 
Q 2359 409 2629 706 
Q 2900 1003 2900 1516 
L 2900 3500 
L 3475 3500 
L 3475 0 
L 2900 0 
L 2900 538 
Q 2691 219 2414 64 
Q 2138 -91 1772 -91 
Q 1169 -91 856 284 
Q 544 659 544 1381 
z
M 1991 3584 
L 1991 3584 
z
" transform="scale(0.015625)"/>
       <path id="DejaVuSans-61" d="M 2194 1759 
Q 1497 1759 1228 1600 
Q 959 1441 959 1056 
Q 959 750 1161 570 
Q 1363 391 1709 391 
Q 2188 391 2477 730 
Q 2766 1069 2766 1631 
L 2766 1759 
L 2194 1759 
z
M 3341 1997 
L 3341 0 
L 2766 0 
L 2766 531 
Q 2569 213 2275 61 
Q 1981 -91 1556 -91 
Q 1019 -91 701 211 
Q 384 513 384 1019 
Q 384 1609 779 1909 
Q 1175 2209 1959 2209 
L 2766 2209 
L 2766 2266 
Q 2766 2663 2505 2880 
Q 2244 3097 1772 3097 
Q 1472 3097 1187 3025 
Q 903 2953 641 2809 
L 641 3341 
Q 956 3463 1253 3523 
Q 1550 3584 1831 3584 
Q 2591 3584 2966 3190 
Q 3341 2797 3341 1997 
z
" transform="scale(0.015625)"/>
       <path id="DejaVuSans-6c" d="M 603 4863 
L 1178 4863 
L 1178 0 
L 603 0 
L 603 4863 
z
" transform="scale(0.015625)"/>
       <path id="DejaVuSans-20" transform="scale(0.015625)"/>
       <path id="DejaVuSans-73" d="M 2834 3397 
L 2834 2853 
Q 2591 2978 2328 3040 
Q 2066 3103 1784 3103 
Q 1356 3103 1142 2972 
Q 928 2841 928 2578 
Q 928 2378 1081 2264 
Q 1234 2150 1697 2047 
L 1894 2003 
Q 2506 1872 2764 1633 
Q 3022 1394 3022 966 
Q 3022 478 2636 193 
Q 2250 -91 1575 -91 
Q 1294 -91 989 -36 
Q 684 19 347 128 
L 347 722 
Q 666 556 975 473 
Q 1284 391 1588 391 
Q 1994 391 2212 530 
Q 2431 669 2431 922 
Q 2431 1156 2273 1281 
Q 2116 1406 1581 1522 
L 1381 1569 
Q 847 1681 609 1914 
Q 372 2147 372 2553 
Q 372 3047 722 3315 
Q 1072 3584 1716 3584 
Q 2034 3584 2315 3537 
Q 2597 3491 2834 3397 
z
" transform="scale(0.015625)"/>
       <path id="DejaVuSans-63" d="M 3122 3366 
L 3122 2828 
Q 2878 2963 2633 3030 
Q 2388 3097 2138 3097 
Q 1578 3097 1268 2742 
Q 959 2388 959 1747 
Q 959 1106 1268 751 
Q 1578 397 2138 397 
Q 2388 397 2633 464 
Q 2878 531 3122 666 
L 3122 134 
Q 2881 22 2623 -34 
Q 2366 -91 2075 -91 
Q 1284 -91 818 406 
Q 353 903 353 1747 
Q 353 2603 823 3093 
Q 1294 3584 2113 3584 
Q 2378 3584 2631 3529 
Q 2884 3475 3122 3366 
z
" transform="scale(0.015625)"/>
       <path id="DejaVuSans-65" d="M 3597 1894 
L 3597 1613 
L 953 1613 
Q 991 1019 1311 708 
Q 1631 397 2203 397 
Q 2534 397 2845 478 
Q 3156 559 3463 722 
L 3463 178 
Q 3153 47 2828 -22 
Q 2503 -91 2169 -91 
Q 1331 -91 842 396 
Q 353 884 353 1716 
Q 353 2575 817 3079 
Q 1281 3584 2069 3584 
Q 2775 3584 3186 3129 
Q 3597 2675 3597 1894 
z
M 3022 2063 
Q 3016 2534 2758 2815 
Q 2500 3097 2075 3097 
Q 1594 3097 1305 2825 
Q 1016 2553 972 2059 
L 3022 2063 
z
" transform="scale(0.015625)"/>
       <path id="DejaVuSans-6e" d="M 3513 2113 
L 3513 0 
L 2938 0 
L 2938 2094 
Q 2938 2591 2744 2837 
Q 2550 3084 2163 3084 
Q 1697 3084 1428 2787 
Q 1159 2491 1159 1978 
L 1159 0 
L 581 0 
L 581 3500 
L 1159 3500 
L 1159 2956 
Q 1366 3272 1645 3428 
Q 1925 3584 2291 3584 
Q 2894 3584 3203 3211 
Q 3513 2838 3513 2113 
z
" transform="scale(0.015625)"/>
       <path id="DejaVuSans-74" d="M 1172 4494 
L 1172 3500 
L 2356 3500 
L 2356 3053 
L 1172 3053 
L 1172 1153 
Q 1172 725 1289 603 
Q 1406 481 1766 481 
L 2356 481 
L 2356 0 
L 1766 0 
Q 1100 0 847 248 
Q 594 497 594 1153 
L 594 3053 
L 172 3053 
L 172 3500 
L 594 3500 
L 594 4494 
L 1172 4494 
z
" transform="scale(0.015625)"/>
       <path id="DejaVuSans-70" d="M 1159 525 
L 1159 -1331 
L 581 -1331 
L 581 3500 
L 1159 3500 
L 1159 2969 
Q 1341 3281 1617 3432 
Q 1894 3584 2278 3584 
Q 2916 3584 3314 3078 
Q 3713 2572 3713 1747 
Q 3713 922 3314 415 
Q 2916 -91 2278 -91 
Q 1894 -91 1617 61 
Q 1341 213 1159 525 
z
M 3116 1747 
Q 3116 2381 2855 2742 
Q 2594 3103 2138 3103 
Q 1681 3103 1420 2742 
Q 1159 2381 1159 1747 
Q 1159 1113 1420 752 
Q 1681 391 2138 391 
Q 2594 391 2855 752 
Q 3116 1113 3116 1747 
z
" transform="scale(0.015625)"/>
      </defs>
      <use xlink:href="#DejaVuSans-44"/>
      <use xlink:href="#DejaVuSans-75" transform="translate(77.001953 0)"/>
      <use xlink:href="#DejaVuSans-61" transform="translate(140.380859 0)"/>
      <use xlink:href="#DejaVuSans-6c" transform="translate(201.660156 0)"/>
      <use xlink:href="#DejaVuSans-20" transform="translate(229.443359 0)"/>
      <use xlink:href="#DejaVuSans-61" transform="translate(261.230469 0)"/>
      <use xlink:href="#DejaVuSans-73" transform="translate(322.509766 0)"/>
      <use xlink:href="#DejaVuSans-63" transform="translate(374.609375 0)"/>
      <use xlink:href="#DejaVuSans-65" transform="translate(429.589844 0)"/>
      <use xlink:href="#DejaVuSans-6e" transform="translate(491.113281 0)"/>
      <use xlink:href="#DejaVuSans-74" transform="translate(554.492188 0)"/>
      <use xlink:href="#DejaVuSans-20" transform="translate(593.701172 0)"/>
      <use xlink:href="#DejaVuSans-73" transform="translate(625.488281 0)"/>
      <use xlink:href="#DejaVuSans-74" transform="translate(677.587891 0)"/>
      <use xlink:href="#DejaVuSans-65" transform="translate(716.796875 0)"/>
      <use xlink:href="#DejaVuSans-70" transform="translate(778.320312 0)"/>
     </g>
    </g>
   </g>
   <g id="matplotlib.axis_2">
    <g id="ytick_1">
     <g id="line2d_13">
      <path d="M 52.31 293.298123 
L 593.809654 293.298123 
" clip-path="url(#p7f46a036ad)" style="fill: none; stroke: #d8d4cc; stroke-opacity: 0.6; stroke-width: 0.5; stroke-linecap: square"/>
     </g>
     <g id="line2d_14">
      <defs>
       <path id="mb09b5fd02b" d="M 0 0 
L -3 0 
" style="stroke: #6b6b6b; stroke-width: 0.8"/>
      </defs>
      <g>
       <use xlink:href="#mb09b5fd02b" x="52.31" y="293.298123" style="fill: #6b6b6b; stroke: #6b6b6b; stroke-width: 0.8"/>
      </g>
     </g>
     <g id="text_8">
      <!-- $\mathdefault{10^{-3}}$ -->
      <g style="fill: #1a1a1a" transform="translate(22.31 297.097341) scale(0.1 -0.1)">
       <defs>
        <path id="DejaVuSans-2212" d="M 678 2272 
L 4684 2272 
L 4684 1741 
L 678 1741 
L 678 2272 
z
" transform="scale(0.015625)"/>
        <path id="DejaVuSans-33" d="M 2597 2516 
Q 3050 2419 3304 2112 
Q 3559 1806 3559 1356 
Q 3559 666 3084 287 
Q 2609 -91 1734 -91 
Q 1441 -91 1130 -33 
Q 819 25 488 141 
L 488 750 
Q 750 597 1062 519 
Q 1375 441 1716 441 
Q 2309 441 2620 675 
Q 2931 909 2931 1356 
Q 2931 1769 2642 2001 
Q 2353 2234 1838 2234 
L 1294 2234 
L 1294 2753 
L 1863 2753 
Q 2328 2753 2575 2939 
Q 2822 3125 2822 3475 
Q 2822 3834 2567 4026 
Q 2313 4219 1838 4219 
Q 1578 4219 1281 4162 
Q 984 4106 628 3988 
L 628 4550 
Q 988 4650 1302 4700 
Q 1616 4750 1894 4750 
Q 2613 4750 3031 4423 
Q 3450 4097 3450 3541 
Q 3450 3153 3228 2886 
Q 3006 2619 2597 2516 
z
" transform="scale(0.015625)"/>
       </defs>
       <use xlink:href="#DejaVuSans-31" transform="translate(0 0.765625)"/>
       <use xlink:href="#DejaVuSans-30" transform="translate(63.623047 0.765625)"/>
       <use xlink:href="#DejaVuSans-2212" transform="translate(128.203125 39.046875) scale(0.7)"/>
       <use xlink:href="#DejaVuSans-33" transform="translate(186.855469 39.046875) scale(0.7)"/>
      </g>
     </g>
    </g>
    <g id="ytick_2">
     <g id="line2d_15">
      <path d="M 52.31 152.148671 
L 593.809654 152.148671 
" clip-path="url(#p7f46a036ad)" style="fill: none; stroke: #d8d4cc; stroke-opacity: 0.6; stroke-width: 0.5; stroke-linecap: square"/>
     </g>
     <g id="line2d_16">
      <g>
       <use xlink:href="#mb09b5fd02b" x="52.31" y="152.148671" style="fill: #6b6b6b; stroke: #6b6b6b; stroke-width: 0.8"/>
      </g>
     </g>
     <g id="text_9">
      <!-- $\mathdefault{10^{-2}}$ -->
      <g style="fill: #1a1a1a" transform="translate(22.31 155.947889) scale(0.1 -0.1)">
       <use xlink:href="#DejaVuSans-31" transform="translate(0 0.765625)"/>
       <use xlink:href="#DejaVuSans-30" transform="translate(63.623047 0.765625)"/>
       <use xlink:href="#DejaVuSans-2212" transform="translate(128.203125 39.046875) scale(0.7)"/>
       <use xlink:href="#DejaVuSans-32" transform="translate(186.855469 39.046875) scale(0.7)"/>
      </g>
     </g>
    </g>
    <g id="ytick_3">
     <g id="line2d_17">
      <path d="M 52.31 10.999219 
L 593.809654 10.999219 
" clip-path="url(#p7f46a036ad)" style="fill: none; stroke: #d8d4cc; stroke-opacity: 0.6; stroke-width: 0.5; stroke-linecap: square"/>
     </g>
     <g id="line2d_18">
      <g>
       <use xlink:href="#mb09b5fd02b" x="52.31" y="10.999219" style="fill: #6b6b6b; stroke: #6b6b6b; stroke-width: 0.8"/>
      </g>
     </g>
     <g id="text_10">
      <!-- $\mathdefault{10^{-1}}$ -->
      <g style="fill: #1a1a1a" transform="translate(22.31 14.798437) scale(0.1 -0.1)">
       <use xlink:href="#DejaVuSans-31" transform="translate(0 0.684375)"/>
       <use xlink:href="#DejaVuSans-30" transform="translate(63.623047 0.684375)"/>
       <use xlink:href="#DejaVuSans-2212" transform="translate(128.203125 38.965625) scale(0.7)"/>
       <use xlink:href="#DejaVuSans-31" transform="translate(186.855469 38.965625) scale(0.7)"/>
      </g>
     </g>
    </g>
    <g id="ytick_4">
     <g id="line2d_19">
      <path d="M 52.31 324.611952 
L 593.809654 324.611952 
" clip-path="url(#p7f46a036ad)" style="fill: none; stroke: #d8d4cc; stroke-opacity: 0.6; stroke-width: 0.5; stroke-linecap: square"/>
     </g>
     <g id="line2d_20">
      <defs>
       <path id="ma38dfc92f2" d="M 0 0 
L -2 0 
" style="stroke: #000000; stroke-width: 0.6"/>
      </defs>
      <g>
       <use xlink:href="#ma38dfc92f2" x="52.31" y="324.611952" style="stroke: #000000; stroke-width: 0.6"/>
      </g>
     </g>
    </g>
    <g id="ytick_5">
     <g id="line2d_21">
      <path d="M 52.31 315.162449 
L 593.809654 315.162449 
" clip-path="url(#p7f46a036ad)" style="fill: none; stroke: #d8d4cc; stroke-opacity: 0.6; stroke-width: 0.5; stroke-linecap: square"/>
     </g>
     <g id="line2d_22">
      <g>
       <use xlink:href="#ma38dfc92f2" x="52.31" y="315.162449" style="stroke: #000000; stroke-width: 0.6"/>
      </g>
     </g>
    </g>
    <g id="ytick_6">
     <g id="line2d_23">
      <path d="M 52.31 306.976918 
L 593.809654 306.976918 
" clip-path="url(#p7f46a036ad)" style="fill: none; stroke: #d8d4cc; stroke-opacity: 0.6; stroke-width: 0.5; stroke-linecap: square"/>
     </g>
     <g id="line2d_24">
      <g>
       <use xlink:href="#ma38dfc92f2" x="52.31" y="306.976918" style="stroke: #000000; stroke-width: 0.6"/>
      </g>
     </g>
    </g>
    <g id="ytick_7">
     <g id="line2d_25">
      <path d="M 52.31 299.756767 
L 593.809654 299.756767 
" clip-path="url(#p7f46a036ad)" style="fill: none; stroke: #d8d4cc; stroke-opacity: 0.6; stroke-width: 0.5; stroke-linecap: square"/>
     </g>
     <g id="line2d_26">
      <g>
       <use xlink:href="#ma38dfc92f2" x="52.31" y="299.756767" style="stroke: #000000; stroke-width: 0.6"/>
      </g>
     </g>
    </g>
    <g id="ytick_8">
     <g id="line2d_27">
      <path d="M 52.31 250.807904 
L 593.809654 250.807904 
" clip-path="url(#p7f46a036ad)" style="fill: none; stroke: #d8d4cc; stroke-opacity: 0.6; stroke-width: 0.5; stroke-linecap: square"/>
     </g>
     <g id="line2d_28">
      <g>
       <use xlink:href="#ma38dfc92f2" x="52.31" y="250.807904" style="stroke: #000000; stroke-width: 0.6"/>
      </g>
     </g>
    </g>
    <g id="ytick_9">
     <g id="line2d_29">
      <path d="M 52.31 225.952719 
L 593.809654 225.952719 
" clip-path="url(#p7f46a036ad)" style="fill: none; stroke: #d8d4cc; stroke-opacity: 0.6; stroke-width: 0.5; stroke-linecap: square"/>
     </g>
     <g id="line2d_30">
      <g>
       <use xlink:href="#ma38dfc92f2" x="52.31" y="225.952719" style="stroke: #000000; stroke-width: 0.6"/>
      </g>
     </g>
    </g>
    <g id="ytick_10">
     <g id="line2d_31">
      <path d="M 52.31 208.317685 
L 593.809654 208.317685 
" clip-path="url(#p7f46a036ad)" style="fill: none; stroke: #d8d4cc; stroke-opacity: 0.6; stroke-width: 0.5; stroke-linecap: square"/>
     </g>
     <g id="line2d_32">
      <g>
       <use xlink:href="#ma38dfc92f2" x="52.31" y="208.317685" style="stroke: #000000; stroke-width: 0.6"/>
      </g>
     </g>
    </g>
    <g id="ytick_11">
     <g id="line2d_33">
      <path d="M 52.31 194.63889 
L 593.809654 194.63889 
" clip-path="url(#p7f46a036ad)" style="fill: none; stroke: #d8d4cc; stroke-opacity: 0.6; stroke-width: 0.5; stroke-linecap: square"/>
     </g>
     <g id="line2d_34">
      <g>
       <use xlink:href="#ma38dfc92f2" x="52.31" y="194.63889" style="stroke: #000000; stroke-width: 0.6"/>
      </g>
     </g>
    </g>
    <g id="ytick_12">
     <g id="line2d_35">
      <path d="M 52.31 183.4625 
L 593.809654 183.4625 
" clip-path="url(#p7f46a036ad)" style="fill: none; stroke: #d8d4cc; stroke-opacity: 0.6; stroke-width: 0.5; stroke-linecap: square"/>
     </g>
     <g id="line2d_36">
      <g>
       <use xlink:href="#ma38dfc92f2" x="52.31" y="183.4625" style="stroke: #000000; stroke-width: 0.6"/>
      </g>
     </g>
    </g>
    <g id="ytick_13">
     <g id="line2d_37">
      <path d="M 52.31 174.012997 
L 593.809654 174.012997 
" clip-path="url(#p7f46a036ad)" style="fill: none; stroke: #d8d4cc; stroke-opacity: 0.6; stroke-width: 0.5; stroke-linecap: square"/>
     </g>
     <g id="line2d_38">
      <g>
       <use xlink:href="#ma38dfc92f2" x="52.31" y="174.012997" style="stroke: #000000; stroke-width: 0.6"/>
      </g>
     </g>
    </g>
    <g id="ytick_14">
     <g id="line2d_39">
      <path d="M 52.31 165.827466 
L 593.809654 165.827466 
" clip-path="url(#p7f46a036ad)" style="fill: none; stroke: #d8d4cc; stroke-opacity: 0.6; stroke-width: 0.5; stroke-linecap: square"/>
     </g>
     <g id="line2d_40">
      <g>
       <use xlink:href="#ma38dfc92f2" x="52.31" y="165.827466" style="stroke: #000000; stroke-width: 0.6"/>
      </g>
     </g>
    </g>
    <g id="ytick_15">
     <g id="line2d_41">
      <path d="M 52.31 158.607315 
L 593.809654 158.607315 
" clip-path="url(#p7f46a036ad)" style="fill: none; stroke: #d8d4cc; stroke-opacity: 0.6; stroke-width: 0.5; stroke-linecap: square"/>
     </g>
     <g id="line2d_42">
      <g>
       <use xlink:href="#ma38dfc92f2" x="52.31" y="158.607315" style="stroke: #000000; stroke-width: 0.6"/>
      </g>
     </g>
    </g>
    <g id="ytick_16">
     <g id="line2d_43">
      <path d="M 52.31 109.658452 
L 593.809654 109.658452 
" clip-path="url(#p7f46a036ad)" style="fill: none; stroke: #d8d4cc; stroke-opacity: 0.6; stroke-width: 0.5; stroke-linecap: square"/>
     </g>
     <g id="line2d_44">
      <g>
       <use xlink:href="#ma38dfc92f2" x="52.31" y="109.658452" style="stroke: #000000; stroke-width: 0.6"/>
      </g>
     </g>
    </g>
    <g id="ytick_17">
     <g id="line2d_45">
      <path d="M 52.31 84.803267 
L 593.809654 84.803267 
" clip-path="url(#p7f46a036ad)" style="fill: none; stroke: #d8d4cc; stroke-opacity: 0.6; stroke-width: 0.5; stroke-linecap: square"/>
     </g>
     <g id="line2d_46">
      <g>
       <use xlink:href="#ma38dfc92f2" x="52.31" y="84.803267" style="stroke: #000000; stroke-width: 0.6"/>
      </g>
     </g>
    </g>
    <g id="ytick_18">
     <g id="line2d_47">
      <path d="M 52.31 67.168233 
L 593.809654 67.168233 
" clip-path="url(#p7f46a036ad)" style="fill: none; stroke: #d8d4cc; stroke-opacity: 0.6; stroke-width: 0.5; stroke-linecap: square"/>
     </g>
     <g id="line2d_48">
      <g>
       <use xlink:href="#ma38dfc92f2" x="52.31" y="67.168233" style="stroke: #000000; stroke-width: 0.6"/>
      </g>
     </g>
    </g>
    <g id="ytick_19">
     <g id="line2d_49">
      <path d="M 52.31 53.489438 
L 593.809654 53.489438 
" clip-path="url(#p7f46a036ad)" style="fill: none; stroke: #d8d4cc; stroke-opacity: 0.6; stroke-width: 0.5; stroke-linecap: square"/>
     </g>
     <g id="line2d_50">
      <g>
       <use xlink:href="#ma38dfc92f2" x="52.31" y="53.489438" style="stroke: #000000; stroke-width: 0.6"/>
      </g>
     </g>
    </g>
    <g id="ytick_20">
     <g id="line2d_51">
      <path d="M 52.31 42.313048 
L 593.809654 42.313048 
" clip-path="url(#p7f46a036ad)" style="fill: none; stroke: #d8d4cc; stroke-opacity: 0.6; stroke-width: 0.5; stroke-linecap: square"/>
     </g>
     <g id="line2d_52">
      <g>
       <use xlink:href="#ma38dfc92f2" x="52.31" y="42.313048" style="stroke: #000000; stroke-width: 0.6"/>
      </g>
     </g>
    </g>
    <g id="ytick_21">
     <g id="line2d_53">
      <path d="M 52.31 32.863545 
L 593.809654 32.863545 
" clip-path="url(#p7f46a036ad)" style="fill: none; stroke: #d8d4cc; stroke-opacity: 0.6; stroke-width: 0.5; stroke-linecap: square"/>
     </g>
     <g id="line2d_54">
      <g>
       <use xlink:href="#ma38dfc92f2" x="52.31" y="32.863545" style="stroke: #000000; stroke-width: 0.6"/>
      </g>
     </g>
    </g>
    <g id="ytick_22">
     <g id="line2d_55">
      <path d="M 52.31 24.678014 
L 593.809654 24.678014 
" clip-path="url(#p7f46a036ad)" style="fill: none; stroke: #d8d4cc; stroke-opacity: 0.6; stroke-width: 0.5; stroke-linecap: square"/>
     </g>
     <g id="line2d_56">
      <g>
       <use xlink:href="#ma38dfc92f2" x="52.31" y="24.678014" style="stroke: #000000; stroke-width: 0.6"/>
      </g>
     </g>
    </g>
    <g id="ytick_23">
     <g id="line2d_57">
      <path d="M 52.31 17.457863 
L 593.809654 17.457863 
" clip-path="url(#p7f46a036ad)" style="fill: none; stroke: #d8d4cc; stroke-opacity: 0.6; stroke-width: 0.5; stroke-linecap: square"/>
     </g>
     <g id="line2d_58">
      <g>
       <use xlink:href="#ma38dfc92f2" x="52.31" y="17.457863" style="stroke: #000000; stroke-width: 0.6"/>
      </g>
     </g>
    </g>
    <g id="text_11">
     <!-- Tangent violation ($\|H\|_{\mathrm{RMS}}$) -->
     <g style="fill: #1a1a1a" transform="translate(15.67 239.853737) rotate(-90) scale(0.11 -0.11)">
      <defs>
       <path id="DejaVuSans-54" d="M -19 4666 
L 3928 4666 
L 3928 4134 
L 2272 4134 
L 2272 0 
L 1638 0 
L 1638 4134 
L -19 4134 
L -19 4666 
z
" transform="scale(0.015625)"/>
       <path id="DejaVuSans-67" d="M 2906 1791 
Q 2906 2416 2648 2759 
Q 2391 3103 1925 3103 
Q 1463 3103 1205 2759 
Q 947 2416 947 1791 
Q 947 1169 1205 825 
Q 1463 481 1925 481 
Q 2391 481 2648 825 
Q 2906 1169 2906 1791 
z
M 3481 434 
Q 3481 -459 3084 -895 
Q 2688 -1331 1869 -1331 
Q 1566 -1331 1297 -1286 
Q 1028 -1241 775 -1147 
L 775 -588 
Q 1028 -725 1275 -790 
Q 1522 -856 1778 -856 
Q 2344 -856 2625 -561 
Q 2906 -266 2906 331 
L 2906 616 
Q 2728 306 2450 153 
Q 2172 0 1784 0 
Q 1141 0 747 490 
Q 353 981 353 1791 
Q 353 2603 747 3093 
Q 1141 3584 1784 3584 
Q 2172 3584 2450 3431 
Q 2728 3278 2906 2969 
L 2906 3500 
L 3481 3500 
L 3481 434 
z
" transform="scale(0.015625)"/>
       <path id="DejaVuSans-76" d="M 191 3500 
L 800 3500 
L 1894 563 
L 2988 3500 
L 3597 3500 
L 2284 0 
L 1503 0 
L 191 3500 
z
" transform="scale(0.015625)"/>
       <path id="DejaVuSans-69" d="M 603 3500 
L 1178 3500 
L 1178 0 
L 603 0 
L 603 3500 
z
M 603 4863 
L 1178 4863 
L 1178 4134 
L 603 4134 
L 603 4863 
z
" transform="scale(0.015625)"/>
       <path id="DejaVuSans-6f" d="M 1959 3097 
Q 1497 3097 1228 2736 
Q 959 2375 959 1747 
Q 959 1119 1226 758 
Q 1494 397 1959 397 
Q 2419 397 2687 759 
Q 2956 1122 2956 1747 
Q 2956 2369 2687 2733 
Q 2419 3097 1959 3097 
z
M 1959 3584 
Q 2709 3584 3137 3096 
Q 3566 2609 3566 1747 
Q 3566 888 3137 398 
Q 2709 -91 1959 -91 
Q 1206 -91 779 398 
Q 353 888 353 1747 
Q 353 2609 779 3096 
Q 1206 3584 1959 3584 
z
" transform="scale(0.015625)"/>
       <path id="DejaVuSans-28" d="M 1984 4856 
Q 1566 4138 1362 3434 
Q 1159 2731 1159 2009 
Q 1159 1288 1364 580 
Q 1569 -128 1984 -844 
L 1484 -844 
Q 1016 -109 783 600 
Q 550 1309 550 2009 
Q 550 2706 781 3412 
Q 1013 4119 1484 4856 
L 1984 4856 
z
" transform="scale(0.015625)"/>
       <path id="DejaVuSans-2016" d="M 1344 4891 
L 1344 -1509 
L 813 -1509 
L 813 4891 
L 1344 4891 
z
M 2375 4891 
L 2375 -1509 
L 1844 -1509 
L 1844 4891 
L 2375 4891 
z
" transform="scale(0.015625)"/>
       <path id="DejaVuSans-Oblique-48" d="M 1081 4666 
L 1716 4666 
L 1344 2753 
L 3634 2753 
L 4006 4666 
L 4641 4666 
L 3731 0 
L 3097 0 
L 3531 2222 
L 1241 2222 
L 806 0 
L 172 0 
L 1081 4666 
z
" transform="scale(0.015625)"/>
       <path id="DejaVuSans-52" d="M 2841 2188 
Q 3044 2119 3236 1894 
Q 3428 1669 3622 1275 
L 4263 0 
L 3584 0 
L 2988 1197 
Q 2756 1666 2539 1819 
Q 2322 1972 1947 1972 
L 1259 1972 
L 1259 0 
L 628 0 
L 628 4666 
L 2053 4666 
Q 2853 4666 3247 4331 
Q 3641 3997 3641 3322 
Q 3641 2881 3436 2590 
Q 3231 2300 2841 2188 
z
M 1259 4147 
L 1259 2491 
L 2053 2491 
Q 2509 2491 2742 2702 
Q 2975 2913 2975 3322 
Q 2975 3731 2742 3939 
Q 2509 4147 2053 4147 
L 1259 4147 
z
" transform="scale(0.015625)"/>
       <path id="DejaVuSans-4d" d="M 628 4666 
L 1569 4666 
L 2759 1491 
L 3956 4666 
L 4897 4666 
L 4897 0 
L 4281 0 
L 4281 4097 
L 3078 897 
L 2444 897 
L 1241 4097 
L 1241 0 
L 628 0 
L 628 4666 
z
" transform="scale(0.015625)"/>
       <path id="DejaVuSans-53" d="M 3425 4513 
L 3425 3897 
Q 3066 4069 2747 4153 
Q 2428 4238 2131 4238 
Q 1616 4238 1336 4038 
Q 1056 3838 1056 3469 
Q 1056 3159 1242 3001 
Q 1428 2844 1947 2747 
L 2328 2669 
Q 3034 2534 3370 2195 
Q 3706 1856 3706 1288 
Q 3706 609 3251 259 
Q 2797 -91 1919 -91 
Q 1588 -91 1214 -16 
Q 841 59 441 206 
L 441 856 
Q 825 641 1194 531 
Q 1563 422 1919 422 
Q 2459 422 2753 634 
Q 3047 847 3047 1241 
Q 3047 1584 2836 1778 
Q 2625 1972 2144 2069 
L 1759 2144 
Q 1053 2284 737 2584 
Q 422 2884 422 3419 
Q 422 4038 858 4394 
Q 1294 4750 2059 4750 
Q 2388 4750 2728 4690 
Q 3069 4631 3425 4513 
z
" transform="scale(0.015625)"/>
       <path id="DejaVuSans-29" d="M 513 4856 
L 1013 4856 
Q 1481 4119 1714 3412 
Q 1947 2706 1947 2009 
Q 1947 1309 1714 600 
Q 1481 -109 1013 -844 
L 513 -844 
Q 928 -128 1133 580 
Q 1338 1288 1338 2009 
Q 1338 2731 1133 3434 
Q 928 4138 513 4856 
z
" transform="scale(0.015625)"/>
      </defs>
      <use xlink:href="#DejaVuSans-54" transform="translate(0 0.578125)"/>
      <use xlink:href="#DejaVuSans-61" transform="translate(61.083984 0.578125)"/>
      <use xlink:href="#DejaVuSans-6e" transform="translate(122.363281 0.578125)"/>
      <use xlink:href="#DejaVuSans-67" transform="translate(185.742188 0.578125)"/>
      <use xlink:href="#DejaVuSans-65" transform="translate(249.21875 0.578125)"/>
      <use xlink:href="#DejaVuSans-6e" transform="translate(310.742188 0.578125)"/>
      <use xlink:href="#DejaVuSans-74" transform="translate(374.121094 0.578125)"/>
      <use xlink:href="#DejaVuSans-20" transform="translate(413.330078 0.578125)"/>
      <use xlink:href="#DejaVuSans-76" transform="translate(445.117188 0.578125)"/>
      <use xlink:href="#DejaVuSans-69" transform="translate(504.296875 0.578125)"/>
      <use xlink:href="#DejaVuSans-6f" transform="translate(532.080078 0.578125)"/>
      <use xlink:href="#DejaVuSans-6c" transform="translate(593.261719 0.578125)"/>
      <use xlink:href="#DejaVuSans-61" transform="translate(621.044922 0.578125)"/>
      <use xlink:href="#DejaVuSans-74" transform="translate(682.324219 0.578125)"/>
      <use xlink:href="#DejaVuSans-69" transform="translate(721.533203 0.578125)"/>
      <use xlink:href="#DejaVuSans-6f" transform="translate(749.316406 0.578125)"/>
      <use xlink:href="#DejaVuSans-6e" transform="translate(810.498047 0.578125)"/>
      <use xlink:href="#DejaVuSans-20" transform="translate(873.876953 0.578125)"/>
      <use xlink:href="#DejaVuSans-28" transform="translate(905.664062 0.578125)"/>
      <use xlink:href="#DejaVuSans-2016" transform="translate(944.677734 0.578125)"/>
      <use xlink:href="#DejaVuSans-Oblique-48" transform="translate(994.677734 0.578125)"/>
      <use xlink:href="#DejaVuSans-2016" transform="translate(1069.873047 0.578125)"/>
      <use xlink:href="#DejaVuSans-52" transform="translate(1120.830078 -15.828125) scale(0.7)"/>
      <use xlink:href="#DejaVuSans-4d" transform="translate(1169.467773 -15.828125) scale(0.7)"/>
      <use xlink:href="#DejaVuSans-53" transform="translate(1229.863281 -15.828125) scale(0.7)"/>
      <use xlink:href="#DejaVuSans-29" transform="translate(1277.03125 0.578125)"/>
     </g>
    </g>
   </g>
   <g id="line2d_59">
    <path d="M 76.923621 159.258068 
L 81.896069 80.379647 
L 86.868518 58.104241 
L 91.840966 43.240579 
L 96.813415 30.118374 
L 101.785864 24.93879 
L 106.758312 22.755737 
L 111.730761 23.369197 
L 116.70321 23.074987 
L 121.675658 23.675654 
L 126.648107 23.912646 
L 131.620555 24.207853 
L 136.593004 24.34077 
L 141.565453 24.664606 
L 146.537901 24.780729 
L 151.51035 25.470737 
L 156.482798 25.458709 
L 161.455247 25.911136 
L 166.427696 25.921078 
L 171.400144 26.562436 
L 176.372593 26.842453 
L 181.345041 27.488524 
L 186.31749 27.519397 
L 191.289939 28.009335 
L 196.262387 28.444423 
L 201.234836 28.472872 
L 206.207285 28.918792 
L 211.179733 29.502838 
L 216.152182 29.473398 
L 221.12463 30.264655 
L 226.097079 30.809681 
L 231.069528 30.971621 
L 236.041976 31.454368 
L 241.014425 32.503642 
L 245.986873 32.65599 
L 250.959322 33.606286 
L 255.931771 34.010009 
L 260.904219 34.549732 
L 265.876668 35.25353 
L 270.849117 36.154191 
L 275.821565 37.157623 
L 280.794014 38.1841 
L 285.766462 38.814605 
L 290.738911 40.631502 
L 295.71136 41.900243 
L 300.683808 44.04753 
L 305.656257 44.937334 
L 310.628705 46.159202 
L 315.601154 47.540908 
L 320.573603 49.193652 
L 325.546051 50.724403 
L 330.5185 52.313631 
L 335.490948 53.929334 
L 340.463397 56.185671 
L 345.435846 56.342721 
L 350.408294 57.15507 
L 355.380743 57.92479 
L 360.353192 59.229316 
L 365.32564 60.856927 
L 370.298089 62.523536 
L 375.270537 64.740432 
L 380.242986 67.308331 
L 385.215435 70.015485 
L 390.187883 71.923336 
L 395.160332 72.06014 
L 400.13278 72.237581 
L 405.105229 72.310602 
L 410.077678 73.581882 
L 415.050126 74.286991 
L 420.022575 74.771094 
L 424.995023 75.0426 
L 429.967472 75.610607 
L 434.939921 76.198351 
L 439.912369 78.20798 
L 444.884818 77.753704 
L 449.857267 78.461433 
L 454.829715 78.531643 
L 459.802164 80.05076 
L 464.774612 81.270708 
L 469.747061 84.003375 
L 474.71951 86.296374 
L 479.691958 89.688929 
L 484.664407 93.479574 
L 489.636855 97.274735 
L 494.609304 102.630715 
L 499.581753 106.094149 
L 504.554201 114.939709 
L 509.52665 118.922536 
L 514.499098 129.441421 
L 519.471547 146.471531 
L 524.443996 167.717771 
L 529.416444 187.874744 
L 534.388893 193.551728 
L 539.361342 193.109539 
L 544.33379 197.697033 
L 549.306239 197.459187 
L 554.278687 199.591019 
L 559.251136 193.167589 
L 564.223585 194.661756 
L 569.196033 193.947166 
" clip-path="url(#p7f46a036ad)" style="fill: none; stroke: #440154; stroke-width: 1.3; stroke-linecap: square"/>
   </g>
   <g id="line2d_60">
    <path d="M 76.923621 185.415664 
L 81.896069 135.590017 
L 86.868518 126.620859 
L 91.840966 109.015096 
L 96.813415 88.499172 
L 101.785864 78.510138 
L 106.758312 75.471865 
L 111.730761 73.21245 
L 116.70321 70.972212 
L 121.675658 69.853869 
L 126.648107 68.65153 
L 131.620555 68.712523 
L 136.593004 68.581327 
L 141.565453 69.174735 
L 146.537901 69.056567 
L 151.51035 69.652187 
L 156.482798 70.295625 
L 161.455247 70.90084 
L 166.427696 71.600132 
L 171.400144 72.272134 
L 176.372593 73.060148 
L 181.345041 74.496437 
L 186.31749 75.145685 
L 191.289939 76.600922 
L 196.262387 77.359868 
L 201.234836 78.621507 
L 206.207285 79.218215 
L 211.179733 80.885975 
L 216.152182 82.421696 
L 221.12463 83.735858 
L 226.097079 85.779051 
L 231.069528 87.905826 
L 236.041976 88.803777 
L 241.014425 90.602863 
L 245.986873 91.460908 
L 250.959322 93.534913 
L 255.931771 95.530182 
L 260.904219 97.649082 
L 265.876668 98.846938 
L 270.849117 101.113654 
L 275.821565 103.190197 
L 280.794014 106.189184 
L 285.766462 108.236264 
L 290.738911 111.74933 
L 295.71136 114.202398 
L 300.683808 115.838439 
L 305.656257 117.27155 
L 310.628705 120.614394 
L 315.601154 122.252042 
L 320.573603 123.76387 
L 325.546051 125.934786 
L 330.5185 129.605961 
L 335.490948 131.939441 
L 340.463397 134.363769 
L 345.435846 134.334357 
L 350.408294 135.715678 
L 355.380743 136.166662 
L 360.353192 139.156862 
L 365.32564 138.60881 
L 370.298089 140.000539 
L 375.270537 139.540026 
L 380.242986 139.163478 
L 385.215435 139.979396 
L 390.187883 140.347499 
L 395.160332 141.679519 
L 400.13278 142.601555 
L 405.105229 141.468703 
L 410.077678 141.719637 
L 415.050126 141.684384 
L 420.022575 142.330475 
L 424.995023 141.88065 
L 429.967472 142.781965 
L 434.939921 142.026556 
L 439.912369 144.00662 
L 444.884818 142.751751 
L 449.857267 143.491624 
L 454.829715 143.997818 
L 459.802164 144.117956 
L 464.774612 142.56615 
L 469.747061 144.328319 
L 474.71951 143.740279 
L 479.691958 145.023165 
L 484.664407 143.928582 
L 489.636855 146.102772 
L 494.609304 145.223414 
L 499.581753 146.164234 
L 504.554201 146.714277 
L 509.52665 147.351449 
L 514.499098 148.121754 
L 519.471547 149.852887 
L 524.443996 150.864787 
L 529.416444 154.340383 
L 534.388893 156.675295 
L 539.361342 162.004072 
L 544.33379 167.755126 
L 549.306239 183.553615 
L 554.278687 196.440617 
L 559.251136 206.404562 
L 564.223585 217.827395 
L 569.196033 217.28237 
" clip-path="url(#p7f46a036ad)" style="fill: none; stroke: #481c6e; stroke-width: 1.3; stroke-linecap: square"/>
   </g>
   <g id="line2d_61">
    <path d="M 76.923621 161.673764 
L 81.896069 119.090233 
L 86.868518 94.083864 
L 91.840966 83.772072 
L 96.813415 79.692461 
L 101.785864 76.039646 
L 106.758312 73.642768 
L 111.730761 71.033286 
L 116.70321 68.946261 
L 121.675658 66.82147 
L 126.648107 66.574263 
L 131.620555 66.843207 
L 136.593004 66.986354 
L 141.565453 67.228867 
L 146.537901 67.525384 
L 151.51035 68.026973 
L 156.482798 68.609757 
L 161.455247 68.980701 
L 166.427696 69.345555 
L 171.400144 69.961871 
L 176.372593 70.520359 
L 181.345041 71.064547 
L 186.31749 71.702965 
L 191.289939 72.384215 
L 196.262387 72.812172 
L 201.234836 73.397382 
L 206.207285 73.94225 
L 211.179733 74.954396 
L 216.152182 75.495704 
L 221.12463 76.340631 
L 226.097079 76.834265 
L 231.069528 77.764498 
L 236.041976 78.410824 
L 241.014425 79.478726 
L 245.986873 80.523446 
L 250.959322 81.488257 
L 255.931771 82.369998 
L 260.904219 83.459266 
L 265.876668 83.987295 
L 270.849117 85.17287 
L 275.821565 86.319271 
L 280.794014 87.173357 
L 285.766462 87.60948 
L 290.738911 88.505314 
L 295.71136 89.315834 
L 300.683808 91.01562 
L 305.656257 91.939168 
L 310.628705 92.676769 
L 315.601154 93.555481 
L 320.573603 94.746658 
L 325.546051 95.339101 
L 330.5185 95.829094 
L 335.490948 96.788135 
L 340.463397 97.677863 
L 345.435846 98.238969 
L 350.408294 99.306165 
L 355.380743 99.918398 
L 360.353192 100.746915 
L 365.32564 101.843937 
L 370.298089 102.779098 
L 375.270537 103.6382 
L 380.242986 104.51422 
L 385.215435 105.366351 
L 390.187883 105.662984 
L 395.160332 106.694974 
L 400.13278 107.305191 
L 405.105229 107.905285 
L 410.077678 108.977181 
L 415.050126 110.450464 
L 420.022575 111.689704 
L 424.995023 113.680734 
L 429.967472 114.850371 
L 434.939921 117.219681 
L 439.912369 119.168586 
L 444.884818 121.632424 
L 449.857267 123.709475 
L 454.829715 126.767794 
L 459.802164 129.454213 
L 464.774612 131.396649 
L 469.747061 132.824963 
L 474.71951 137.845339 
L 479.691958 134.43718 
L 484.664407 135.319851 
L 489.636855 135.499708 
L 494.609304 138.65931 
L 499.581753 137.108966 
L 504.554201 139.141976 
L 509.52665 138.014278 
L 514.499098 140.129524 
L 519.471547 141.100053 
L 524.443996 144.441921 
L 529.416444 147.188236 
L 534.388893 156.868821 
L 539.361342 154.529191 
L 544.33379 160.865702 
L 549.306239 165.332254 
L 554.278687 179.849716 
L 559.251136 164.434699 
L 564.223585 216.998016 
L 569.196033 232.010192 
" clip-path="url(#p7f46a036ad)" style="fill: none; stroke: #453581; stroke-width: 1.3; stroke-linecap: square"/>
   </g>
   <g id="line2d_62">
    <path d="M 76.923621 176.266213 
L 81.896069 129.351896 
L 86.868518 100.221205 
L 91.840966 87.396305 
L 96.813415 84.177184 
L 101.785864 82.388754 
L 106.758312 80.888824 
L 111.730761 79.409997 
L 116.70321 78.747709 
L 121.675658 78.618926 
L 126.648107 78.598307 
L 131.620555 78.713863 
L 136.593004 78.828454 
L 141.565453 79.231738 
L 146.537901 79.233923 
L 151.51035 79.581097 
L 156.482798 79.835173 
L 161.455247 80.230406 
L 166.427696 80.517746 
L 171.400144 81.3819 
L 176.372593 81.93378 
L 181.345041 82.417471 
L 186.31749 82.545818 
L 191.289939 82.891661 
L 196.262387 83.178928 
L 201.234836 83.647608 
L 206.207285 83.948546 
L 211.179733 84.458531 
L 216.152182 84.703705 
L 221.12463 85.178179 
L 226.097079 85.525042 
L 231.069528 86.15077 
L 236.041976 86.727113 
L 241.014425 87.536638 
L 245.986873 87.760891 
L 250.959322 88.195986 
L 255.931771 88.587321 
L 260.904219 89.135866 
L 265.876668 90.672843 
L 270.849117 90.328518 
L 275.821565 90.825762 
L 280.794014 91.751922 
L 285.766462 92.430219 
L 290.738911 93.054244 
L 295.71136 93.734167 
L 300.683808 94.331798 
L 305.656257 94.86742 
L 310.628705 97.163873 
L 315.601154 96.264996 
L 320.573603 97.096802 
L 325.546051 98.04283 
L 330.5185 99.440058 
L 335.490948 100.791116 
L 340.463397 101.759094 
L 345.435846 102.328744 
L 350.408294 103.376426 
L 355.380743 104.82546 
L 360.353192 106.500455 
L 365.32564 107.814853 
L 370.298089 109.51704 
L 375.270537 110.874902 
L 380.242986 112.58668 
L 385.215435 114.134278 
L 390.187883 115.497355 
L 395.160332 117.880303 
L 400.13278 119.709928 
L 405.105229 125.008966 
L 410.077678 123.519303 
L 415.050126 125.929749 
L 420.022575 128.496932 
L 424.995023 130.97095 
L 429.967472 133.290685 
L 434.939921 136.578731 
L 439.912369 139.429305 
L 444.884818 141.583827 
L 449.857267 143.971526 
L 454.829715 145.997798 
L 459.802164 148.927956 
L 464.774612 151.757869 
L 469.747061 155.833129 
L 474.71951 157.18497 
L 479.691958 158.724391 
L 484.664407 160.274589 
L 489.636855 170.454554 
L 494.609304 162.947776 
L 499.581753 164.752157 
L 504.554201 167.825548 
L 509.52665 172.392343 
L 514.499098 176.78207 
L 519.471547 180.312083 
L 524.443996 180.449945 
L 529.416444 179.663177 
L 534.388893 179.500931 
L 539.361342 179.945529 
L 544.33379 186.520481 
L 549.306239 180.60313 
L 554.278687 187.206688 
L 559.251136 180.537068 
L 564.223585 204.809295 
L 569.196033 193.560667 
" clip-path="url(#p7f46a036ad)" style="fill: none; stroke: #3d4d8a; stroke-width: 1.3; stroke-linecap: square"/>
   </g>
   <g id="line2d_63">
    <path d="M 76.923621 231.812386 
L 81.896069 148.870158 
L 86.868518 117.768642 
L 91.840966 108.856118 
L 96.813415 102.565612 
L 101.785864 98.669439 
L 106.758312 96.839354 
L 111.730761 95.305491 
L 116.70321 94.673916 
L 121.675658 94.647188 
L 126.648107 94.709741 
L 131.620555 95.099094 
L 136.593004 95.331187 
L 141.565453 95.795163 
L 146.537901 95.964491 
L 151.51035 96.552973 
L 156.482798 96.807887 
L 161.455247 97.334912 
L 166.427696 97.672055 
L 171.400144 98.353733 
L 176.372593 98.668431 
L 181.345041 99.263553 
L 186.31749 99.743694 
L 191.289939 100.432665 
L 196.262387 100.624266 
L 201.234836 101.317108 
L 206.207285 101.725931 
L 211.179733 102.574113 
L 216.152182 103.09739 
L 221.12463 103.960195 
L 226.097079 104.55141 
L 231.069528 105.304738 
L 236.041976 105.794116 
L 241.014425 106.545738 
L 245.986873 106.970511 
L 250.959322 107.856328 
L 255.931771 108.259216 
L 260.904219 109.108889 
L 265.876668 109.329481 
L 270.849117 110.155085 
L 275.821565 110.617594 
L 280.794014 111.396511 
L 285.766462 111.661905 
L 290.738911 112.399164 
L 295.71136 112.993681 
L 300.683808 113.723545 
L 305.656257 114.148712 
L 310.628705 114.972426 
L 315.601154 115.573402 
L 320.573603 116.172363 
L 325.546051 116.756857 
L 330.5185 117.738138 
L 335.490948 118.255814 
L 340.463397 119.198635 
L 345.435846 119.919818 
L 350.408294 121.174696 
L 355.380743 122.445863 
L 360.353192 123.490376 
L 365.32564 123.757286 
L 370.298089 124.797376 
L 375.270537 125.227659 
L 380.242986 126.381938 
L 385.215435 127.081886 
L 390.187883 127.975652 
L 395.160332 128.744181 
L 400.13278 129.942519 
L 405.105229 130.853788 
L 410.077678 132.112243 
L 415.050126 133.318772 
L 420.022575 134.774985 
L 424.995023 135.689635 
L 429.967472 136.815469 
L 434.939921 137.489069 
L 439.912369 138.776978 
L 444.884818 139.948073 
L 449.857267 141.477613 
L 454.829715 143.164589 
L 459.802164 145.377955 
L 464.774612 148.082094 
L 469.747061 150.900136 
L 474.71951 153.729078 
L 479.691958 157.838777 
L 484.664407 160.958836 
L 489.636855 164.641113 
L 494.609304 168.154455 
L 499.581753 172.511548 
L 504.554201 176.509353 
L 509.52665 182.024184 
L 514.499098 189.512529 
L 519.471547 197.010475 
L 524.443996 207.217432 
L 529.416444 220.046743 
L 534.388893 229.682262 
L 539.361342 234.94267 
L 544.33379 246.995404 
L 549.306239 261.404646 
L 554.278687 267.545504 
L 559.251136 274.237508 
L 564.223585 273.629426 
L 569.196033 273.416552 
" clip-path="url(#p7f46a036ad)" style="fill: none; stroke: #34618d; stroke-width: 1.3; stroke-linecap: square"/>
   </g>
   <g id="line2d_64">
    <path d="M 76.923621 242.205899 
L 81.896069 169.460445 
L 86.868518 128.319794 
L 91.840966 115.517433 
L 96.813415 113.127216 
L 101.785864 112.606902 
L 106.758312 111.747347 
L 111.730761 110.901821 
L 116.70321 110.34838 
L 121.675658 110.184195 
L 126.648107 110.069639 
L 131.620555 110.172313 
L 136.593004 110.209017 
L 141.565453 110.49346 
L 146.537901 110.70068 
L 151.51035 111.105703 
L 156.482798 111.325603 
L 161.455247 111.887478 
L 166.427696 112.231905 
L 171.400144 112.630296 
L 176.372593 112.920181 
L 181.345041 113.418542 
L 186.31749 113.753234 
L 191.289939 114.195923 
L 196.262387 114.571938 
L 201.234836 114.907609 
L 206.207285 115.238385 
L 211.179733 115.616278 
L 216.152182 115.847834 
L 221.12463 116.177139 
L 226.097079 116.457896 
L 231.069528 116.902056 
L 236.041976 117.104976 
L 241.014425 117.571247 
L 245.986873 117.857906 
L 250.959322 118.388748 
L 255.931771 118.655132 
L 260.904219 119.117491 
L 265.876668 119.478436 
L 270.849117 119.958821 
L 275.821565 120.526342 
L 280.794014 120.988138 
L 285.766462 121.52495 
L 290.738911 122.122774 
L 295.71136 122.401773 
L 300.683808 123.083633 
L 305.656257 123.618585 
L 310.628705 124.533903 
L 315.601154 125.246034 
L 320.573603 126.096404 
L 325.546051 126.564693 
L 330.5185 127.360388 
L 335.490948 128.217241 
L 340.463397 128.845967 
L 345.435846 129.726062 
L 350.408294 130.955453 
L 355.380743 131.806293 
L 360.353192 132.783775 
L 365.32564 134.080041 
L 370.298089 135.098224 
L 375.270537 136.35139 
L 380.242986 138.166859 
L 385.215435 139.962968 
L 390.187883 141.782042 
L 395.160332 143.973067 
L 400.13278 145.998181 
L 405.105229 147.476108 
L 410.077678 150.209168 
L 415.050126 153.082265 
L 420.022575 155.417608 
L 424.995023 158.217386 
L 429.967472 161.308778 
L 434.939921 164.22288 
L 439.912369 167.39637 
L 444.884818 170.8544 
L 449.857267 174.358867 
L 454.829715 179.444194 
L 459.802164 183.53052 
L 464.774612 186.25634 
L 469.747061 190.279112 
L 474.71951 193.769917 
L 479.691958 197.223461 
L 484.664407 202.441986 
L 489.636855 206.650766 
L 494.609304 210.460646 
L 499.581753 214.873256 
L 504.554201 217.347647 
L 509.52665 224.192651 
L 514.499098 232.910416 
L 519.471547 239.648892 
L 524.443996 248.317657 
L 529.416444 261.358493 
L 534.388893 271.910282 
L 539.361342 279.558265 
L 544.33379 284.11141 
L 549.306239 285.038445 
L 554.278687 285.301134 
L 559.251136 285.843298 
L 564.223585 285.785253 
L 569.196033 286.085866 
" clip-path="url(#p7f46a036ad)" style="fill: none; stroke: #2b748e; stroke-width: 1.3; stroke-linecap: square"/>
   </g>
   <g id="line2d_65">
    <path d="M 76.923621 233.114724 
L 81.896069 173.391915 
L 86.868518 139.831236 
L 91.840966 131.647359 
L 96.813415 130.838785 
L 101.785864 129.959948 
L 106.758312 130.268288 
L 111.730761 130.21194 
L 116.70321 130.37743 
L 121.675658 130.448194 
L 126.648107 130.54171 
L 131.620555 130.635306 
L 136.593004 130.679331 
L 141.565453 130.831925 
L 146.537901 130.792346 
L 151.51035 131.082734 
L 156.482798 131.042696 
L 161.455247 131.306515 
L 166.427696 131.238018 
L 171.400144 131.535061 
L 176.372593 131.568474 
L 181.345041 131.876429 
L 186.31749 131.960129 
L 191.289939 132.303776 
L 196.262387 132.396703 
L 201.234836 132.867084 
L 206.207285 132.895293 
L 211.179733 133.269047 
L 216.152182 133.427264 
L 221.12463 133.719286 
L 226.097079 133.77061 
L 231.069528 134.190854 
L 236.041976 134.282413 
L 241.014425 134.693047 
L 245.986873 134.760651 
L 250.959322 135.246102 
L 255.931771 135.354464 
L 260.904219 135.955915 
L 265.876668 136.100149 
L 270.849117 136.46424 
L 275.821565 136.597353 
L 280.794014 137.031858 
L 285.766462 137.07881 
L 290.738911 137.674672 
L 295.71136 137.98678 
L 300.683808 138.444216 
L 305.656257 138.767529 
L 310.628705 139.302119 
L 315.601154 139.837809 
L 320.573603 140.414214 
L 325.546051 140.872417 
L 330.5185 141.446619 
L 335.490948 141.960438 
L 340.463397 142.726174 
L 345.435846 143.342138 
L 350.408294 144.233061 
L 355.380743 145.105648 
L 360.353192 146.333246 
L 365.32564 147.438638 
L 370.298089 148.449363 
L 375.270537 149.417071 
L 380.242986 150.916473 
L 385.215435 152.190399 
L 390.187883 153.930057 
L 395.160332 155.845633 
L 400.13278 157.558678 
L 405.105229 159.232301 
L 410.077678 160.996755 
L 415.050126 163.087576 
L 420.022575 165.091399 
L 424.995023 166.563268 
L 429.967472 168.592755 
L 434.939921 171.353575 
L 439.912369 174.102307 
L 444.884818 176.771087 
L 449.857267 179.850221 
L 454.829715 182.939715 
L 459.802164 186.134939 
L 464.774612 189.227042 
L 469.747061 191.848939 
L 474.71951 195.580918 
L 479.691958 200.158471 
L 484.664407 204.256148 
L 489.636855 207.928051 
L 494.609304 211.752176 
L 499.581753 215.871512 
L 504.554201 222.748993 
L 509.52665 227.894561 
L 514.499098 231.119363 
L 519.471547 236.07753 
L 524.443996 244.51417 
L 529.416444 252.453132 
L 534.388893 266.724797 
L 539.361342 278.454908 
L 544.33379 286.723582 
L 549.306239 289.314543 
L 554.278687 289.127311 
L 559.251136 290.461946 
L 564.223585 290.059432 
L 569.196033 290.691337 
" clip-path="url(#p7f46a036ad)" style="fill: none; stroke: #24878e; stroke-width: 1.3; stroke-linecap: square"/>
   </g>
   <g id="line2d_66">
    <path d="M 76.923621 206.298494 
L 81.896069 163.200143 
L 86.868518 149.912217 
L 91.840966 148.228169 
L 96.813415 146.4624 
L 101.785864 146.637531 
L 106.758312 145.82034 
L 111.730761 145.746311 
L 116.70321 145.094666 
L 121.675658 145.215711 
L 126.648107 144.823622 
L 131.620555 144.92121 
L 136.593004 144.593953 
L 141.565453 144.759287 
L 146.537901 144.680359 
L 151.51035 145.193119 
L 156.482798 145.327023 
L 161.455247 145.764061 
L 166.427696 145.907263 
L 171.400144 146.2553 
L 176.372593 146.313972 
L 181.345041 146.690762 
L 186.31749 146.888634 
L 191.289939 147.238729 
L 196.262387 147.315657 
L 201.234836 147.832177 
L 206.207285 147.938806 
L 211.179733 148.260699 
L 216.152182 146.638046 
L 221.12463 148.710687 
L 226.097079 148.745402 
L 231.069528 148.951602 
L 236.041976 148.985076 
L 241.014425 149.099291 
L 245.986873 149.111886 
L 250.959322 149.230908 
L 255.931771 148.853737 
L 260.904219 148.351844 
L 265.876668 148.344897 
L 270.849117 149.047289 
L 275.821565 149.229354 
L 280.794014 150.244613 
L 285.766462 150.324949 
L 290.738911 150.661681 
L 295.71136 149.91412 
L 300.683808 151.027683 
L 305.656257 151.136571 
L 310.628705 151.30226 
L 315.601154 151.504973 
L 320.573603 151.636389 
L 325.546051 152.059848 
L 330.5185 151.878081 
L 335.490948 151.095774 
L 340.463397 151.407832 
L 345.435846 152.292205 
L 350.408294 152.900876 
L 355.380743 153.896475 
L 360.353192 154.040954 
L 365.32564 154.54038 
L 370.298089 153.447832 
L 375.270537 155.397615 
L 380.242986 155.53638 
L 385.215435 155.94993 
L 390.187883 156.290433 
L 395.160332 156.820913 
L 400.13278 156.977869 
L 405.105229 156.586008 
L 410.077678 157.362523 
L 415.050126 158.258319 
L 420.022575 158.257578 
L 424.995023 158.341115 
L 429.967472 158.711529 
L 434.939921 160.774844 
L 439.912369 161.986311 
L 444.884818 162.820227 
L 449.857267 162.733375 
L 454.829715 164.640488 
L 459.802164 165.709711 
L 464.774612 168.0241 
L 469.747061 168.437444 
L 474.71951 170.158621 
L 479.691958 171.484459 
L 484.664407 174.419861 
L 489.636855 176.069897 
L 494.609304 179.281888 
L 499.581753 181.154478 
L 504.554201 184.069816 
L 509.52665 186.338783 
L 514.499098 188.686792 
L 519.471547 190.725549 
L 524.443996 192.742014 
L 529.416444 195.526592 
L 534.388893 198.819227 
L 539.361342 204.851903 
L 544.33379 211.263984 
L 549.306239 214.268766 
L 554.278687 217.757358 
L 559.251136 227.112835 
L 564.223585 245.498143 
L 569.196033 276.643422 
" clip-path="url(#p7f46a036ad)" style="fill: none; stroke: #1f998a; stroke-width: 1.3; stroke-linecap: square"/>
   </g>
   <g id="line2d_67">
    <path d="M 76.923621 248.993799 
L 81.896069 200.541352 
L 86.868518 177.758756 
L 91.840966 173.60836 
L 96.813415 171.943808 
L 101.785864 169.460616 
L 106.758312 167.855104 
L 111.730761 166.666794 
L 116.70321 166.405211 
L 121.675658 165.945847 
L 126.648107 165.968567 
L 131.620555 166.070016 
L 136.593004 166.419757 
L 141.565453 166.757583 
L 146.537901 167.095164 
L 151.51035 167.35501 
L 156.482798 167.596633 
L 161.455247 167.898303 
L 166.427696 168.193394 
L 171.400144 168.594048 
L 176.372593 168.869737 
L 181.345041 169.340632 
L 186.31749 169.55921 
L 191.289939 169.945358 
L 196.262387 170.229604 
L 201.234836 170.810602 
L 206.207285 171.086148 
L 211.179733 171.555932 
L 216.152182 171.917442 
L 221.12463 172.419744 
L 226.097079 172.627832 
L 231.069528 173.131604 
L 236.041976 173.299451 
L 241.014425 173.749869 
L 245.986873 173.878318 
L 250.959322 174.182299 
L 255.931771 174.209659 
L 260.904219 174.510357 
L 265.876668 174.454804 
L 270.849117 174.768671 
L 275.821565 174.83214 
L 280.794014 175.373892 
L 285.766462 175.449122 
L 290.738911 176.021979 
L 295.71136 176.387865 
L 300.683808 177.089548 
L 305.656257 177.25205 
L 310.628705 177.895403 
L 315.601154 178.210076 
L 320.573603 178.965793 
L 325.546051 179.092545 
L 330.5185 179.678135 
L 335.490948 179.884274 
L 340.463397 180.488006 
L 345.435846 180.547267 
L 350.408294 181.129554 
L 355.380743 181.272867 
L 360.353192 181.928747 
L 365.32564 182.26686 
L 370.298089 183.118085 
L 375.270537 183.522739 
L 380.242986 184.232088 
L 385.215435 184.795525 
L 390.187883 185.682084 
L 395.160332 186.144932 
L 400.13278 187.011517 
L 405.105229 187.326497 
L 410.077678 188.063365 
L 415.050126 188.314959 
L 420.022575 189.387468 
L 424.995023 189.915207 
L 429.967472 191.137727 
L 434.939921 191.610325 
L 439.912369 192.405064 
L 444.884818 193.346297 
L 449.857267 194.59994 
L 454.829715 195.424289 
L 459.802164 196.657156 
L 464.774612 197.670774 
L 469.747061 198.789454 
L 474.71951 199.975163 
L 479.691958 201.027776 
L 484.664407 202.39307 
L 489.636855 203.943232 
L 494.609304 205.4733 
L 499.581753 208.092717 
L 504.554201 210.704845 
L 509.52665 214.293661 
L 514.499098 218.022224 
L 519.471547 221.331743 
L 524.443996 226.102563 
L 529.416444 231.036027 
L 534.388893 234.695479 
L 539.361342 241.076807 
L 544.33379 251.666492 
L 549.306239 265.70376 
L 554.278687 279.701225 
L 559.251136 300.393421 
L 564.223585 308.574506 
L 569.196033 312.081737 
" clip-path="url(#p7f46a036ad)" style="fill: none; stroke: #25ac82; stroke-width: 1.3; stroke-linecap: square"/>
   </g>
   <g id="line2d_68">
    <path d="M 76.923621 233.142696 
L 81.896069 199.335888 
L 86.868518 188.001032 
L 91.840966 183.767435 
L 96.813415 182.583634 
L 101.785864 181.250299 
L 106.758312 180.142725 
L 111.730761 179.870793 
L 116.70321 179.602896 
L 121.675658 179.41281 
L 126.648107 179.410787 
L 131.620555 179.388332 
L 136.593004 179.252562 
L 141.565453 179.566425 
L 146.537901 179.067268 
L 151.51035 179.458931 
L 156.482798 179.990704 
L 161.455247 179.770341 
L 166.427696 180.629887 
L 171.400144 181.021386 
L 176.372593 181.485471 
L 181.345041 181.718665 
L 186.31749 181.8862 
L 191.289939 182.073831 
L 196.262387 182.628742 
L 201.234836 182.69347 
L 206.207285 182.449671 
L 211.179733 182.728023 
L 216.152182 183.595727 
L 221.12463 184.014707 
L 226.097079 183.643529 
L 231.069528 184.560526 
L 236.041976 184.838273 
L 241.014425 185.410383 
L 245.986873 185.259573 
L 250.959322 184.642674 
L 255.931771 185.679389 
L 260.904219 186.144035 
L 265.876668 186.341904 
L 270.849117 186.701475 
L 275.821565 186.791757 
L 280.794014 187.246616 
L 285.766462 187.312616 
L 290.738911 187.750895 
L 295.71136 188.094348 
L 300.683808 188.29343 
L 305.656257 188.42921 
L 310.628705 188.626826 
L 315.601154 188.829539 
L 320.573603 189.612471 
L 325.546051 188.953352 
L 330.5185 189.74324 
L 335.490948 190.194405 
L 340.463397 190.10059 
L 345.435846 190.606708 
L 350.408294 191.348236 
L 355.380743 190.810941 
L 360.353192 191.790848 
L 365.32564 192.329942 
L 370.298089 192.655832 
L 375.270537 192.413594 
L 380.242986 192.928657 
L 385.215435 193.544033 
L 390.187883 194.164636 
L 395.160332 193.805965 
L 400.13278 194.837715 
L 405.105229 195.229351 
L 410.077678 195.71569 
L 415.050126 195.695044 
L 420.022575 196.722026 
L 424.995023 196.480549 
L 429.967472 196.810803 
L 434.939921 197.152041 
L 439.912369 198.788355 
L 444.884818 198.835925 
L 449.857267 199.853213 
L 454.829715 200.130072 
L 459.802164 200.809622 
L 464.774612 200.969875 
L 469.747061 202.302972 
L 474.71951 202.554095 
L 479.691958 204.344569 
L 484.664407 205.040686 
L 489.636855 207.175436 
L 494.609304 207.512179 
L 499.581753 209.617168 
L 504.554201 210.205361 
L 509.52665 213.331319 
L 514.499098 214.077251 
L 519.471547 216.864225 
L 524.443996 217.114561 
L 529.416444 221.163372 
L 534.388893 223.739596 
L 539.361342 230.43128 
L 544.33379 236.677689 
L 549.306239 249.957523 
L 554.278687 266.353184 
L 559.251136 283.866764 
L 564.223585 295.296014 
L 569.196033 303.064653 
" clip-path="url(#p7f46a036ad)" style="fill: none; stroke: #40bd72; stroke-width: 1.3; stroke-linecap: square"/>
   </g>
   <g id="line2d_69">
    <path d="M 76.923621 223.421125 
L 81.896069 200.524346 
L 86.868518 189.884584 
L 91.840966 186.063445 
L 96.813415 185.995482 
L 101.785864 185.707898 
L 106.758312 184.542471 
L 111.730761 183.746605 
L 116.70321 183.882953 
L 121.675658 183.538479 
L 126.648107 184.439364 
L 131.620555 185.12548 
L 136.593004 184.886827 
L 141.565453 185.18946 
L 146.537901 184.901499 
L 151.51035 185.12361 
L 156.482798 185.317204 
L 161.455247 185.80228 
L 166.427696 186.351589 
L 171.400144 185.677941 
L 176.372593 187.080322 
L 181.345041 187.367434 
L 186.31749 187.612466 
L 191.289939 187.261429 
L 196.262387 187.857334 
L 201.234836 188.036446 
L 206.207285 188.96087 
L 211.179733 189.072164 
L 216.152182 188.761419 
L 221.12463 190.061721 
L 226.097079 190.836865 
L 231.069528 191.015139 
L 236.041976 191.222194 
L 241.014425 191.341012 
L 245.986873 192.049326 
L 250.959322 192.295435 
L 255.931771 192.891475 
L 260.904219 192.987286 
L 265.876668 193.06644 
L 270.849117 194.30534 
L 275.821565 194.420624 
L 280.794014 193.650003 
L 285.766462 194.872676 
L 290.738911 196.117275 
L 295.71136 194.985505 
L 300.683808 196.300656 
L 305.656257 196.391007 
L 310.628705 195.860254 
L 315.601154 197.813191 
L 320.573603 198.469919 
L 325.546051 196.89379 
L 330.5185 198.759146 
L 335.490948 199.633609 
L 340.463397 198.428071 
L 345.435846 199.452082 
L 350.408294 200.904146 
L 355.380743 200.169838 
L 360.353192 201.361064 
L 365.32564 201.507256 
L 370.298089 201.624105 
L 375.270537 202.941667 
L 380.242986 203.76974 
L 385.215435 203.528183 
L 390.187883 204.674979 
L 395.160332 204.799452 
L 400.13278 205.85967 
L 405.105229 206.542829 
L 410.077678 206.682632 
L 415.050126 207.253307 
L 420.022575 208.642647 
L 424.995023 209.549748 
L 429.967472 210.265142 
L 434.939921 210.595369 
L 439.912369 211.815249 
L 444.884818 212.873156 
L 449.857267 214.010342 
L 454.829715 214.650183 
L 459.802164 215.761998 
L 464.774612 217.036849 
L 469.747061 218.432368 
L 474.71951 219.391574 
L 479.691958 220.955714 
L 484.664407 222.832897 
L 489.636855 225.565053 
L 494.609304 228.2915 
L 499.581753 230.857269 
L 504.554201 233.586031 
L 509.52665 236.844524 
L 514.499098 240.108815 
L 519.471547 244.287759 
L 524.443996 249.247394 
L 529.416444 255.145643 
L 534.388893 261.158096 
L 539.361342 269.282938 
L 544.33379 278.351372 
L 549.306239 287.101002 
L 554.278687 293.59528 
L 559.251136 297.457778 
L 564.223585 299.366172 
L 569.196033 299.92115 
" clip-path="url(#p7f46a036ad)" style="fill: none; stroke: #67cc5c; stroke-width: 1.3; stroke-linecap: square"/>
   </g>
   <g id="line2d_70">
    <path d="M 76.923621 223.4289 
L 81.896069 205.898457 
L 86.868518 198.718741 
L 91.840966 194.583316 
L 96.813415 192.239773 
L 101.785864 190.863203 
L 106.758312 190.970025 
L 111.730761 190.650903 
L 116.70321 190.344995 
L 121.675658 189.864955 
L 126.648107 190.067151 
L 131.620555 190.652667 
L 136.593004 190.815523 
L 141.565453 191.072648 
L 146.537901 191.681869 
L 151.51035 192.272054 
L 156.482798 191.791181 
L 161.455247 192.210738 
L 166.427696 193.345163 
L 171.400144 193.964399 
L 176.372593 193.594908 
L 181.345041 193.838651 
L 186.31749 194.488418 
L 191.289939 194.861489 
L 196.262387 194.541745 
L 201.234836 195.218002 
L 206.207285 195.501685 
L 211.179733 195.361893 
L 216.152182 195.966688 
L 221.12463 196.593325 
L 226.097079 197.030547 
L 231.069528 197.221598 
L 236.041976 197.315752 
L 241.014425 197.933019 
L 245.986873 198.224243 
L 250.959322 198.692405 
L 255.931771 199.409032 
L 260.904219 199.824607 
L 265.876668 199.35142 
L 270.849117 199.940851 
L 275.821565 200.562518 
L 280.794014 201.352543 
L 285.766462 201.640256 
L 290.738911 201.967245 
L 295.71136 202.373358 
L 300.683808 203.059528 
L 305.656257 203.590021 
L 310.628705 203.939179 
L 315.601154 204.292702 
L 320.573603 205.108876 
L 325.546051 204.598707 
L 330.5185 205.164713 
L 335.490948 205.688821 
L 340.463397 206.183605 
L 345.435846 206.54003 
L 350.408294 207.322399 
L 355.380743 207.725121 
L 360.353192 208.739298 
L 365.32564 208.880582 
L 370.298089 209.463154 
L 375.270537 209.497978 
L 380.242986 210.027596 
L 385.215435 210.104745 
L 390.187883 210.999321 
L 395.160332 211.301302 
L 400.13278 212.107422 
L 405.105229 212.367607 
L 410.077678 213.494475 
L 415.050126 213.75408 
L 420.022575 215.183285 
L 424.995023 216.004592 
L 429.967472 217.735696 
L 434.939921 217.847498 
L 439.912369 218.9525 
L 444.884818 219.0987 
L 449.857267 220.461176 
L 454.829715 220.721713 
L 459.802164 222.07122 
L 464.774612 222.354606 
L 469.747061 224.033988 
L 474.71951 224.59305 
L 479.691958 226.198819 
L 484.664407 227.290553 
L 489.636855 229.862831 
L 494.609304 232.042857 
L 499.581753 235.425592 
L 504.554201 238.631987 
L 509.52665 242.895132 
L 514.499098 248.108584 
L 519.471547 254.331716 
L 524.443996 261.863022 
L 529.416444 269.861422 
L 534.388893 278.020983 
L 539.361342 285.443288 
L 544.33379 291.484331 
L 549.306239 294.907252 
L 554.278687 296.193475 
L 559.251136 296.655076 
L 564.223585 296.796777 
L 569.196033 296.888091 
" clip-path="url(#p7f46a036ad)" style="fill: none; stroke: #98d83e; stroke-width: 1.3; stroke-linecap: square"/>
   </g>
   <g id="line2d_71">
    <path d="M 76.923621 230.601942 
L 81.896069 212.225562 
L 86.868518 203.048019 
L 91.840966 199.770581 
L 96.813415 199.099186 
L 101.785864 198.06642 
L 106.758312 197.499005 
L 111.730761 196.932686 
L 116.70321 196.855797 
L 121.675658 196.899246 
L 126.648107 197.134336 
L 131.620555 197.411495 
L 136.593004 197.685352 
L 141.565453 197.97638 
L 146.537901 198.164214 
L 151.51035 198.62388 
L 156.482798 198.962751 
L 161.455247 199.409895 
L 166.427696 199.660956 
L 171.400144 200.004465 
L 176.372593 200.045778 
L 181.345041 200.234507 
L 186.31749 200.350083 
L 191.289939 200.694262 
L 196.262387 200.653913 
L 201.234836 200.847132 
L 206.207285 201.33931 
L 211.179733 201.911809 
L 216.152182 202.35793 
L 221.12463 202.756417 
L 226.097079 203.12059 
L 231.069528 203.42337 
L 236.041976 203.570455 
L 241.014425 203.909158 
L 245.986873 204.09324 
L 250.959322 204.331459 
L 255.931771 204.396402 
L 260.904219 204.685453 
L 265.876668 204.969543 
L 270.849117 205.45467 
L 275.821565 205.685779 
L 280.794014 206.174113 
L 285.766462 206.433831 
L 290.738911 206.802443 
L 295.71136 206.948535 
L 300.683808 207.466604 
L 305.656257 207.607591 
L 310.628705 207.969286 
L 315.601154 207.977937 
L 320.573603 208.39618 
L 325.546051 208.681626 
L 330.5185 209.309501 
L 335.490948 209.529628 
L 340.463397 210.198917 
L 345.435846 210.475826 
L 350.408294 210.998262 
L 355.380743 211.076358 
L 360.353192 211.555751 
L 365.32564 211.72888 
L 370.298089 212.203131 
L 375.270537 212.389372 
L 380.242986 213.001842 
L 385.215435 213.363547 
L 390.187883 214.115697 
L 395.160332 214.585303 
L 400.13278 215.324891 
L 405.105229 215.665979 
L 410.077678 216.340622 
L 415.050126 216.720171 
L 420.022575 217.574488 
L 424.995023 218.238732 
L 429.967472 219.265095 
L 434.939921 220.018212 
L 439.912369 221.346655 
L 444.884818 222.584165 
L 449.857267 224.311623 
L 454.829715 225.218063 
L 459.802164 226.15285 
L 464.774612 226.785451 
L 469.747061 227.918428 
L 474.71951 229.473221 
L 479.691958 232.078173 
L 484.664407 235.184709 
L 489.636855 239.235942 
L 494.609304 242.498788 
L 499.581753 245.780238 
L 504.554201 248.218531 
L 509.52665 250.981859 
L 514.499098 254.03465 
L 519.471547 258.60389 
L 524.443996 265.192691 
L 529.416444 274.051748 
L 534.388893 283.635924 
L 539.361342 291.768417 
L 544.33379 297.34814 
L 549.306239 301.938286 
L 554.278687 303.730281 
L 559.251136 304.02488 
L 564.223585 304.341521 
L 569.196033 304.290436 
" clip-path="url(#p7f46a036ad)" style="fill: none; stroke: #cde11d; stroke-width: 1.3; stroke-linecap: square"/>
   </g>
   <g id="line2d_72">
    <path d="M 76.923621 226.890349 
L 81.896069 213.390033 
L 86.868518 206.559586 
L 91.840966 203.075087 
L 96.813415 201.781566 
L 101.785864 201.053254 
L 106.758312 201.232047 
L 111.730761 201.571322 
L 116.70321 201.575228 
L 121.675658 202.019445 
L 126.648107 202.185736 
L 131.620555 201.842929 
L 136.593004 202.14039 
L 141.565453 202.93233 
L 146.537901 203.211478 
L 151.51035 202.966015 
L 156.482798 203.101425 
L 161.455247 203.552711 
L 166.427696 203.605567 
L 171.400144 203.629304 
L 176.372593 204.123427 
L 181.345041 205.013531 
L 186.31749 205.062541 
L 191.289939 205.259015 
L 196.262387 205.329653 
L 201.234836 206.293048 
L 206.207285 206.455206 
L 211.179733 206.609216 
L 216.152182 206.391975 
L 221.12463 206.926761 
L 226.097079 207.422165 
L 231.069528 207.829976 
L 236.041976 208.34869 
L 241.014425 208.671516 
L 245.986873 208.848052 
L 250.959322 209.234783 
L 255.931771 209.489213 
L 260.904219 209.850454 
L 265.876668 210.222338 
L 270.849117 210.649032 
L 275.821565 211.170209 
L 280.794014 211.696255 
L 285.766462 211.950785 
L 290.738911 212.215986 
L 295.71136 212.605868 
L 300.683808 213.030455 
L 305.656257 213.507558 
L 310.628705 214.097444 
L 315.601154 214.313767 
L 320.573603 214.784345 
L 325.546051 215.329573 
L 330.5185 215.909618 
L 335.490948 216.40088 
L 340.463397 217.023384 
L 345.435846 217.625139 
L 350.408294 218.12751 
L 355.380743 218.828482 
L 360.353192 219.518299 
L 365.32564 219.45231 
L 370.298089 219.745788 
L 375.270537 220.195463 
L 380.242986 220.517181 
L 385.215435 221.039773 
L 390.187883 221.786031 
L 395.160332 222.307481 
L 400.13278 223.059455 
L 405.105229 223.719962 
L 410.077678 224.562437 
L 415.050126 225.353091 
L 420.022575 226.251273 
L 424.995023 226.957528 
L 429.967472 228.12189 
L 434.939921 229.324458 
L 439.912369 230.673307 
L 444.884818 232.138616 
L 449.857267 233.654363 
L 454.829715 235.266585 
L 459.802164 236.632184 
L 464.774612 238.442393 
L 469.747061 240.31559 
L 474.71951 242.773088 
L 479.691958 245.516512 
L 484.664407 248.284701 
L 489.636855 251.598013 
L 494.609304 255.753492 
L 499.581753 260.597826 
L 504.554201 265.948181 
L 509.52665 271.446293 
L 514.499098 277.776452 
L 519.471547 283.861806 
L 524.443996 288.82363 
L 529.416444 293.143583 
L 534.388893 296.17296 
L 539.361342 297.817134 
L 544.33379 299.047155 
L 549.306239 299.637954 
L 554.278687 299.844437 
L 559.251136 299.841016 
L 564.223585 299.936277 
L 569.196033 299.965905 
" clip-path="url(#p7f46a036ad)" style="fill: none; stroke: #fde725; stroke-width: 1.3; stroke-linecap: square"/>
   </g>
   <g id="patch_3">
    <path d="M 52.31 326.548037 
L 52.31 8.289437 
" style="fill: none; stroke: #d8d4cc; stroke-width: 0.8; stroke-linejoin: miter; stroke-linecap: square"/>
   </g>
   <g id="patch_4">
    <path d="M 52.31 326.548037 
L 593.809654 326.548037 
" style="fill: none; stroke: #d8d4cc; stroke-width: 0.8; stroke-linejoin: miter; stroke-linecap: square"/>
   </g>
   <g id="legend_1">
    <g id="patch_5">
     <path d="M 449.384029 102.424281 
L 587.859654 102.424281 
Q 589.559654 102.424281 589.559654 100.724281 
L 589.559654 14.239437 
Q 589.559654 12.539437 587.859654 12.539437 
L 449.384029 12.539437 
Q 447.684029 12.539437 447.684029 14.239437 
L 447.684029 100.724281 
Q 447.684029 102.424281 449.384029 102.424281 
z
" style="fill: #faf9f6; opacity: 0.8; stroke: #d8d4cc; stroke-linejoin: miter"/>
    </g>
    <g id="line2d_73">
     <path d="M 451.084029 19.423109 
L 457.884029 19.423109 
L 464.684029 19.423109 
" style="fill: none; stroke: #440154; stroke-width: 1.3; stroke-linecap: square"/>
    </g>
    <g id="text_12">
     <!-- 16x16 -->
     <g transform="translate(471.484029 22.398109) scale(0.085 -0.085)">
      <defs>
       <path id="DejaVuSans-78" d="M 3513 3500 
L 2247 1797 
L 3578 0 
L 2900 0 
L 1881 1375 
L 863 0 
L 184 0 
L 1544 1831 
L 300 3500 
L 978 3500 
L 1906 2253 
L 2834 3500 
L 3513 3500 
z
" transform="scale(0.015625)"/>
      </defs>
      <use xlink:href="#DejaVuSans-31"/>
      <use xlink:href="#DejaVuSans-36" transform="translate(63.623047 0)"/>
      <use xlink:href="#DejaVuSans-78" transform="translate(127.246094 0)"/>
      <use xlink:href="#DejaVuSans-31" transform="translate(186.425781 0)"/>
      <use xlink:href="#DejaVuSans-36" transform="translate(250.048828 0)"/>
     </g>
    </g>
    <g id="line2d_74">
     <path d="M 451.084029 31.899515 
L 457.884029 31.899515 
L 464.684029 31.899515 
" style="fill: none; stroke: #481c6e; stroke-width: 1.3; stroke-linecap: square"/>
    </g>
    <g id="text_13">
     <!-- 32x32 -->
     <g transform="translate(471.484029 34.874515) scale(0.085 -0.085)">
      <use xlink:href="#DejaVuSans-33"/>
      <use xlink:href="#DejaVuSans-32" transform="translate(63.623047 0)"/>
      <use xlink:href="#DejaVuSans-78" transform="translate(127.246094 0)"/>
      <use xlink:href="#DejaVuSans-33" transform="translate(186.425781 0)"/>
      <use xlink:href="#DejaVuSans-32" transform="translate(250.048828 0)"/>
     </g>
    </g>
    <g id="line2d_75">
     <path d="M 451.084029 44.375922 
L 457.884029 44.375922 
L 464.684029 44.375922 
" style="fill: none; stroke: #453581; stroke-width: 1.3; stroke-linecap: square"/>
    </g>
    <g id="text_14">
     <!-- 48x48 -->
     <g transform="translate(471.484029 47.350922) scale(0.085 -0.085)">
      <use xlink:href="#DejaVuSans-34"/>
      <use xlink:href="#DejaVuSans-38" transform="translate(63.623047 0)"/>
      <use xlink:href="#DejaVuSans-78" transform="translate(127.246094 0)"/>
      <use xlink:href="#DejaVuSans-34" transform="translate(186.425781 0)"/>
      <use xlink:href="#DejaVuSans-38" transform="translate(250.048828 0)"/>
     </g>
    </g>
    <g id="line2d_76">
     <path d="M 451.084029 56.852328 
L 457.884029 56.852328 
L 464.684029 56.852328 
" style="fill: none; stroke: #3d4d8a; stroke-width: 1.3; stroke-linecap: square"/>
    </g>
    <g id="text_15">
     <!-- 64x64 -->
     <g transform="translate(471.484029 59.827328) scale(0.085 -0.085)">
      <use xlink:href="#DejaVuSans-36"/>
      <use xlink:href="#DejaVuSans-34" transform="translate(63.623047 0)"/>
      <use xlink:href="#DejaVuSans-78" transform="translate(127.246094 0)"/>
      <use xlink:href="#DejaVuSans-36" transform="translate(186.425781 0)"/>
      <use xlink:href="#DejaVuSans-34" transform="translate(250.048828 0)"/>
     </g>
    </g>
    <g id="line2d_77">
     <path d="M 451.084029 69.328734 
L 457.884029 69.328734 
L 464.684029 69.328734 
" style="fill: none; stroke: #34618d; stroke-width: 1.3; stroke-linecap: square"/>
    </g>
    <g id="text_16">
     <!-- 96x96 -->
     <g transform="translate(471.484029 72.303734) scale(0.085 -0.085)">
      <defs>
       <path id="DejaVuSans-39" d="M 703 97 
L 703 672 
Q 941 559 1184 500 
Q 1428 441 1663 441 
Q 2288 441 2617 861 
Q 2947 1281 2994 2138 
Q 2813 1869 2534 1725 
Q 2256 1581 1919 1581 
Q 1219 1581 811 2004 
Q 403 2428 403 3163 
Q 403 3881 828 4315 
Q 1253 4750 1959 4750 
Q 2769 4750 3195 4129 
Q 3622 3509 3622 2328 
Q 3622 1225 3098 567 
Q 2575 -91 1691 -91 
Q 1453 -91 1209 -44 
Q 966 3 703 97 
z
M 1959 2075 
Q 2384 2075 2632 2365 
Q 2881 2656 2881 3163 
Q 2881 3666 2632 3958 
Q 2384 4250 1959 4250 
Q 1534 4250 1286 3958 
Q 1038 3666 1038 3163 
Q 1038 2656 1286 2365 
Q 1534 2075 1959 2075 
z
" transform="scale(0.015625)"/>
      </defs>
      <use xlink:href="#DejaVuSans-39"/>
      <use xlink:href="#DejaVuSans-36" transform="translate(63.623047 0)"/>
      <use xlink:href="#DejaVuSans-78" transform="translate(127.246094 0)"/>
      <use xlink:href="#DejaVuSans-39" transform="translate(186.425781 0)"/>
      <use xlink:href="#DejaVuSans-36" transform="translate(250.048828 0)"/>
     </g>
    </g>
    <g id="line2d_78">
     <path d="M 451.084029 81.80514 
L 457.884029 81.80514 
L 464.684029 81.80514 
" style="fill: none; stroke: #2b748e; stroke-width: 1.3; stroke-linecap: square"/>
    </g>
    <g id="text_17">
     <!-- 128x128 -->
     <g transform="translate(471.484029 84.78014) scale(0.085 -0.085)">
      <use xlink:href="#DejaVuSans-31"/>
      <use xlink:href="#DejaVuSans-32" transform="translate(63.623047 0)"/>
      <use xlink:href="#DejaVuSans-38" transform="translate(127.246094 0)"/>
      <use xlink:href="#DejaVuSans-78" transform="translate(190.869141 0)"/>
      <use xlink:href="#DejaVuSans-31" transform="translate(250.048828 0)"/>
      <use xlink:href="#DejaVuSans-32" transform="translate(313.671875 0)"/>
      <use xlink:href="#DejaVuSans-38" transform="translate(377.294922 0)"/>
     </g>
    </g>
    <g id="line2d_79">
     <path d="M 451.084029 94.281547 
L 457.884029 94.281547 
L 464.684029 94.281547 
" style="fill: none; stroke: #24878e; stroke-width: 1.3; stroke-linecap: square"/>
    </g>
    <g id="text_18">
     <!-- 192x192 -->
     <g transform="translate(471.484029 97.256547) scale(0.085 -0.085)">
      <use xlink:href="#DejaVuSans-31"/>
      <use xlink:href="#DejaVuSans-39" transform="translate(63.623047 0)"/>
      <use xlink:href="#DejaVuSans-32" transform="translate(127.246094 0)"/>
      <use xlink:href="#DejaVuSans-78" transform="translate(190.869141 0)"/>
      <use xlink:href="#DejaVuSans-31" transform="translate(250.048828 0)"/>
      <use xlink:href="#DejaVuSans-39" transform="translate(313.671875 0)"/>
      <use xlink:href="#DejaVuSans-32" transform="translate(377.294922 0)"/>
     </g>
    </g>
    <g id="line2d_80">
     <path d="M 517.463716 19.423109 
L 524.263716 19.423109 
L 531.063716 19.423109 
" style="fill: none; stroke: #1f998a; stroke-width: 1.3; stroke-linecap: square"/>
    </g>
    <g id="text_19">
     <!-- 256x256 -->
     <g transform="translate(537.863716 22.398109) scale(0.085 -0.085)">
      <defs>
       <path id="DejaVuSans-35" d="M 691 4666 
L 3169 4666 
L 3169 4134 
L 1269 4134 
L 1269 2991 
Q 1406 3038 1543 3061 
Q 1681 3084 1819 3084 
Q 2600 3084 3056 2656 
Q 3513 2228 3513 1497 
Q 3513 744 3044 326 
Q 2575 -91 1722 -91 
Q 1428 -91 1123 -41 
Q 819 9 494 109 
L 494 744 
Q 775 591 1075 516 
Q 1375 441 1709 441 
Q 2250 441 2565 725 
Q 2881 1009 2881 1497 
Q 2881 1984 2565 2268 
Q 2250 2553 1709 2553 
Q 1456 2553 1204 2497 
Q 953 2441 691 2322 
L 691 4666 
z
" transform="scale(0.015625)"/>
      </defs>
      <use xlink:href="#DejaVuSans-32"/>
      <use xlink:href="#DejaVuSans-35" transform="translate(63.623047 0)"/>
      <use xlink:href="#DejaVuSans-36" transform="translate(127.246094 0)"/>
      <use xlink:href="#DejaVuSans-78" transform="translate(190.869141 0)"/>
      <use xlink:href="#DejaVuSans-32" transform="translate(250.048828 0)"/>
      <use xlink:href="#DejaVuSans-35" transform="translate(313.671875 0)"/>
      <use xlink:href="#DejaVuSans-36" transform="translate(377.294922 0)"/>
     </g>
    </g>
    <g id="line2d_81">
     <path d="M 517.463716 31.899515 
L 524.263716 31.899515 
L 531.063716 31.899515 
" style="fill: none; stroke: #25ac82; stroke-width: 1.3; stroke-linecap: square"/>
    </g>
    <g id="text_20">
     <!-- 384x384 -->
     <g transform="translate(537.863716 34.874515) scale(0.085 -0.085)">
      <use xlink:href="#DejaVuSans-33"/>
      <use xlink:href="#DejaVuSans-38" transform="translate(63.623047 0)"/>
      <use xlink:href="#DejaVuSans-34" transform="translate(127.246094 0)"/>
      <use xlink:href="#DejaVuSans-78" transform="translate(190.869141 0)"/>
      <use xlink:href="#DejaVuSans-33" transform="translate(250.048828 0)"/>
      <use xlink:href="#DejaVuSans-38" transform="translate(313.671875 0)"/>
      <use xlink:href="#DejaVuSans-34" transform="translate(377.294922 0)"/>
     </g>
    </g>
    <g id="line2d_82">
     <path d="M 517.463716 44.375922 
L 524.263716 44.375922 
L 531.063716 44.375922 
" style="fill: none; stroke: #40bd72; stroke-width: 1.3; stroke-linecap: square"/>
    </g>
    <g id="text_21">
     <!-- 512x512 -->
     <g transform="translate(537.863716 47.350922) scale(0.085 -0.085)">
      <use xlink:href="#DejaVuSans-35"/>
      <use xlink:href="#DejaVuSans-31" transform="translate(63.623047 0)"/>
      <use xlink:href="#DejaVuSans-32" transform="translate(127.246094 0)"/>
      <use xlink:href="#DejaVuSans-78" transform="translate(190.869141 0)"/>
      <use xlink:href="#DejaVuSans-35" transform="translate(250.048828 0)"/>
      <use xlink:href="#DejaVuSans-31" transform="translate(313.671875 0)"/>
      <use xlink:href="#DejaVuSans-32" transform="translate(377.294922 0)"/>
     </g>
    </g>
    <g id="line2d_83">
     <path d="M 517.463716 56.852328 
L 524.263716 56.852328 
L 531.063716 56.852328 
" style="fill: none; stroke: #67cc5c; stroke-width: 1.3; stroke-linecap: square"/>
    </g>
    <g id="text_22">
     <!-- 640x640 -->
     <g transform="translate(537.863716 59.827328) scale(0.085 -0.085)">
      <use xlink:href="#DejaVuSans-36"/>
      <use xlink:href="#DejaVuSans-34" transform="translate(63.623047 0)"/>
      <use xlink:href="#DejaVuSans-30" transform="translate(127.246094 0)"/>
      <use xlink:href="#DejaVuSans-78" transform="translate(190.869141 0)"/>
      <use xlink:href="#DejaVuSans-36" transform="translate(250.048828 0)"/>
      <use xlink:href="#DejaVuSans-34" transform="translate(313.671875 0)"/>
      <use xlink:href="#DejaVuSans-30" transform="translate(377.294922 0)"/>
     </g>
    </g>
    <g id="line2d_84">
     <path d="M 517.463716 69.328734 
L 524.263716 69.328734 
L 531.063716 69.328734 
" style="fill: none; stroke: #98d83e; stroke-width: 1.3; stroke-linecap: square"/>
    </g>
    <g id="text_23">
     <!-- 768x768 -->
     <g transform="translate(537.863716 72.303734) scale(0.085 -0.085)">
      <defs>
       <path id="DejaVuSans-37" d="M 525 4666 
L 3525 4666 
L 3525 4397 
L 1831 0 
L 1172 0 
L 2766 4134 
L 525 4134 
L 525 4666 
z
" transform="scale(0.015625)"/>
      </defs>
      <use xlink:href="#DejaVuSans-37"/>
      <use xlink:href="#DejaVuSans-36" transform="translate(63.623047 0)"/>
      <use xlink:href="#DejaVuSans-38" transform="translate(127.246094 0)"/>
      <use xlink:href="#DejaVuSans-78" transform="translate(190.869141 0)"/>
      <use xlink:href="#DejaVuSans-37" transform="translate(250.048828 0)"/>
      <use xlink:href="#DejaVuSans-36" transform="translate(313.671875 0)"/>
      <use xlink:href="#DejaVuSans-38" transform="translate(377.294922 0)"/>
     </g>
    </g>
    <g id="line2d_85">
     <path d="M 517.463716 81.80514 
L 524.263716 81.80514 
L 531.063716 81.80514 
" style="fill: none; stroke: #cde11d; stroke-width: 1.3; stroke-linecap: square"/>
    </g>
    <g id="text_24">
     <!-- 896x896 -->
     <g transform="translate(537.863716 84.78014) scale(0.085 -0.085)">
      <use xlink:href="#DejaVuSans-38"/>
      <use xlink:href="#DejaVuSans-39" transform="translate(63.623047 0)"/>
      <use xlink:href="#DejaVuSans-36" transform="translate(127.246094 0)"/>
      <use xlink:href="#DejaVuSans-78" transform="translate(190.869141 0)"/>
      <use xlink:href="#DejaVuSans-38" transform="translate(250.048828 0)"/>
      <use xlink:href="#DejaVuSans-39" transform="translate(313.671875 0)"/>
      <use xlink:href="#DejaVuSans-36" transform="translate(377.294922 0)"/>
     </g>
    </g>
    <g id="line2d_86">
     <path d="M 517.463716 94.281547 
L 524.263716 94.281547 
L 531.063716 94.281547 
" style="fill: none; stroke: #fde725; stroke-width: 1.3; stroke-linecap: square"/>
    </g>
    <g id="text_25">
     <!-- 1024x1024 -->
     <g transform="translate(537.863716 97.256547) scale(0.085 -0.085)">
      <use xlink:href="#DejaVuSans-31"/>
      <use xlink:href="#DejaVuSans-30" transform="translate(63.623047 0)"/>
      <use xlink:href="#DejaVuSans-32" transform="translate(127.246094 0)"/>
      <use xlink:href="#DejaVuSans-34" transform="translate(190.869141 0)"/>
      <use xlink:href="#DejaVuSans-78" transform="translate(254.492188 0)"/>
      <use xlink:href="#DejaVuSans-31" transform="translate(313.671875 0)"/>
      <use xlink:href="#DejaVuSans-30" transform="translate(377.294922 0)"/>
      <use xlink:href="#DejaVuSans-32" transform="translate(440.917969 0)"/>
      <use xlink:href="#DejaVuSans-34" transform="translate(504.541016 0)"/>
     </g>
    </g>
   </g>
  </g>
 </g>
 <defs>
  <clipPath id="p7f46a036ad">
   <rect x="52.31" y="8.289437" width="541.499654" height="318.2586"/>
  </clipPath>
 </defs>
</svg>
