<?xml version="1.0" encoding="utf-8" standalone="no"?>
<!DOCTYPE svg PUBLIC "-//W3C//DTD SVG 1.1//EN"
  "http://www.w3.org/Graphics/SVG/1.1/DTD/svg11.dtd">
<svg xmlns:xlink="http://www.w3.org/1999/xlink" width="462.622191pt" height="299.028437pt" viewBox="0 0 462.622191 299.028437" xmlns="http://www.w3.org/2000/svg" version="1.1">
 <metadata>
  <rdf:RDF xmlns:dc="http://purl.org/dc/elements/1.1/" xmlns:cc="http://creativecommons.org/ns#" xmlns:rdf="http://www.w3.org/1999/02/22-rdf-syntax-ns#">
   <cc:Work>
    <dc:type rdf:resource="http://purl.org/dc/dcmitype/StillImage"/>
    <dc:date>2026-04-17T17:29:49.343696</dc:date>
    <dc:format>image/svg+xml</dc:format>
    <dc:creator>
     <cc:Agent>
      <dc:title>Matplotlib v3.10.0, https://matplotlib.org/</dc:title>
     </cc:Agent>
    </dc:creator>
   </cc:Work>
  </rdf:RDF>
 </metadata>
 <defs>
  <style type="text/css">*{stroke-linejoin: round; stroke-linecap: butt}</style>
 </defs>
 <g id="figure_1">
  <g id="patch_1">
   <path d="M 0 299.028437 
L 462.622191 299.028437 
L 462.622191 0 
L 0 0 
z
" style="fill: #faf9f6"/>
  </g>
  <g id="axes_1">
   <g id="patch_2">
    <path d="M 48.55 262.94 
L 455.422191 262.94 
L 455.422191 7.2 
L 48.55 7.2 
z
" style="fill: #faf9f6"/>
   </g>
   <g id="matplotlib.axis_1">
    <g id="xtick_1">
     <g id="line2d_1">
      <path d="M 127.310357 262.94 
L 127.310357 7.2 
" clip-path="url(#pf7f52d8bf0)" style="fill: none; stroke: #d8d4cc; stroke-opacity: 0.5; stroke-width: 0.4; stroke-linecap: square"/>
     </g>
     <g id="line2d_2">
      <defs>
       <path id="m6affe217f4" d="M 0 0 
L 0 3 
" style="stroke: #6b6b6b; stroke-width: 0.6"/>
      </defs>
      <g>
       <use xlink:href="#m6affe217f4" x="127.310357" y="262.94" style="fill: #6b6b6b; stroke: #6b6b6b; stroke-width: 0.6"/>
      </g>
     </g>
     <g id="text_1">
      <!-- 32 -->
      <g style="fill: #1a1a1a" transform="translate(121.584107 276.278594) scale(0.09 -0.09)">
       <defs>
        <path id="DejaVuSans-33" d="M 2597 2516 
Q 3050 2419 3304 2112 
Q 3559 1806 3559 1356 
Q 3559 666 3084 287 
Q 2609 -91 1734 -91 
Q 1441 -91 1130 -33 
Q 819 25 488 141 
L 488 750 
Q 750 597 1062 519 
Q 1375 441 1716 441 
Q 2309 441 2620 675 
Q 2931 909 2931 1356 
Q 2931 1769 2642 2001 
Q 2353 2234 1838 2234 
L 1294 2234 
L 1294 2753 
L 1863 2753 
Q 2328 2753 2575 2939 
Q 2822 3125 2822 3475 
Q 2822 3834 2567 4026 
Q 2313 4219 1838 4219 
Q 1578 4219 1281 4162 
Q 984 4106 628 3988 
L 628 4550 
Q 988 4650 1302 4700 
Q 1616 4750 1894 4750 
Q 2613 4750 3031 4423 
Q 3450 4097 3450 3541 
Q 3450 3153 3228 2886 
Q 3006 2619 2597 2516 
z
" transform="scale(0.015625)"/>
        <path id="DejaVuSans-32" d="M 1228 531 
L 3431 531 
L 3431 0 
L 469 0 
L 469 531 
Q 828 903 1448 1529 
Q 2069 2156 2228 2338 
Q 2531 2678 2651 2914 
Q 2772 3150 2772 3378 
Q 2772 3750 2511 3984 
Q 2250 4219 1831 4219 
Q 1534 4219 1204 4116 
Q 875 4013 500 3803 
L 500 4441 
Q 881 4594 1212 4672 
Q 1544 4750 1819 4750 
Q 2544 4750 2975 4387 
Q 3406 4025 3406 3419 
Q 3406 3131 3298 2873 
Q 3191 2616 2906 2266 
Q 2828 2175 2409 1742 
Q 1991 1309 1228 531 
z
" transform="scale(0.015625)"/>
       </defs>
       <use xlink:href="#DejaVuSans-33"/>
       <use xlink:href="#DejaVuSans-32" transform="translate(63.623047 0)"/>
      </g>
     </g>
    </g>
    <g id="xtick_2">
     <g id="line2d_3">
      <path d="M 187.576524 262.94 
L 187.576524 7.2 
" clip-path="url(#pf7f52d8bf0)" style="fill: none; stroke: #d8d4cc; stroke-opacity: 0.5; stroke-width: 0.4; stroke-linecap: square"/>
     </g>
     <g id="line2d_4">
      <g>
       <use xlink:href="#m6affe217f4" x="187.576524" y="262.94" style="fill: #6b6b6b; stroke: #6b6b6b; stroke-width: 0.6"/>
      </g>
     </g>
     <g id="text_2">
      <!-- 64 -->
      <g style="fill: #1a1a1a" transform="translate(181.850274 276.278594) scale(0.09 -0.09)">
       <defs>
        <path id="DejaVuSans-36" d="M 2113 2584 
Q 1688 2584 1439 2293 
Q 1191 2003 1191 1497 
Q 1191 994 1439 701 
Q 1688 409 2113 409 
Q 2538 409 2786 701 
Q 3034 994 3034 1497 
Q 3034 2003 2786 2293 
Q 2538 2584 2113 2584 
z
M 3366 4563 
L 3366 3988 
Q 3128 4100 2886 4159 
Q 2644 4219 2406 4219 
Q 1781 4219 1451 3797 
Q 1122 3375 1075 2522 
Q 1259 2794 1537 2939 
Q 1816 3084 2150 3084 
Q 2853 3084 3261 2657 
Q 3669 2231 3669 1497 
Q 3669 778 3244 343 
Q 2819 -91 2113 -91 
Q 1303 -91 875 529 
Q 447 1150 447 2328 
Q 447 3434 972 4092 
Q 1497 4750 2381 4750 
Q 2619 4750 2861 4703 
Q 3103 4656 3366 4563 
z
" transform="scale(0.015625)"/>
        <path id="DejaVuSans-34" d="M 2419 4116 
L 825 1625 
L 2419 1625 
L 2419 4116 
z
M 2253 4666 
L 3047 4666 
L 3047 1625 
L 3713 1625 
L 3713 1100 
L 3047 1100 
L 3047 0 
L 2419 0 
L 2419 1100 
L 313 1100 
L 313 1709 
L 2253 4666 
z
" transform="scale(0.015625)"/>
       </defs>
       <use xlink:href="#DejaVuSans-36"/>
       <use xlink:href="#DejaVuSans-34" transform="translate(63.623047 0)"/>
      </g>
     </g>
    </g>
    <g id="xtick_3">
     <g id="line2d_5">
      <path d="M 247.84269 262.94 
L 247.84269 7.2 
" clip-path="url(#pf7f52d8bf0)" style="fill: none; stroke: #d8d4cc; stroke-opacity: 0.5; stroke-width: 0.4; stroke-linecap: square"/>
     </g>
     <g id="line2d_6">
      <g>
       <use xlink:href="#m6affe217f4" x="247.84269" y="262.94" style="fill: #6b6b6b; stroke: #6b6b6b; stroke-width: 0.6"/>
      </g>
     </g>
     <g id="text_3">
      <!-- 128 -->
      <g style="fill: #1a1a1a" transform="translate(239.253315 276.278594) scale(0.09 -0.09)">
       <defs>
        <path id="DejaVuSans-31" d="M 794 531 
L 1825 531 
L 1825 4091 
L 703 3866 
L 703 4441 
L 1819 4666 
L 2450 4666 
L 2450 531 
L 3481 531 
L 3481 0 
L 794 0 
L 794 531 
z
" transform="scale(0.015625)"/>
        <path id="DejaVuSans-38" d="M 2034 2216 
Q 1584 2216 1326 1975 
Q 1069 1734 1069 1313 
Q 1069 891 1326 650 
Q 1584 409 2034 409 
Q 2484 409 2743 651 
Q 3003 894 3003 1313 
Q 3003 1734 2745 1975 
Q 2488 2216 2034 2216 
z
M 1403 2484 
Q 997 2584 770 2862 
Q 544 3141 544 3541 
Q 544 4100 942 4425 
Q 1341 4750 2034 4750 
Q 2731 4750 3128 4425 
Q 3525 4100 3525 3541 
Q 3525 3141 3298 2862 
Q 3072 2584 2669 2484 
Q 3125 2378 3379 2068 
Q 3634 1759 3634 1313 
Q 3634 634 3220 271 
Q 2806 -91 2034 -91 
Q 1263 -91 848 271 
Q 434 634 434 1313 
Q 434 1759 690 2068 
Q 947 2378 1403 2484 
z
M 1172 3481 
Q 1172 3119 1398 2916 
Q 1625 2713 2034 2713 
Q 2441 2713 2670 2916 
Q 2900 3119 2900 3481 
Q 2900 3844 2670 4047 
Q 2441 4250 2034 4250 
Q 1625 4250 1398 4047 
Q 1172 3844 1172 3481 
z
" transform="scale(0.015625)"/>
       </defs>
       <use xlink:href="#DejaVuSans-31"/>
       <use xlink:href="#DejaVuSans-32" transform="translate(63.623047 0)"/>
       <use xlink:href="#DejaVuSans-38" transform="translate(127.246094 0)"/>
      </g>
     </g>
    </g>
    <g id="xtick_4">
     <g id="line2d_7">
      <path d="M 308.108857 262.94 
L 308.108857 7.2 
" clip-path="url(#pf7f52d8bf0)" style="fill: none; stroke: #d8d4cc; stroke-opacity: 0.5; stroke-width: 0.4; stroke-linecap: square"/>
     </g>
     <g id="line2d_8">
      <g>
       <use xlink:href="#m6affe217f4" x="308.108857" y="262.94" style="fill: #6b6b6b; stroke: #6b6b6b; stroke-width: 0.6"/>
      </g>
     </g>
     <g id="text_4">
      <!-- 256 -->
      <g style="fill: #1a1a1a" transform="translate(299.519482 276.278594) scale(0.09 -0.09)">
       <defs>
        <path id="DejaVuSans-35" d="M 691 4666 
L 3169 4666 
L 3169 4134 
L 1269 4134 
L 1269 2991 
Q 1406 3038 1543 3061 
Q 1681 3084 1819 3084 
Q 2600 3084 3056 2656 
Q 3513 2228 3513 1497 
Q 3513 744 3044 326 
Q 2575 -91 1722 -91 
Q 1428 -91 1123 -41 
Q 819 9 494 109 
L 494 744 
Q 775 591 1075 516 
Q 1375 441 1709 441 
Q 2250 441 2565 725 
Q 2881 1009 2881 1497 
Q 2881 1984 2565 2268 
Q 2250 2553 1709 2553 
Q 1456 2553 1204 2497 
Q 953 2441 691 2322 
L 691 4666 
z
" transform="scale(0.015625)"/>
       </defs>
       <use xlink:href="#DejaVuSans-32"/>
       <use xlink:href="#DejaVuSans-35" transform="translate(63.623047 0)"/>
       <use xlink:href="#DejaVuSans-36" transform="translate(127.246094 0)"/>
      </g>
     </g>
    </g>
    <g id="xtick_5">
     <g id="line2d_9">
      <path d="M 368.375023 262.94 
L 368.375023 7.2 
" clip-path="url(#pf7f52d8bf0)" style="fill: none; stroke: #d8d4cc; stroke-opacity: 0.5; stroke-width: 0.4; stroke-linecap: square"/>
     </g>
     <g id="line2d_10">
      <g>
       <use xlink:href="#m6affe217f4" x="368.375023" y="262.94" style="fill: #6b6b6b; stroke: #6b6b6b; stroke-width: 0.6"/>
      </g>
     </g>
     <g id="text_5">
      <!-- 512 -->
      <g style="fill: #1a1a1a" transform="translate(359.785648 276.278594) scale(0.09 -0.09)">
       <use xlink:href="#DejaVuSans-35"/>
       <use xlink:href="#DejaVuSans-31" transform="translate(63.623047 0)"/>
       <use xlink:href="#DejaVuSans-32" transform="translate(127.246094 0)"/>
      </g>
     </g>
    </g>
    <g id="xtick_6">
     <g id="line2d_11">
      <path d="M 428.64119 262.94 
L 428.64119 7.2 
" clip-path="url(#pf7f52d8bf0)" style="fill: none; stroke: #d8d4cc; stroke-opacity: 0.5; stroke-width: 0.4; stroke-linecap: square"/>
     </g>
     <g id="line2d_12">
      <g>
       <use xlink:href="#m6affe217f4" x="428.64119" y="262.94" style="fill: #6b6b6b; stroke: #6b6b6b; stroke-width: 0.6"/>
      </g>
     </g>
     <g id="text_6">
      <!-- 1024 -->
      <g style="fill: #1a1a1a" transform="translate(417.18869 276.278594) scale(0.09 -0.09)">
       <defs>
        <path id="DejaVuSans-30" d="M 2034 4250 
Q 1547 4250 1301 3770 
Q 1056 3291 1056 2328 
Q 1056 1369 1301 889 
Q 1547 409 2034 409 
Q 2525 409 2770 889 
Q 3016 1369 3016 2328 
Q 3016 3291 2770 3770 
Q 2525 4250 2034 4250 
z
M 2034 4750 
Q 2819 4750 3233 4129 
Q 3647 3509 3647 2328 
Q 3647 1150 3233 529 
Q 2819 -91 2034 -91 
Q 1250 -91 836 529 
Q 422 1150 422 2328 
Q 422 3509 836 4129 
Q 1250 4750 2034 4750 
z
" transform="scale(0.015625)"/>
       </defs>
       <use xlink:href="#DejaVuSans-31"/>
       <use xlink:href="#DejaVuSans-30" transform="translate(63.623047 0)"/>
       <use xlink:href="#DejaVuSans-32" transform="translate(127.246094 0)"/>
       <use xlink:href="#DejaVuSans-34" transform="translate(190.869141 0)"/>
      </g>
     </g>
    </g>
    <g id="xtick_7">
     <g id="line2d_13">
      <path d="M 86.445563 262.94 
L 86.445563 7.2 
" clip-path="url(#pf7f52d8bf0)" style="fill: none; stroke: #d8d4cc; stroke-opacity: 0.3; stroke-width: 0.2; stroke-linecap: square"/>
     </g>
     <g id="line2d_14">
      <defs>
       <path id="m4443915a62" d="M 0 0 
L 0 2 
" style="stroke: #000000; stroke-width: 0.6"/>
      </defs>
      <g>
       <use xlink:href="#m4443915a62" x="86.445563" y="262.94" style="stroke: #000000; stroke-width: 0.6"/>
      </g>
     </g>
    </g>
    <g id="xtick_8">
     <g id="line2d_15">
      <path d="M 121.69901 262.94 
L 121.69901 7.2 
" clip-path="url(#pf7f52d8bf0)" style="fill: none; stroke: #d8d4cc; stroke-opacity: 0.3; stroke-width: 0.2; stroke-linecap: square"/>
     </g>
     <g id="line2d_16">
      <g>
       <use xlink:href="#m4443915a62" x="121.69901" y="262.94" style="stroke: #000000; stroke-width: 0.6"/>
      </g>
     </g>
    </g>
    <g id="xtick_9">
     <g id="line2d_17">
      <path d="M 146.711729 262.94 
L 146.711729 7.2 
" clip-path="url(#pf7f52d8bf0)" style="fill: none; stroke: #d8d4cc; stroke-opacity: 0.3; stroke-width: 0.2; stroke-linecap: square"/>
     </g>
     <g id="line2d_18">
      <g>
       <use xlink:href="#m4443915a62" x="146.711729" y="262.94" style="stroke: #000000; stroke-width: 0.6"/>
      </g>
     </g>
    </g>
    <g id="xtick_10">
     <g id="line2d_19">
      <path d="M 166.113101 262.94 
L 166.113101 7.2 
" clip-path="url(#pf7f52d8bf0)" style="fill: none; stroke: #d8d4cc; stroke-opacity: 0.3; stroke-width: 0.2; stroke-linecap: square"/>
     </g>
     <g id="line2d_20">
      <g>
       <use xlink:href="#m4443915a62" x="166.113101" y="262.94" style="stroke: #000000; stroke-width: 0.6"/>
      </g>
     </g>
    </g>
    <g id="xtick_11">
     <g id="line2d_21">
      <path d="M 181.965177 262.94 
L 181.965177 7.2 
" clip-path="url(#pf7f52d8bf0)" style="fill: none; stroke: #d8d4cc; stroke-opacity: 0.3; stroke-width: 0.2; stroke-linecap: square"/>
     </g>
     <g id="line2d_22">
      <g>
       <use xlink:href="#m4443915a62" x="181.965177" y="262.94" style="stroke: #000000; stroke-width: 0.6"/>
      </g>
     </g>
    </g>
    <g id="xtick_12">
     <g id="line2d_23">
      <path d="M 195.367915 262.94 
L 195.367915 7.2 
" clip-path="url(#pf7f52d8bf0)" style="fill: none; stroke: #d8d4cc; stroke-opacity: 0.3; stroke-width: 0.2; stroke-linecap: square"/>
     </g>
     <g id="line2d_24">
      <g>
       <use xlink:href="#m4443915a62" x="195.367915" y="262.94" style="stroke: #000000; stroke-width: 0.6"/>
      </g>
     </g>
    </g>
    <g id="xtick_13">
     <g id="line2d_25">
      <path d="M 206.977896 262.94 
L 206.977896 7.2 
" clip-path="url(#pf7f52d8bf0)" style="fill: none; stroke: #d8d4cc; stroke-opacity: 0.3; stroke-width: 0.2; stroke-linecap: square"/>
     </g>
     <g id="line2d_26">
      <g>
       <use xlink:href="#m4443915a62" x="206.977896" y="262.94" style="stroke: #000000; stroke-width: 0.6"/>
      </g>
     </g>
    </g>
    <g id="xtick_14">
     <g id="line2d_27">
      <path d="M 217.218624 262.94 
L 217.218624 7.2 
" clip-path="url(#pf7f52d8bf0)" style="fill: none; stroke: #d8d4cc; stroke-opacity: 0.3; stroke-width: 0.2; stroke-linecap: square"/>
     </g>
     <g id="line2d_28">
      <g>
       <use xlink:href="#m4443915a62" x="217.218624" y="262.94" style="stroke: #000000; stroke-width: 0.6"/>
      </g>
     </g>
    </g>
    <g id="xtick_15">
     <g id="line2d_29">
      <path d="M 286.645435 262.94 
L 286.645435 7.2 
" clip-path="url(#pf7f52d8bf0)" style="fill: none; stroke: #d8d4cc; stroke-opacity: 0.3; stroke-width: 0.2; stroke-linecap: square"/>
     </g>
     <g id="line2d_30">
      <g>
       <use xlink:href="#m4443915a62" x="286.645435" y="262.94" style="stroke: #000000; stroke-width: 0.6"/>
      </g>
     </g>
    </g>
    <g id="xtick_16">
     <g id="line2d_31">
      <path d="M 321.898882 262.94 
L 321.898882 7.2 
" clip-path="url(#pf7f52d8bf0)" style="fill: none; stroke: #d8d4cc; stroke-opacity: 0.3; stroke-width: 0.2; stroke-linecap: square"/>
     </g>
     <g id="line2d_32">
      <g>
       <use xlink:href="#m4443915a62" x="321.898882" y="262.94" style="stroke: #000000; stroke-width: 0.6"/>
      </g>
     </g>
    </g>
    <g id="xtick_17">
     <g id="line2d_33">
      <path d="M 346.911601 262.94 
L 346.911601 7.2 
" clip-path="url(#pf7f52d8bf0)" style="fill: none; stroke: #d8d4cc; stroke-opacity: 0.3; stroke-width: 0.2; stroke-linecap: square"/>
     </g>
     <g id="line2d_34">
      <g>
       <use xlink:href="#m4443915a62" x="346.911601" y="262.94" style="stroke: #000000; stroke-width: 0.6"/>
      </g>
     </g>
    </g>
    <g id="xtick_18">
     <g id="line2d_35">
      <path d="M 366.312973 262.94 
L 366.312973 7.2 
" clip-path="url(#pf7f52d8bf0)" style="fill: none; stroke: #d8d4cc; stroke-opacity: 0.3; stroke-width: 0.2; stroke-linecap: square"/>
     </g>
     <g id="line2d_36">
      <g>
       <use xlink:href="#m4443915a62" x="366.312973" y="262.94" style="stroke: #000000; stroke-width: 0.6"/>
      </g>
     </g>
    </g>
    <g id="xtick_19">
     <g id="line2d_37">
      <path d="M 382.165049 262.94 
L 382.165049 7.2 
" clip-path="url(#pf7f52d8bf0)" style="fill: none; stroke: #d8d4cc; stroke-opacity: 0.3; stroke-width: 0.2; stroke-linecap: square"/>
     </g>
     <g id="line2d_38">
      <g>
       <use xlink:href="#m4443915a62" x="382.165049" y="262.94" style="stroke: #000000; stroke-width: 0.6"/>
      </g>
     </g>
    </g>
    <g id="xtick_20">
     <g id="line2d_39">
      <path d="M 395.567787 262.94 
L 395.567787 7.2 
" clip-path="url(#pf7f52d8bf0)" style="fill: none; stroke: #d8d4cc; stroke-opacity: 0.3; stroke-width: 0.2; stroke-linecap: square"/>
     </g>
     <g id="line2d_40">
      <g>
       <use xlink:href="#m4443915a62" x="395.567787" y="262.94" style="stroke: #000000; stroke-width: 0.6"/>
      </g>
     </g>
    </g>
    <g id="xtick_21">
     <g id="line2d_41">
      <path d="M 407.177768 262.94 
L 407.177768 7.2 
" clip-path="url(#pf7f52d8bf0)" style="fill: none; stroke: #d8d4cc; stroke-opacity: 0.3; stroke-width: 0.2; stroke-linecap: square"/>
     </g>
     <g id="line2d_42">
      <g>
       <use xlink:href="#m4443915a62" x="407.177768" y="262.94" style="stroke: #000000; stroke-width: 0.6"/>
      </g>
     </g>
    </g>
    <g id="xtick_22">
     <g id="line2d_43">
      <path d="M 417.418496 262.94 
L 417.418496 7.2 
" clip-path="url(#pf7f52d8bf0)" style="fill: none; stroke: #d8d4cc; stroke-opacity: 0.3; stroke-width: 0.2; stroke-linecap: square"/>
     </g>
     <g id="line2d_44">
      <g>
       <use xlink:href="#m4443915a62" x="417.418496" y="262.94" style="stroke: #000000; stroke-width: 0.6"/>
      </g>
     </g>
    </g>
    <g id="text_7">
     <!-- Matrix size $n$ -->
     <g style="fill: #1a1a1a" transform="translate(220.186095 289.74875) scale(0.1 -0.1)">
      <defs>
       <path id="DejaVuSans-4d" d="M 628 4666 
L 1569 4666 
L 2759 1491 
L 3956 4666 
L 4897 4666 
L 4897 0 
L 4281 0 
L 4281 4097 
L 3078 897 
L 2444 897 
L 1241 4097 
L 1241 0 
L 628 0 
L 628 4666 
z
" transform="scale(0.015625)"/>
       <path id="DejaVuSans-61" d="M 2194 1759 
Q 1497 1759 1228 1600 
Q 959 1441 959 1056 
Q 959 750 1161 570 
Q 1363 391 1709 391 
Q 2188 391 2477 730 
Q 2766 1069 2766 1631 
L 2766 1759 
L 2194 1759 
z
M 3341 1997 
L 3341 0 
L 2766 0 
L 2766 531 
Q 2569 213 2275 61 
Q 1981 -91 1556 -91 
Q 1019 -91 701 211 
Q 384 513 384 1019 
Q 384 1609 779 1909 
Q 1175 2209 1959 2209 
L 2766 2209 
L 2766 2266 
Q 2766 2663 2505 2880 
Q 2244 3097 1772 3097 
Q 1472 3097 1187 3025 
Q 903 2953 641 2809 
L 641 3341 
Q 956 3463 1253 3523 
Q 1550 3584 1831 3584 
Q 2591 3584 2966 3190 
Q 3341 2797 3341 1997 
z
" transform="scale(0.015625)"/>
       <path id="DejaVuSans-74" d="M 1172 4494 
L 1172 3500 
L 2356 3500 
L 2356 3053 
L 1172 3053 
L 1172 1153 
Q 1172 725 1289 603 
Q 1406 481 1766 481 
L 2356 481 
L 2356 0 
L 1766 0 
Q 1100 0 847 248 
Q 594 497 594 1153 
L 594 3053 
L 172 3053 
L 172 3500 
L 594 3500 
L 594 4494 
L 1172 4494 
z
" transform="scale(0.015625)"/>
       <path id="DejaVuSans-72" d="M 2631 2963 
Q 2534 3019 2420 3045 
Q 2306 3072 2169 3072 
Q 1681 3072 1420 2755 
Q 1159 2438 1159 1844 
L 1159 0 
L 581 0 
L 581 3500 
L 1159 3500 
L 1159 2956 
Q 1341 3275 1631 3429 
Q 1922 3584 2338 3584 
Q 2397 3584 2469 3576 
Q 2541 3569 2628 3553 
L 2631 2963 
z
" transform="scale(0.015625)"/>
       <path id="DejaVuSans-69" d="M 603 3500 
L 1178 3500 
L 1178 0 
L 603 0 
L 603 3500 
z
M 603 4863 
L 1178 4863 
L 1178 4134 
L 603 4134 
L 603 4863 
z
" transform="scale(0.015625)"/>
       <path id="DejaVuSans-78" d="M 3513 3500 
L 2247 1797 
L 3578 0 
L 2900 0 
L 1881 1375 
L 863 0 
L 184 0 
L 1544 1831 
L 300 3500 
L 978 3500 
L 1906 2253 
L 2834 3500 
L 3513 3500 
z
" transform="scale(0.015625)"/>
       <path id="DejaVuSans-20" transform="scale(0.015625)"/>
       <path id="DejaVuSans-73" d="M 2834 3397 
L 2834 2853 
Q 2591 2978 2328 3040 
Q 2066 3103 1784 3103 
Q 1356 3103 1142 2972 
Q 928 2841 928 2578 
Q 928 2378 1081 2264 
Q 1234 2150 1697 2047 
L 1894 2003 
Q 2506 1872 2764 1633 
Q 3022 1394 3022 966 
Q 3022 478 2636 193 
Q 2250 -91 1575 -91 
Q 1294 -91 989 -36 
Q 684 19 347 128 
L 347 722 
Q 666 556 975 473 
Q 1284 391 1588 391 
Q 1994 391 2212 530 
Q 2431 669 2431 922 
Q 2431 1156 2273 1281 
Q 2116 1406 1581 1522 
L 1381 1569 
Q 847 1681 609 1914 
Q 372 2147 372 2553 
Q 372 3047 722 3315 
Q 1072 3584 1716 3584 
Q 2034 3584 2315 3537 
Q 2597 3491 2834 3397 
z
" transform="scale(0.015625)"/>
       <path id="DejaVuSans-7a" d="M 353 3500 
L 3084 3500 
L 3084 2975 
L 922 459 
L 3084 459 
L 3084 0 
L 275 0 
L 275 525 
L 2438 3041 
L 353 3041 
L 353 3500 
z
" transform="scale(0.015625)"/>
       <path id="DejaVuSans-65" d="M 3597 1894 
L 3597 1613 
L 953 1613 
Q 991 1019 1311 708 
Q 1631 397 2203 397 
Q 2534 397 2845 478 
Q 3156 559 3463 722 
L 3463 178 
Q 3153 47 2828 -22 
Q 2503 -91 2169 -91 
Q 1331 -91 842 396 
Q 353 884 353 1716 
Q 353 2575 817 3079 
Q 1281 3584 2069 3584 
Q 2775 3584 3186 3129 
Q 3597 2675 3597 1894 
z
M 3022 2063 
Q 3016 2534 2758 2815 
Q 2500 3097 2075 3097 
Q 1594 3097 1305 2825 
Q 1016 2553 972 2059 
L 3022 2063 
z
" transform="scale(0.015625)"/>
       <path id="DejaVuSans-Oblique-6e" d="M 3566 2113 
L 3156 0 
L 2578 0 
L 2988 2091 
Q 3016 2238 3031 2350 
Q 3047 2463 3047 2528 
Q 3047 2791 2881 2937 
Q 2716 3084 2419 3084 
Q 1956 3084 1622 2776 
Q 1288 2469 1184 1941 
L 800 0 
L 225 0 
L 903 3500 
L 1478 3500 
L 1363 2950 
Q 1603 3253 1940 3418 
Q 2278 3584 2650 3584 
Q 3113 3584 3367 3334 
Q 3622 3084 3622 2631 
Q 3622 2519 3608 2391 
Q 3594 2263 3566 2113 
z
" transform="scale(0.015625)"/>
      </defs>
      <use xlink:href="#DejaVuSans-4d" transform="translate(0 0.015625)"/>
      <use xlink:href="#DejaVuSans-61" transform="translate(86.279297 0.015625)"/>
      <use xlink:href="#DejaVuSans-74" transform="translate(147.558594 0.015625)"/>
      <use xlink:href="#DejaVuSans-72" transform="translate(186.767578 0.015625)"/>
      <use xlink:href="#DejaVuSans-69" transform="translate(227.880859 0.015625)"/>
      <use xlink:href="#DejaVuSans-78" transform="translate(255.664062 0.015625)"/>
      <use xlink:href="#DejaVuSans-20" transform="translate(314.84375 0.015625)"/>
      <use xlink:href="#DejaVuSans-73" transform="translate(346.630859 0.015625)"/>
      <use xlink:href="#DejaVuSans-69" transform="translate(398.730469 0.015625)"/>
      <use xlink:href="#DejaVuSans-7a" transform="translate(426.513672 0.015625)"/>
      <use xlink:href="#DejaVuSans-65" transform="translate(479.003906 0.015625)"/>
      <use xlink:href="#DejaVuSans-20" transform="translate(540.527344 0.015625)"/>
      <use xlink:href="#DejaVuSans-Oblique-6e" transform="translate(572.314453 0.015625)"/>
     </g>
    </g>
   </g>
   <g id="matplotlib.axis_2">
    <g id="ytick_1">
     <g id="line2d_45">
      <path d="M 48.55 129.399955 
L 455.422191 129.399955 
" clip-path="url(#pf7f52d8bf0)" style="fill: none; stroke: #d8d4cc; stroke-opacity: 0.5; stroke-width: 0.4; stroke-linecap: square"/>
     </g>
     <g id="line2d_46">
      <defs>
       <path id="m946b0643d4" d="M 0 0 
L -3 0 
" style="stroke: #6b6b6b; stroke-width: 0.6"/>
      </defs>
      <g>
       <use xlink:href="#m946b0643d4" x="48.55" y="129.399955" style="fill: #6b6b6b; stroke: #6b6b6b; stroke-width: 0.6"/>
      </g>
     </g>
     <g id="text_8">
      <!-- $\mathdefault{10^{-1}}$ -->
      <g style="fill: #1a1a1a" transform="translate(20.9 132.819252) scale(0.09 -0.09)">
       <defs>
        <path id="DejaVuSans-2212" d="M 678 2272 
L 4684 2272 
L 4684 1741 
L 678 1741 
L 678 2272 
z
" transform="scale(0.015625)"/>
       </defs>
       <use xlink:href="#DejaVuSans-31" transform="translate(0 0.684375)"/>
       <use xlink:href="#DejaVuSans-30" transform="translate(63.623047 0.684375)"/>
       <use xlink:href="#DejaVuSans-2212" transform="translate(128.203125 38.965625) scale(0.7)"/>
       <use xlink:href="#DejaVuSans-31" transform="translate(186.855469 38.965625) scale(0.7)"/>
      </g>
     </g>
    </g>
    <g id="ytick_2">
     <g id="line2d_47">
      <path d="M 48.55 240.103829 
L 455.422191 240.103829 
" clip-path="url(#pf7f52d8bf0)" style="fill: none; stroke: #d8d4cc; stroke-opacity: 0.3; stroke-width: 0.2; stroke-linecap: square"/>
     </g>
     <g id="line2d_48">
      <defs>
       <path id="m3a522b6fc0" d="M 0 0 
L -2 0 
" style="stroke: #000000; stroke-width: 0.6"/>
      </defs>
      <g>
       <use xlink:href="#m3a522b6fc0" x="48.55" y="240.103829" style="stroke: #000000; stroke-width: 0.6"/>
      </g>
     </g>
    </g>
    <g id="ytick_3">
     <g id="line2d_49">
      <path d="M 48.55 212.214242 
L 455.422191 212.214242 
" clip-path="url(#pf7f52d8bf0)" style="fill: none; stroke: #d8d4cc; stroke-opacity: 0.3; stroke-width: 0.2; stroke-linecap: square"/>
     </g>
     <g id="line2d_50">
      <g>
       <use xlink:href="#m3a522b6fc0" x="48.55" y="212.214242" style="stroke: #000000; stroke-width: 0.6"/>
      </g>
     </g>
    </g>
    <g id="ytick_4">
     <g id="line2d_51">
      <path d="M 48.55 192.426266 
L 455.422191 192.426266 
" clip-path="url(#pf7f52d8bf0)" style="fill: none; stroke: #d8d4cc; stroke-opacity: 0.3; stroke-width: 0.2; stroke-linecap: square"/>
     </g>
     <g id="line2d_52">
      <g>
       <use xlink:href="#m3a522b6fc0" x="48.55" y="192.426266" style="stroke: #000000; stroke-width: 0.6"/>
      </g>
     </g>
    </g>
    <g id="ytick_5">
     <g id="line2d_53">
      <path d="M 48.55 177.077518 
L 455.422191 177.077518 
" clip-path="url(#pf7f52d8bf0)" style="fill: none; stroke: #d8d4cc; stroke-opacity: 0.3; stroke-width: 0.2; stroke-linecap: square"/>
     </g>
     <g id="line2d_54">
      <g>
       <use xlink:href="#m3a522b6fc0" x="48.55" y="177.077518" style="stroke: #000000; stroke-width: 0.6"/>
      </g>
     </g>
    </g>
    <g id="ytick_6">
     <g id="line2d_55">
      <path d="M 48.55 164.536679 
L 455.422191 164.536679 
" clip-path="url(#pf7f52d8bf0)" style="fill: none; stroke: #d8d4cc; stroke-opacity: 0.3; stroke-width: 0.2; stroke-linecap: square"/>
     </g>
     <g id="line2d_56">
      <g>
       <use xlink:href="#m3a522b6fc0" x="48.55" y="164.536679" style="stroke: #000000; stroke-width: 0.6"/>
      </g>
     </g>
    </g>
    <g id="ytick_7">
     <g id="line2d_57">
      <path d="M 48.55 153.93355 
L 455.422191 153.93355 
" clip-path="url(#pf7f52d8bf0)" style="fill: none; stroke: #d8d4cc; stroke-opacity: 0.3; stroke-width: 0.2; stroke-linecap: square"/>
     </g>
     <g id="line2d_58">
      <g>
       <use xlink:href="#m3a522b6fc0" x="48.55" y="153.93355" style="stroke: #000000; stroke-width: 0.6"/>
      </g>
     </g>
    </g>
    <g id="ytick_8">
     <g id="line2d_59">
      <path d="M 48.55 144.748702 
L 455.422191 144.748702 
" clip-path="url(#pf7f52d8bf0)" style="fill: none; stroke: #d8d4cc; stroke-opacity: 0.3; stroke-width: 0.2; stroke-linecap: square"/>
     </g>
     <g id="line2d_60">
      <g>
       <use xlink:href="#m3a522b6fc0" x="48.55" y="144.748702" style="stroke: #000000; stroke-width: 0.6"/>
      </g>
     </g>
    </g>
    <g id="ytick_9">
     <g id="line2d_61">
      <path d="M 48.55 136.647092 
L 455.422191 136.647092 
" clip-path="url(#pf7f52d8bf0)" style="fill: none; stroke: #d8d4cc; stroke-opacity: 0.3; stroke-width: 0.2; stroke-linecap: square"/>
     </g>
     <g id="line2d_62">
      <g>
       <use xlink:href="#m3a522b6fc0" x="48.55" y="136.647092" style="stroke: #000000; stroke-width: 0.6"/>
      </g>
     </g>
    </g>
    <g id="ytick_10">
     <g id="line2d_63">
      <path d="M 48.55 81.722391 
L 455.422191 81.722391 
" clip-path="url(#pf7f52d8bf0)" style="fill: none; stroke: #d8d4cc; stroke-opacity: 0.3; stroke-width: 0.2; stroke-linecap: square"/>
     </g>
     <g id="line2d_64">
      <g>
       <use xlink:href="#m3a522b6fc0" x="48.55" y="81.722391" style="stroke: #000000; stroke-width: 0.6"/>
      </g>
     </g>
    </g>
    <g id="ytick_11">
     <g id="line2d_65">
      <path d="M 48.55 53.832804 
L 455.422191 53.832804 
" clip-path="url(#pf7f52d8bf0)" style="fill: none; stroke: #d8d4cc; stroke-opacity: 0.3; stroke-width: 0.2; stroke-linecap: square"/>
     </g>
     <g id="line2d_66">
      <g>
       <use xlink:href="#m3a522b6fc0" x="48.55" y="53.832804" style="stroke: #000000; stroke-width: 0.6"/>
      </g>
     </g>
    </g>
    <g id="ytick_12">
     <g id="line2d_67">
      <path d="M 48.55 34.044828 
L 455.422191 34.044828 
" clip-path="url(#pf7f52d8bf0)" style="fill: none; stroke: #d8d4cc; stroke-opacity: 0.3; stroke-width: 0.2; stroke-linecap: square"/>
     </g>
     <g id="line2d_68">
      <g>
       <use xlink:href="#m3a522b6fc0" x="48.55" y="34.044828" style="stroke: #000000; stroke-width: 0.6"/>
      </g>
     </g>
    </g>
    <g id="ytick_13">
     <g id="line2d_69">
      <path d="M 48.55 18.69608 
L 455.422191 18.69608 
" clip-path="url(#pf7f52d8bf0)" style="fill: none; stroke: #d8d4cc; stroke-opacity: 0.3; stroke-width: 0.2; stroke-linecap: square"/>
     </g>
     <g id="line2d_70">
      <g>
       <use xlink:href="#m3a522b6fc0" x="48.55" y="18.69608" style="stroke: #000000; stroke-width: 0.6"/>
      </g>
     </g>
    </g>
    <g id="text_9">
     <!-- Optimal $\alpha$ -->
     <g style="fill: #1a1a1a" transform="translate(14.8 159.77) rotate(-90) scale(0.1 -0.1)">
      <defs>
       <path id="DejaVuSans-4f" d="M 2522 4238 
Q 1834 4238 1429 3725 
Q 1025 3213 1025 2328 
Q 1025 1447 1429 934 
Q 1834 422 2522 422 
Q 3209 422 3611 934 
Q 4013 1447 4013 2328 
Q 4013 3213 3611 3725 
Q 3209 4238 2522 4238 
z
M 2522 4750 
Q 3503 4750 4090 4092 
Q 4678 3434 4678 2328 
Q 4678 1225 4090 567 
Q 3503 -91 2522 -91 
Q 1538 -91 948 565 
Q 359 1222 359 2328 
Q 359 3434 948 4092 
Q 1538 4750 2522 4750 
z
" transform="scale(0.015625)"/>
       <path id="DejaVuSans-70" d="M 1159 525 
L 1159 -1331 
L 581 -1331 
L 581 3500 
L 1159 3500 
L 1159 2969 
Q 1341 3281 1617 3432 
Q 1894 3584 2278 3584 
Q 2916 3584 3314 3078 
Q 3713 2572 3713 1747 
Q 3713 922 3314 415 
Q 2916 -91 2278 -91 
Q 1894 -91 1617 61 
Q 1341 213 1159 525 
z
M 3116 1747 
Q 3116 2381 2855 2742 
Q 2594 3103 2138 3103 
Q 1681 3103 1420 2742 
Q 1159 2381 1159 1747 
Q 1159 1113 1420 752 
Q 1681 391 2138 391 
Q 2594 391 2855 752 
Q 3116 1113 3116 1747 
z
" transform="scale(0.015625)"/>
       <path id="DejaVuSans-6d" d="M 3328 2828 
Q 3544 3216 3844 3400 
Q 4144 3584 4550 3584 
Q 5097 3584 5394 3201 
Q 5691 2819 5691 2113 
L 5691 0 
L 5113 0 
L 5113 2094 
Q 5113 2597 4934 2840 
Q 4756 3084 4391 3084 
Q 3944 3084 3684 2787 
Q 3425 2491 3425 1978 
L 3425 0 
L 2847 0 
L 2847 2094 
Q 2847 2600 2669 2842 
Q 2491 3084 2119 3084 
Q 1678 3084 1418 2786 
Q 1159 2488 1159 1978 
L 1159 0 
L 581 0 
L 581 3500 
L 1159 3500 
L 1159 2956 
Q 1356 3278 1631 3431 
Q 1906 3584 2284 3584 
Q 2666 3584 2933 3390 
Q 3200 3197 3328 2828 
z
" transform="scale(0.015625)"/>
       <path id="DejaVuSans-6c" d="M 603 4863 
L 1178 4863 
L 1178 0 
L 603 0 
L 603 4863 
z
" transform="scale(0.015625)"/>
       <path id="DejaVuSans-Oblique-3b1" d="M 2619 1628 
L 2622 2350 
Q 2625 3088 2069 3091 
Q 1653 3094 1394 2747 
Q 1069 2319 959 1747 
Q 825 1059 994 731 
Q 1169 397 1547 397 
Q 1966 397 2319 1063 
L 2619 1628 
z
M 2166 3578 
Q 3141 3594 3128 2584 
Q 3128 2584 3616 3500 
L 4128 3500 
L 3119 1603 
L 3109 919 
Q 3109 766 3194 638 
Q 3291 488 3391 488 
L 3669 488 
L 3575 0 
L 3228 0 
Q 2934 0 2722 263 
Q 2622 394 2619 669 
Q 2416 334 2066 50 
Q 1900 -81 1453 -78 
Q 722 -72 456 397 
Q 184 884 353 1747 
Q 534 2675 1009 3097 
Q 1544 3569 2166 3578 
z
" transform="scale(0.015625)"/>
      </defs>
      <use xlink:href="#DejaVuSans-4f" transform="translate(0 0.015625)"/>
      <use xlink:href="#DejaVuSans-70" transform="translate(78.710938 0.015625)"/>
      <use xlink:href="#DejaVuSans-74" transform="translate(142.1875 0.015625)"/>
      <use xlink:href="#DejaVuSans-69" transform="translate(181.396484 0.015625)"/>
      <use xlink:href="#DejaVuSans-6d" transform="translate(209.179688 0.015625)"/>
      <use xlink:href="#DejaVuSans-61" transform="translate(306.591797 0.015625)"/>
      <use xlink:href="#DejaVuSans-6c" transform="translate(367.871094 0.015625)"/>
      <use xlink:href="#DejaVuSans-20" transform="translate(395.654297 0.015625)"/>
      <use xlink:href="#DejaVuSans-Oblique-3b1" transform="translate(427.441406 0.015625)"/>
     </g>
    </g>
   </g>
   <g id="FillBetweenPolyCollection_1">
    <defs>
     <path id="m8e77a7463c" d="M 113.180035 -109.632223 
L 113.180035 -47.712983 
L 114.806909 -48.570127 
L 116.433783 -49.427271 
L 118.060658 -50.284415 
L 119.687532 -51.141559 
L 121.314406 -51.998703 
L 122.94128 -52.855847 
L 124.568154 -53.712991 
L 126.195029 -54.570135 
L 127.821903 -55.42728 
L 129.448777 -56.284424 
L 131.075651 -57.141568 
L 132.702525 -57.998712 
L 134.3294 -58.855856 
L 135.956274 -59.713 
L 137.583148 -60.570144 
L 139.210022 -61.427288 
L 140.836896 -62.284432 
L 142.463771 -63.141576 
L 144.090645 -63.99872 
L 145.717519 -64.855864 
L 147.344393 -65.713008 
L 148.971267 -66.570152 
L 150.598142 -67.427296 
L 152.225016 -68.284441 
L 153.85189 -69.141585 
L 155.478764 -69.998729 
L 157.105638 -70.855873 
L 158.732513 -71.713017 
L 160.359387 -72.570161 
L 161.986261 -73.427305 
L 163.613135 -74.284449 
L 165.240009 -75.141593 
L 166.866884 -75.998737 
L 168.493758 -76.855881 
L 170.120632 -77.713025 
L 171.747506 -78.570169 
L 173.37438 -79.427313 
L 175.001254 -80.284457 
L 176.628129 -81.141602 
L 178.255003 -81.998746 
L 179.881877 -82.85589 
L 181.508751 -83.713034 
L 183.135625 -84.570178 
L 184.7625 -85.427322 
L 186.389374 -86.284466 
L 188.016248 -87.14161 
L 189.643122 -87.998754 
L 191.269996 -88.855898 
L 192.896871 -89.713042 
L 194.523745 -90.570186 
L 196.150619 -91.42733 
L 197.777493 -92.284474 
L 199.404367 -93.141618 
L 201.031242 -93.998763 
L 202.658116 -94.855907 
L 204.28499 -95.713051 
L 205.911864 -96.570195 
L 207.538738 -97.427339 
L 209.165613 -98.284483 
L 210.792487 -99.141627 
L 212.419361 -99.998771 
L 214.046235 -100.855915 
L 215.673109 -101.713059 
L 217.299984 -102.570203 
L 218.926858 -103.427347 
L 220.553732 -104.284491 
L 222.180606 -105.141635 
L 223.80748 -105.998779 
L 225.434355 -106.855923 
L 227.061229 -107.713068 
L 228.688103 -108.570212 
L 230.314977 -109.427356 
L 231.941851 -110.2845 
L 233.568726 -111.141644 
L 235.1956 -111.998788 
L 236.822474 -112.855932 
L 238.449348 -113.713076 
L 240.076222 -114.57022 
L 241.703097 -115.427364 
L 243.329971 -116.284508 
L 244.956845 -117.141652 
L 246.583719 -117.998796 
L 248.210593 -118.85594 
L 249.837468 -119.713084 
L 251.464342 -120.570229 
L 253.091216 -121.427373 
L 254.71809 -122.284517 
L 256.344964 -123.141661 
L 257.971839 -123.998805 
L 259.598713 -124.855949 
L 261.225587 -125.713093 
L 262.852461 -126.570237 
L 264.479335 -127.427381 
L 266.106209 -128.284525 
L 267.733084 -129.141669 
L 269.359958 -129.998813 
L 270.986832 -130.855957 
L 272.613706 -131.713101 
L 274.24058 -132.570245 
L 275.867455 -133.42739 
L 277.494329 -134.284534 
L 279.121203 -135.141678 
L 280.748077 -135.998822 
L 282.374951 -136.855966 
L 284.001826 -137.71311 
L 285.6287 -138.570254 
L 287.255574 -139.427398 
L 288.882448 -140.284542 
L 290.509322 -141.141686 
L 292.136197 -141.99883 
L 293.763071 -142.855974 
L 295.389945 -143.713118 
L 297.016819 -144.570262 
L 298.643693 -145.427406 
L 300.270568 -146.284551 
L 301.897442 -147.141695 
L 303.524316 -147.998839 
L 305.15119 -148.855983 
L 306.778064 -149.713127 
L 308.404939 -150.570271 
L 310.031813 -151.427415 
L 311.658687 -152.284559 
L 313.285561 -153.141703 
L 314.912435 -153.998847 
L 316.53931 -154.855991 
L 318.166184 -155.713135 
L 319.793058 -156.570279 
L 321.419932 -157.427423 
L 323.046806 -158.284567 
L 324.673681 -159.141711 
L 326.300555 -159.998856 
L 327.927429 -160.856 
L 329.554303 -161.713144 
L 331.181177 -162.570288 
L 332.808052 -163.427432 
L 334.434926 -164.284576 
L 336.0618 -165.14172 
L 337.688674 -165.998864 
L 339.315548 -166.856008 
L 340.942423 -167.713152 
L 342.569297 -168.570296 
L 344.196171 -169.42744 
L 345.823045 -170.284584 
L 347.449919 -171.141728 
L 349.076794 -171.998872 
L 350.703668 -172.856017 
L 352.330542 -173.713161 
L 353.957416 -174.570305 
L 355.58429 -175.427449 
L 357.211165 -176.284593 
L 358.838039 -177.141737 
L 360.464913 -177.998881 
L 362.091787 -178.856025 
L 363.718661 -179.713169 
L 365.345535 -180.570313 
L 366.97241 -181.427457 
L 368.599284 -182.284601 
L 370.226158 -183.141745 
L 371.853032 -183.998889 
L 373.479906 -184.856033 
L 375.106781 -185.713178 
L 376.733655 -186.570322 
L 378.360529 -187.427466 
L 379.987403 -188.28461 
L 381.614277 -189.141754 
L 383.241152 -189.998898 
L 384.868026 -190.856042 
L 386.4949 -191.713186 
L 388.121774 -192.57033 
L 389.748648 -193.427474 
L 391.375523 -194.284618 
L 393.002397 -195.141762 
L 394.629271 -195.998906 
L 396.256145 -196.85605 
L 397.883019 -197.713194 
L 399.509894 -198.570339 
L 401.136768 -199.427483 
L 402.763642 -200.284627 
L 404.390516 -201.141771 
L 406.01739 -201.998915 
L 407.644265 -202.856059 
L 409.271139 -203.713203 
L 410.898013 -204.570347 
L 412.524887 -205.427491 
L 414.151761 -206.284635 
L 415.778636 -207.141779 
L 417.40551 -207.998923 
L 419.032384 -208.856067 
L 420.659258 -209.713211 
L 422.286132 -210.570355 
L 423.913007 -211.4275 
L 425.539881 -212.284644 
L 427.166755 -213.141788 
L 428.793629 -213.998932 
L 430.420503 -214.856076 
L 432.047378 -215.71322 
L 433.674252 -216.570364 
L 435.301126 -217.427508 
L 436.928 -218.284652 
L 436.928 -280.203892 
L 436.928 -280.203892 
L 435.301126 -279.346748 
L 433.674252 -278.489604 
L 432.047378 -277.63246 
L 430.420503 -276.775316 
L 428.793629 -275.918172 
L 427.166755 -275.061028 
L 425.539881 -274.203884 
L 423.913007 -273.34674 
L 422.286132 -272.489595 
L 420.659258 -271.632451 
L 419.032384 -270.775307 
L 417.40551 -269.918163 
L 415.778636 -269.061019 
L 414.151761 -268.203875 
L 412.524887 -267.346731 
L 410.898013 -266.489587 
L 409.271139 -265.632443 
L 407.644265 -264.775299 
L 406.01739 -263.918155 
L 404.390516 -263.061011 
L 402.763642 -262.203867 
L 401.136768 -261.346723 
L 399.509894 -260.489579 
L 397.883019 -259.632434 
L 396.256145 -258.77529 
L 394.629271 -257.918146 
L 393.002397 -257.061002 
L 391.375523 -256.203858 
L 389.748648 -255.346714 
L 388.121774 -254.48957 
L 386.4949 -253.632426 
L 384.868026 -252.775282 
L 383.241152 -251.918138 
L 381.614277 -251.060994 
L 379.987403 -250.20385 
L 378.360529 -249.346706 
L 376.733655 -248.489562 
L 375.106781 -247.632418 
L 373.479906 -246.775273 
L 371.853032 -245.918129 
L 370.226158 -245.060985 
L 368.599284 -244.203841 
L 366.97241 -243.346697 
L 365.345535 -242.489553 
L 363.718661 -241.632409 
L 362.091787 -240.775265 
L 360.464913 -239.918121 
L 358.838039 -239.060977 
L 357.211165 -238.203833 
L 355.58429 -237.346689 
L 353.957416 -236.489545 
L 352.330542 -235.632401 
L 350.703668 -234.775257 
L 349.076794 -233.918112 
L 347.449919 -233.060968 
L 345.823045 -232.203824 
L 344.196171 -231.34668 
L 342.569297 -230.489536 
L 340.942423 -229.632392 
L 339.315548 -228.775248 
L 337.688674 -227.918104 
L 336.0618 -227.06096 
L 334.434926 -226.203816 
L 332.808052 -225.346672 
L 331.181177 -224.489528 
L 329.554303 -223.632384 
L 327.927429 -222.77524 
L 326.300555 -221.918096 
L 324.673681 -221.060952 
L 323.046806 -220.203807 
L 321.419932 -219.346663 
L 319.793058 -218.489519 
L 318.166184 -217.632375 
L 316.53931 -216.775231 
L 314.912435 -215.918087 
L 313.285561 -215.060943 
L 311.658687 -214.203799 
L 310.031813 -213.346655 
L 308.404939 -212.489511 
L 306.778064 -211.632367 
L 305.15119 -210.775223 
L 303.524316 -209.918079 
L 301.897442 -209.060935 
L 300.270568 -208.203791 
L 298.643693 -207.346646 
L 297.016819 -206.489502 
L 295.389945 -205.632358 
L 293.763071 -204.775214 
L 292.136197 -203.91807 
L 290.509322 -203.060926 
L 288.882448 -202.203782 
L 287.255574 -201.346638 
L 285.6287 -200.489494 
L 284.001826 -199.63235 
L 282.374951 -198.775206 
L 280.748077 -197.918062 
L 279.121203 -197.060918 
L 277.494329 -196.203774 
L 275.867455 -195.34663 
L 274.24058 -194.489485 
L 272.613706 -193.632341 
L 270.986832 -192.775197 
L 269.359958 -191.918053 
L 267.733084 -191.060909 
L 266.106209 -190.203765 
L 264.479335 -189.346621 
L 262.852461 -188.489477 
L 261.225587 -187.632333 
L 259.598713 -186.775189 
L 257.971839 -185.918045 
L 256.344964 -185.060901 
L 254.71809 -184.203757 
L 253.091216 -183.346613 
L 251.464342 -182.489469 
L 249.837468 -181.632324 
L 248.210593 -180.77518 
L 246.583719 -179.918036 
L 244.956845 -179.060892 
L 243.329971 -178.203748 
L 241.703097 -177.346604 
L 240.076222 -176.48946 
L 238.449348 -175.632316 
L 236.822474 -174.775172 
L 235.1956 -173.918028 
L 233.568726 -173.060884 
L 231.941851 -172.20374 
L 230.314977 -171.346596 
L 228.688103 -170.489452 
L 227.061229 -169.632308 
L 225.434355 -168.775164 
L 223.80748 -167.918019 
L 222.180606 -167.060875 
L 220.553732 -166.203731 
L 218.926858 -165.346587 
L 217.299984 -164.489443 
L 215.673109 -163.632299 
L 214.046235 -162.775155 
L 212.419361 -161.918011 
L 210.792487 -161.060867 
L 209.165613 -160.203723 
L 207.538738 -159.346579 
L 205.911864 -158.489435 
L 204.28499 -157.632291 
L 202.658116 -156.775147 
L 201.031242 -155.918003 
L 199.404367 -155.060858 
L 197.777493 -154.203714 
L 196.150619 -153.34657 
L 194.523745 -152.489426 
L 192.896871 -151.632282 
L 191.269996 -150.775138 
L 189.643122 -149.917994 
L 188.016248 -149.06085 
L 186.389374 -148.203706 
L 184.7625 -147.346562 
L 183.135625 -146.489418 
L 181.508751 -145.632274 
L 179.881877 -144.77513 
L 178.255003 -143.917986 
L 176.628129 -143.060842 
L 175.001254 -142.203697 
L 173.37438 -141.346553 
L 171.747506 -140.489409 
L 170.120632 -139.632265 
L 168.493758 -138.775121 
L 166.866884 -137.917977 
L 165.240009 -137.060833 
L 163.613135 -136.203689 
L 161.986261 -135.346545 
L 160.359387 -134.489401 
L 158.732513 -133.632257 
L 157.105638 -132.775113 
L 155.478764 -131.917969 
L 153.85189 -131.060825 
L 152.225016 -130.203681 
L 150.598142 -129.346536 
L 148.971267 -128.489392 
L 147.344393 -127.632248 
L 145.717519 -126.775104 
L 144.090645 -125.91796 
L 142.463771 -125.060816 
L 140.836896 -124.203672 
L 139.210022 -123.346528 
L 137.583148 -122.489384 
L 135.956274 -121.63224 
L 134.3294 -120.775096 
L 132.702525 -119.917952 
L 131.075651 -119.060808 
L 129.448777 -118.203664 
L 127.821903 -117.34652 
L 126.195029 -116.489375 
L 124.568154 -115.632231 
L 122.94128 -114.775087 
L 121.314406 -113.917943 
L 119.687532 -113.060799 
L 118.060658 -112.203655 
L 116.433783 -111.346511 
L 114.806909 -110.489367 
L 113.180035 -109.632223 
z
"/>
    </defs>
    <g clip-path="url(#pf7f52d8bf0)">
     <use xlink:href="#m8e77a7463c" x="0" y="299.028437" style="fill: #c25450; fill-opacity: 0.08"/>
    </g>
   </g>
   <g id="line2d_71">
    <path d="M 113.180035 220.355835 
L 436.928 49.784165 
L 436.928 49.784165 
" clip-path="url(#pf7f52d8bf0)" style="fill: none; stroke: #c25450; stroke-opacity: 0.8; stroke-width: 1.2; stroke-linecap: square"/>
   </g>
   <g id="patch_3">
    <path d="M 48.55 262.94 
L 48.55 7.2 
" style="fill: none; stroke: #d8d4cc; stroke-width: 0.6; stroke-linejoin: miter; stroke-linecap: square"/>
   </g>
   <g id="patch_4">
    <path d="M 48.55 262.94 
L 455.422191 262.94 
" style="fill: none; stroke: #d8d4cc; stroke-width: 0.6; stroke-linejoin: miter; stroke-linecap: square"/>
   </g>
   <g id="line2d_72">
    <defs>
     <path id="m96ac4e6281" d="M 0 3 
C 0.795609 3 1.55874 2.683901 2.12132 2.12132 
C 2.683901 1.55874 3 0.795609 3 0 
C 3 -0.795609 2.683901 -1.55874 2.12132 -2.12132 
C 1.55874 -2.683901 0.795609 -3 0 -3 
C -0.795609 -3 -1.55874 -2.683901 -2.12132 -2.12132 
C -2.683901 -1.55874 -3 -0.795609 -3 0 
C -3 0.795609 -2.683901 1.55874 -2.12132 2.12132 
C -1.55874 2.683901 -0.795609 3 0 3 
z
" style="stroke: #6b6b6b"/>
    </defs>
    <g clip-path="url(#pf7f52d8bf0)">
     <use xlink:href="#m96ac4e6281" x="67.04419" y="94.66334" style="fill-opacity: 0; stroke: #6b6b6b"/>
    </g>
   </g>
   <g id="line2d_73">
    <defs>
     <path id="me0f22058ac" d="M 0 3 
C 0.795609 3 1.55874 2.683901 2.12132 2.12132 
C 2.683901 1.55874 3 0.795609 3 0 
C 3 -0.795609 2.683901 -1.55874 2.12132 -2.12132 
C 1.55874 -2.683901 0.795609 -3 0 -3 
C -0.795609 -3 -1.55874 -2.683901 -2.12132 -2.12132 
C -2.683901 -1.55874 -3 -0.795609 -3 0 
C -3 0.795609 -2.683901 1.55874 -2.12132 2.12132 
C -1.55874 2.683901 -0.795609 3 0 3 
z
" style="stroke: #ffffff; stroke-width: 0.8"/>
    </defs>
    <g clip-path="url(#pf7f52d8bf0)">
     <use xlink:href="#me0f22058ac" x="127.310357" y="189.563353" style="fill: #4a6fa5; stroke: #ffffff; stroke-width: 0.8"/>
     <use xlink:href="#me0f22058ac" x="162.563805" y="246.590912" style="fill: #4a6fa5; stroke: #ffffff; stroke-width: 0.8"/>
     <use xlink:href="#me0f22058ac" x="187.576524" y="170.646861" style="fill: #4a6fa5; stroke: #ffffff; stroke-width: 0.8"/>
     <use xlink:href="#me0f22058ac" x="222.829971" y="151.614762" style="fill: #4a6fa5; stroke: #ffffff; stroke-width: 0.8"/>
     <use xlink:href="#me0f22058ac" x="247.84269" y="151.614762" style="fill: #4a6fa5; stroke: #ffffff; stroke-width: 0.8"/>
     <use xlink:href="#me0f22058ac" x="283.096138" y="56.664599" style="fill: #4a6fa5; stroke: #ffffff; stroke-width: 0.8"/>
     <use xlink:href="#me0f22058ac" x="308.108857" y="151.614762" style="fill: #4a6fa5; stroke: #ffffff; stroke-width: 0.8"/>
     <use xlink:href="#me0f22058ac" x="343.362304" y="132.639113" style="fill: #4a6fa5; stroke: #ffffff; stroke-width: 0.8"/>
     <use xlink:href="#me0f22058ac" x="368.375023" y="113.667091" style="fill: #4a6fa5; stroke: #ffffff; stroke-width: 0.8"/>
     <use xlink:href="#me0f22058ac" x="387.776395" y="75.668635" style="fill: #4a6fa5; stroke: #ffffff; stroke-width: 0.8"/>
     <use xlink:href="#me0f22058ac" x="403.628471" y="56.664599" style="fill: #4a6fa5; stroke: #ffffff; stroke-width: 0.8"/>
     <use xlink:href="#me0f22058ac" x="417.03121" y="56.664599" style="fill: #4a6fa5; stroke: #ffffff; stroke-width: 0.8"/>
     <use xlink:href="#me0f22058ac" x="428.64119" y="37.681687" style="fill: #4a6fa5; stroke: #ffffff; stroke-width: 0.8"/>
    </g>
   </g>
   <g id="legend_1">
    <g id="patch_5">
     <path d="M 311.347191 258.69 
L 449.472191 258.69 
Q 451.172191 258.69 451.172191 256.99 
L 451.172191 219.712187 
Q 451.172191 218.012187 449.472191 218.012187 
L 311.347191 218.012187 
Q 309.647191 218.012187 309.647191 219.712187 
L 309.647191 256.99 
Q 309.647191 258.69 311.347191 258.69 
z
" style="fill: #faf9f6; opacity: 0.7"/>
    </g>
    <g id="line2d_74">
     <path d="M 313.047191 225.594453 
L 320.697191 225.594453 
L 328.347191 225.594453 
" style="fill: none; stroke: #c25450; stroke-opacity: 0.8; stroke-width: 1.2; stroke-linecap: square"/>
    </g>
    <g id="text_10">
     <!-- $\alpha = 0.003 \cdot n^{0.67}$  ($r^2 = 0.74$) -->
     <g transform="translate(333.447191 228.569453) scale(0.085 -0.085)">
      <defs>
       <path id="DejaVuSans-3d" d="M 678 2906 
L 4684 2906 
L 4684 2381 
L 678 2381 
L 678 2906 
z
M 678 1631 
L 4684 1631 
L 4684 1100 
L 678 1100 
L 678 1631 
z
" transform="scale(0.015625)"/>
       <path id="DejaVuSans-2e" d="M 684 794 
L 1344 794 
L 1344 0 
L 684 0 
L 684 794 
z
" transform="scale(0.015625)"/>
       <path id="DejaVuSans-22c5" d="M 684 2619 
L 1344 2619 
L 1344 1825 
L 684 1825 
L 684 2619 
z
" transform="scale(0.015625)"/>
       <path id="DejaVuSans-37" d="M 525 4666 
L 3525 4666 
L 3525 4397 
L 1831 0 
L 1172 0 
L 2766 4134 
L 525 4134 
L 525 4666 
z
" transform="scale(0.015625)"/>
       <path id="DejaVuSans-28" d="M 1984 4856 
Q 1566 4138 1362 3434 
Q 1159 2731 1159 2009 
Q 1159 1288 1364 580 
Q 1569 -128 1984 -844 
L 1484 -844 
Q 1016 -109 783 600 
Q 550 1309 550 2009 
Q 550 2706 781 3412 
Q 1013 4119 1484 4856 
L 1984 4856 
z
" transform="scale(0.015625)"/>
       <path id="DejaVuSans-Oblique-72" d="M 2853 2969 
Q 2766 3016 2653 3041 
Q 2541 3066 2413 3066 
Q 1953 3066 1609 2717 
Q 1266 2369 1153 1784 
L 800 0 
L 225 0 
L 909 3500 
L 1484 3500 
L 1375 2956 
Q 1603 3259 1920 3421 
Q 2238 3584 2597 3584 
Q 2691 3584 2781 3573 
Q 2872 3563 2963 3538 
L 2853 2969 
z
" transform="scale(0.015625)"/>
       <path id="DejaVuSans-29" d="M 513 4856 
L 1013 4856 
Q 1481 4119 1714 3412 
Q 1947 2706 1947 2009 
Q 1947 1309 1714 600 
Q 1481 -109 1013 -844 
L 513 -844 
Q 928 -128 1133 580 
Q 1338 1288 1338 2009 
Q 1338 2731 1133 3434 
Q 928 4138 513 4856 
z
" transform="scale(0.015625)"/>
      </defs>
      <use xlink:href="#DejaVuSans-Oblique-3b1" transform="translate(0 0.765625)"/>
      <use xlink:href="#DejaVuSans-3d" transform="translate(85.400391 0.765625)"/>
      <use xlink:href="#DejaVuSans-30" transform="translate(188.671875 0.765625)"/>
      <use xlink:href="#DejaVuSans-2e" transform="translate(252.294922 0.765625)"/>
      <use xlink:href="#DejaVuSans-30" transform="translate(284.082031 0.765625)"/>
      <use xlink:href="#DejaVuSans-30" transform="translate(347.705078 0.765625)"/>
      <use xlink:href="#DejaVuSans-33" transform="translate(411.328125 0.765625)"/>
      <use xlink:href="#DejaVuSans-22c5" transform="translate(494.433594 0.765625)"/>
      <use xlink:href="#DejaVuSans-Oblique-6e" transform="translate(545.703125 0.765625)"/>
      <use xlink:href="#DejaVuSans-30" transform="translate(613.731927 39.046875) scale(0.7)"/>
      <use xlink:href="#DejaVuSans-2e" transform="translate(658.26806 39.046875) scale(0.7)"/>
      <use xlink:href="#DejaVuSans-36" transform="translate(680.519036 39.046875) scale(0.7)"/>
      <use xlink:href="#DejaVuSans-37" transform="translate(725.055169 39.046875) scale(0.7)"/>
      <use xlink:href="#DejaVuSans-20" transform="translate(772.325677 0.765625)"/>
      <use xlink:href="#DejaVuSans-20" transform="translate(804.112786 0.765625)"/>
      <use xlink:href="#DejaVuSans-28" transform="translate(835.899896 0.765625)"/>
      <use xlink:href="#DejaVuSans-Oblique-72" transform="translate(874.913568 0.765625)"/>
      <use xlink:href="#DejaVuSans-32" transform="translate(920.676745 39.046875) scale(0.7)"/>
      <use xlink:href="#DejaVuSans-3d" transform="translate(987.429674 0.765625)"/>
      <use xlink:href="#DejaVuSans-30" transform="translate(1090.701159 0.765625)"/>
      <use xlink:href="#DejaVuSans-2e" transform="translate(1154.324206 0.765625)"/>
      <use xlink:href="#DejaVuSans-37" transform="translate(1178.361315 0.765625)"/>
      <use xlink:href="#DejaVuSans-34" transform="translate(1241.984362 0.765625)"/>
      <use xlink:href="#DejaVuSans-29" transform="translate(1305.607409 0.765625)"/>
     </g>
    </g>
    <g id="line2d_75">
     <g>
      <use xlink:href="#me0f22058ac" x="320.697191" y="238.070859" style="fill: #4a6fa5; stroke: #ffffff; stroke-width: 0.8"/>
     </g>
    </g>
    <g id="text_11">
     <!-- Grid-search optimum -->
     <g transform="translate(333.447191 241.045859) scale(0.085 -0.085)">
      <defs>
       <path id="DejaVuSans-47" d="M 3809 666 
L 3809 1919 
L 2778 1919 
L 2778 2438 
L 4434 2438 
L 4434 434 
Q 4069 175 3628 42 
Q 3188 -91 2688 -91 
Q 1594 -91 976 548 
Q 359 1188 359 2328 
Q 359 3472 976 4111 
Q 1594 4750 2688 4750 
Q 3144 4750 3555 4637 
Q 3966 4525 4313 4306 
L 4313 3634 
Q 3963 3931 3569 4081 
Q 3175 4231 2741 4231 
Q 1884 4231 1454 3753 
Q 1025 3275 1025 2328 
Q 1025 1384 1454 906 
Q 1884 428 2741 428 
Q 3075 428 3337 486 
Q 3600 544 3809 666 
z
" transform="scale(0.015625)"/>
       <path id="DejaVuSans-64" d="M 2906 2969 
L 2906 4863 
L 3481 4863 
L 3481 0 
L 2906 0 
L 2906 525 
Q 2725 213 2448 61 
Q 2172 -91 1784 -91 
Q 1150 -91 751 415 
Q 353 922 353 1747 
Q 353 2572 751 3078 
Q 1150 3584 1784 3584 
Q 2172 3584 2448 3432 
Q 2725 3281 2906 2969 
z
M 947 1747 
Q 947 1113 1208 752 
Q 1469 391 1925 391 
Q 2381 391 2643 752 
Q 2906 1113 2906 1747 
Q 2906 2381 2643 2742 
Q 2381 3103 1925 3103 
Q 1469 3103 1208 2742 
Q 947 2381 947 1747 
z
" transform="scale(0.015625)"/>
       <path id="DejaVuSans-2d" d="M 313 2009 
L 1997 2009 
L 1997 1497 
L 313 1497 
L 313 2009 
z
" transform="scale(0.015625)"/>
       <path id="DejaVuSans-63" d="M 3122 3366 
L 3122 2828 
Q 2878 2963 2633 3030 
Q 2388 3097 2138 3097 
Q 1578 3097 1268 2742 
Q 959 2388 959 1747 
Q 959 1106 1268 751 
Q 1578 397 2138 397 
Q 2388 397 2633 464 
Q 2878 531 3122 666 
L 3122 134 
Q 2881 22 2623 -34 
Q 2366 -91 2075 -91 
Q 1284 -91 818 406 
Q 353 903 353 1747 
Q 353 2603 823 3093 
Q 1294 3584 2113 3584 
Q 2378 3584 2631 3529 
Q 2884 3475 3122 3366 
z
" transform="scale(0.015625)"/>
       <path id="DejaVuSans-68" d="M 3513 2113 
L 3513 0 
L 2938 0 
L 2938 2094 
Q 2938 2591 2744 2837 
Q 2550 3084 2163 3084 
Q 1697 3084 1428 2787 
Q 1159 2491 1159 1978 
L 1159 0 
L 581 0 
L 581 4863 
L 1159 4863 
L 1159 2956 
Q 1366 3272 1645 3428 
Q 1925 3584 2291 3584 
Q 2894 3584 3203 3211 
Q 3513 2838 3513 2113 
z
" transform="scale(0.015625)"/>
       <path id="DejaVuSans-6f" d="M 1959 3097 
Q 1497 3097 1228 2736 
Q 959 2375 959 1747 
Q 959 1119 1226 758 
Q 1494 397 1959 397 
Q 2419 397 2687 759 
Q 2956 1122 2956 1747 
Q 2956 2369 2687 2733 
Q 2419 3097 1959 3097 
z
M 1959 3584 
Q 2709 3584 3137 3096 
Q 3566 2609 3566 1747 
Q 3566 888 3137 398 
Q 2709 -91 1959 -91 
Q 1206 -91 779 398 
Q 353 888 353 1747 
Q 353 2609 779 3096 
Q 1206 3584 1959 3584 
z
" transform="scale(0.015625)"/>
       <path id="DejaVuSans-75" d="M 544 1381 
L 544 3500 
L 1119 3500 
L 1119 1403 
Q 1119 906 1312 657 
Q 1506 409 1894 409 
Q 2359 409 2629 706 
Q 2900 1003 2900 1516 
L 2900 3500 
L 3475 3500 
L 3475 0 
L 2900 0 
L 2900 538 
Q 2691 219 2414 64 
Q 2138 -91 1772 -91 
Q 1169 -91 856 284 
Q 544 659 544 1381 
z
M 1991 3584 
L 1991 3584 
z
" transform="scale(0.015625)"/>
      </defs>
      <use xlink:href="#DejaVuSans-47"/>
      <use xlink:href="#DejaVuSans-72" transform="translate(77.490234 0)"/>
      <use xlink:href="#DejaVuSans-69" transform="translate(118.603516 0)"/>
      <use xlink:href="#DejaVuSans-64" transform="translate(146.386719 0)"/>
      <use xlink:href="#DejaVuSans-2d" transform="translate(209.863281 0)"/>
      <use xlink:href="#DejaVuSans-73" transform="translate(245.947266 0)"/>
      <use xlink:href="#DejaVuSans-65" transform="translate(298.046875 0)"/>
      <use xlink:href="#DejaVuSans-61" transform="translate(359.570312 0)"/>
      <use xlink:href="#DejaVuSans-72" transform="translate(420.849609 0)"/>
      <use xlink:href="#DejaVuSans-63" transform="translate(459.712891 0)"/>
      <use xlink:href="#DejaVuSans-68" transform="translate(514.693359 0)"/>
      <use xlink:href="#DejaVuSans-20" transform="translate(578.072266 0)"/>
      <use xlink:href="#DejaVuSans-6f" transform="translate(609.859375 0)"/>
      <use xlink:href="#DejaVuSans-70" transform="translate(671.041016 0)"/>
      <use xlink:href="#DejaVuSans-74" transform="translate(734.517578 0)"/>
      <use xlink:href="#DejaVuSans-69" transform="translate(773.726562 0)"/>
      <use xlink:href="#DejaVuSans-6d" transform="translate(801.509766 0)"/>
      <use xlink:href="#DejaVuSans-75" transform="translate(898.921875 0)"/>
      <use xlink:href="#DejaVuSans-6d" transform="translate(962.300781 0)"/>
     </g>
    </g>
    <g id="line2d_76">
     <g>
      <use xlink:href="#m96ac4e6281" x="320.697191" y="250.547266" style="fill-opacity: 0; stroke: #6b6b6b"/>
     </g>
    </g>
    <g id="text_12">
     <!-- Excluded ($n = 16$) -->
     <g transform="translate(333.447191 253.522266) scale(0.085 -0.085)">
      <defs>
       <path id="DejaVuSans-45" d="M 628 4666 
L 3578 4666 
L 3578 4134 
L 1259 4134 
L 1259 2753 
L 3481 2753 
L 3481 2222 
L 1259 2222 
L 1259 531 
L 3634 531 
L 3634 0 
L 628 0 
L 628 4666 
z
" transform="scale(0.015625)"/>
      </defs>
      <use xlink:href="#DejaVuSans-45" transform="translate(0 0.015625)"/>
      <use xlink:href="#DejaVuSans-78" transform="translate(63.183594 0.015625)"/>
      <use xlink:href="#DejaVuSans-63" transform="translate(122.363281 0.015625)"/>
      <use xlink:href="#DejaVuSans-6c" transform="translate(177.34375 0.015625)"/>
      <use xlink:href="#DejaVuSans-75" transform="translate(205.126953 0.015625)"/>
      <use xlink:href="#DejaVuSans-64" transform="translate(268.505859 0.015625)"/>
      <use xlink:href="#DejaVuSans-65" transform="translate(331.982422 0.015625)"/>
      <use xlink:href="#DejaVuSans-64" transform="translate(393.505859 0.015625)"/>
      <use xlink:href="#DejaVuSans-20" transform="translate(456.982422 0.015625)"/>
      <use xlink:href="#DejaVuSans-28" transform="translate(488.769531 0.015625)"/>
      <use xlink:href="#DejaVuSans-Oblique-6e" transform="translate(527.783203 0.015625)"/>
      <use xlink:href="#DejaVuSans-3d" transform="translate(610.644531 0.015625)"/>
      <use xlink:href="#DejaVuSans-31" transform="translate(713.916016 0.015625)"/>
      <use xlink:href="#DejaVuSans-36" transform="translate(777.539062 0.015625)"/>
      <use xlink:href="#DejaVuSans-29" transform="translate(841.162109 0.015625)"/>
     </g>
    </g>
   </g>
  </g>
 </g>
 <defs>
  <clipPath id="pf7f52d8bf0">
   <rect x="48.55" y="7.2" width="406.872191" height="255.74"/>
  </clipPath>
 </defs>
</svg>
