<?xml version="1.0" encoding="utf-8" standalone="no"?>
<!DOCTYPE svg PUBLIC "-//W3C//DTD SVG 1.1//EN"
  "http://www.w3.org/Graphics/SVG/1.1/DTD/svg11.dtd">
<svg xmlns:xlink="http://www.w3.org/1999/xlink" width="997.132315pt" height="387.962344pt" viewBox="0 0 997.132315 387.962344" xmlns="http://www.w3.org/2000/svg" version="1.1">
 <metadata>
  <rdf:RDF xmlns:dc="http://purl.org/dc/elements/1.1/" xmlns:cc="http://creativecommons.org/ns#" xmlns:rdf="http://www.w3.org/1999/02/22-rdf-syntax-ns#">
   <cc:Work>
    <dc:type rdf:resource="http://purl.org/dc/dcmitype/StillImage"/>
    <dc:date>2026-04-17T15:53:59.737059</dc:date>
    <dc:format>image/svg+xml</dc:format>
    <dc:creator>
     <cc:Agent>
      <dc:title>Matplotlib v3.9.4, https://matplotlib.org/</dc:title>
     </cc:Agent>
    </dc:creator>
   </cc:Work>
  </rdf:RDF>
 </metadata>
 <defs>
  <style type="text/css">*{stroke-linejoin: round; stroke-linecap: butt}</style>
 </defs>
 <g id="figure_1">
  <g id="patch_1">
   <path d="M 0 387.962344 
L 997.132315 387.962344 
L 997.132315 0 
L 0 0 
z
" style="fill: #faf9f6"/>
  </g>
  <g id="axes_1">
   <g id="patch_2">
    <path d="M 45.97 349.938281 
L 489.391158 349.938281 
L 489.391158 23.558281 
L 45.97 23.558281 
z
" style="fill: #faf9f6"/>
   </g>
   <g id="matplotlib.axis_1">
    <g id="xtick_1">
     <g id="line2d_1">
      <path d="M 66.125507 349.938281 
L 66.125507 23.558281 
" clip-path="url(#pb8664278c4)" style="fill: none; stroke: #d8d4cc; stroke-opacity: 0.6; stroke-width: 0.5; stroke-linecap: square"/>
     </g>
     <g id="line2d_2">
      <defs>
       <path id="m22aeb80215" d="M 0 0 
L 0 3 
" style="stroke: #6b6b6b; stroke-width: 0.8"/>
      </defs>
      <g>
       <use xlink:href="#m22aeb80215" x="66.125507" y="349.938281" style="fill: #6b6b6b; stroke: #6b6b6b; stroke-width: 0.8"/>
      </g>
     </g>
     <g id="text_1">
      <!-- 0 -->
      <g style="fill: #1a1a1a" transform="translate(62.944257 364.036719) scale(0.1 -0.1)">
       <defs>
        <path id="DejaVuSans-30" d="M 2034 4250 
Q 1547 4250 1301 3770 
Q 1056 3291 1056 2328 
Q 1056 1369 1301 889 
Q 1547 409 2034 409 
Q 2525 409 2770 889 
Q 3016 1369 3016 2328 
Q 3016 3291 2770 3770 
Q 2525 4250 2034 4250 
z
M 2034 4750 
Q 2819 4750 3233 4129 
Q 3647 3509 3647 2328 
Q 3647 1150 3233 529 
Q 2819 -91 2034 -91 
Q 1250 -91 836 529 
Q 422 1150 422 2328 
Q 422 3509 836 4129 
Q 1250 4750 2034 4750 
z
" transform="scale(0.015625)"/>
       </defs>
       <use xlink:href="#DejaVuSans-30"/>
      </g>
     </g>
    </g>
    <g id="xtick_2">
     <g id="line2d_3">
      <path d="M 146.747536 349.938281 
L 146.747536 23.558281 
" clip-path="url(#pb8664278c4)" style="fill: none; stroke: #d8d4cc; stroke-opacity: 0.6; stroke-width: 0.5; stroke-linecap: square"/>
     </g>
     <g id="line2d_4">
      <g>
       <use xlink:href="#m22aeb80215" x="146.747536" y="349.938281" style="fill: #6b6b6b; stroke: #6b6b6b; stroke-width: 0.8"/>
      </g>
     </g>
     <g id="text_2">
      <!-- 10000 -->
      <g style="fill: #1a1a1a" transform="translate(130.841286 364.036719) scale(0.1 -0.1)">
       <defs>
        <path id="DejaVuSans-31" d="M 794 531 
L 1825 531 
L 1825 4091 
L 703 3866 
L 703 4441 
L 1819 4666 
L 2450 4666 
L 2450 531 
L 3481 531 
L 3481 0 
L 794 0 
L 794 531 
z
" transform="scale(0.015625)"/>
       </defs>
       <use xlink:href="#DejaVuSans-31"/>
       <use xlink:href="#DejaVuSans-30" x="63.623047"/>
       <use xlink:href="#DejaVuSans-30" x="127.246094"/>
       <use xlink:href="#DejaVuSans-30" x="190.869141"/>
       <use xlink:href="#DejaVuSans-30" x="254.492188"/>
      </g>
     </g>
    </g>
    <g id="xtick_3">
     <g id="line2d_5">
      <path d="M 227.369564 349.938281 
L 227.369564 23.558281 
" clip-path="url(#pb8664278c4)" style="fill: none; stroke: #d8d4cc; stroke-opacity: 0.6; stroke-width: 0.5; stroke-linecap: square"/>
     </g>
     <g id="line2d_6">
      <g>
       <use xlink:href="#m22aeb80215" x="227.369564" y="349.938281" style="fill: #6b6b6b; stroke: #6b6b6b; stroke-width: 0.8"/>
      </g>
     </g>
     <g id="text_3">
      <!-- 20000 -->
      <g style="fill: #1a1a1a" transform="translate(211.463314 364.036719) scale(0.1 -0.1)">
       <defs>
        <path id="DejaVuSans-32" d="M 1228 531 
L 3431 531 
L 3431 0 
L 469 0 
L 469 531 
Q 828 903 1448 1529 
Q 2069 2156 2228 2338 
Q 2531 2678 2651 2914 
Q 2772 3150 2772 3378 
Q 2772 3750 2511 3984 
Q 2250 4219 1831 4219 
Q 1534 4219 1204 4116 
Q 875 4013 500 3803 
L 500 4441 
Q 881 4594 1212 4672 
Q 1544 4750 1819 4750 
Q 2544 4750 2975 4387 
Q 3406 4025 3406 3419 
Q 3406 3131 3298 2873 
Q 3191 2616 2906 2266 
Q 2828 2175 2409 1742 
Q 1991 1309 1228 531 
z
" transform="scale(0.015625)"/>
       </defs>
       <use xlink:href="#DejaVuSans-32"/>
       <use xlink:href="#DejaVuSans-30" x="63.623047"/>
       <use xlink:href="#DejaVuSans-30" x="127.246094"/>
       <use xlink:href="#DejaVuSans-30" x="190.869141"/>
       <use xlink:href="#DejaVuSans-30" x="254.492188"/>
      </g>
     </g>
    </g>
    <g id="xtick_4">
     <g id="line2d_7">
      <path d="M 307.991593 349.938281 
L 307.991593 23.558281 
" clip-path="url(#pb8664278c4)" style="fill: none; stroke: #d8d4cc; stroke-opacity: 0.6; stroke-width: 0.5; stroke-linecap: square"/>
     </g>
     <g id="line2d_8">
      <g>
       <use xlink:href="#m22aeb80215" x="307.991593" y="349.938281" style="fill: #6b6b6b; stroke: #6b6b6b; stroke-width: 0.8"/>
      </g>
     </g>
     <g id="text_4">
      <!-- 30000 -->
      <g style="fill: #1a1a1a" transform="translate(292.085343 364.036719) scale(0.1 -0.1)">
       <defs>
        <path id="DejaVuSans-33" d="M 2597 2516 
Q 3050 2419 3304 2112 
Q 3559 1806 3559 1356 
Q 3559 666 3084 287 
Q 2609 -91 1734 -91 
Q 1441 -91 1130 -33 
Q 819 25 488 141 
L 488 750 
Q 750 597 1062 519 
Q 1375 441 1716 441 
Q 2309 441 2620 675 
Q 2931 909 2931 1356 
Q 2931 1769 2642 2001 
Q 2353 2234 1838 2234 
L 1294 2234 
L 1294 2753 
L 1863 2753 
Q 2328 2753 2575 2939 
Q 2822 3125 2822 3475 
Q 2822 3834 2567 4026 
Q 2313 4219 1838 4219 
Q 1578 4219 1281 4162 
Q 984 4106 628 3988 
L 628 4550 
Q 988 4650 1302 4700 
Q 1616 4750 1894 4750 
Q 2613 4750 3031 4423 
Q 3450 4097 3450 3541 
Q 3450 3153 3228 2886 
Q 3006 2619 2597 2516 
z
" transform="scale(0.015625)"/>
       </defs>
       <use xlink:href="#DejaVuSans-33"/>
       <use xlink:href="#DejaVuSans-30" x="63.623047"/>
       <use xlink:href="#DejaVuSans-30" x="127.246094"/>
       <use xlink:href="#DejaVuSans-30" x="190.869141"/>
       <use xlink:href="#DejaVuSans-30" x="254.492188"/>
      </g>
     </g>
    </g>
    <g id="xtick_5">
     <g id="line2d_9">
      <path d="M 388.613622 349.938281 
L 388.613622 23.558281 
" clip-path="url(#pb8664278c4)" style="fill: none; stroke: #d8d4cc; stroke-opacity: 0.6; stroke-width: 0.5; stroke-linecap: square"/>
     </g>
     <g id="line2d_10">
      <g>
       <use xlink:href="#m22aeb80215" x="388.613622" y="349.938281" style="fill: #6b6b6b; stroke: #6b6b6b; stroke-width: 0.8"/>
      </g>
     </g>
     <g id="text_5">
      <!-- 40000 -->
      <g style="fill: #1a1a1a" transform="translate(372.707372 364.036719) scale(0.1 -0.1)">
       <defs>
        <path id="DejaVuSans-34" d="M 2419 4116 
L 825 1625 
L 2419 1625 
L 2419 4116 
z
M 2253 4666 
L 3047 4666 
L 3047 1625 
L 3713 1625 
L 3713 1100 
L 3047 1100 
L 3047 0 
L 2419 0 
L 2419 1100 
L 313 1100 
L 313 1709 
L 2253 4666 
z
" transform="scale(0.015625)"/>
       </defs>
       <use xlink:href="#DejaVuSans-34"/>
       <use xlink:href="#DejaVuSans-30" x="63.623047"/>
       <use xlink:href="#DejaVuSans-30" x="127.246094"/>
       <use xlink:href="#DejaVuSans-30" x="190.869141"/>
       <use xlink:href="#DejaVuSans-30" x="254.492188"/>
      </g>
     </g>
    </g>
    <g id="xtick_6">
     <g id="line2d_11">
      <path d="M 469.23565 349.938281 
L 469.23565 23.558281 
" clip-path="url(#pb8664278c4)" style="fill: none; stroke: #d8d4cc; stroke-opacity: 0.6; stroke-width: 0.5; stroke-linecap: square"/>
     </g>
     <g id="line2d_12">
      <g>
       <use xlink:href="#m22aeb80215" x="469.23565" y="349.938281" style="fill: #6b6b6b; stroke: #6b6b6b; stroke-width: 0.8"/>
      </g>
     </g>
     <g id="text_6">
      <!-- 50000 -->
      <g style="fill: #1a1a1a" transform="translate(453.3294 364.036719) scale(0.1 -0.1)">
       <defs>
        <path id="DejaVuSans-35" d="M 691 4666 
L 3169 4666 
L 3169 4134 
L 1269 4134 
L 1269 2991 
Q 1406 3038 1543 3061 
Q 1681 3084 1819 3084 
Q 2600 3084 3056 2656 
Q 3513 2228 3513 1497 
Q 3513 744 3044 326 
Q 2575 -91 1722 -91 
Q 1428 -91 1123 -41 
Q 819 9 494 109 
L 494 744 
Q 775 591 1075 516 
Q 1375 441 1709 441 
Q 2250 441 2565 725 
Q 2881 1009 2881 1497 
Q 2881 1984 2565 2268 
Q 2250 2553 1709 2553 
Q 1456 2553 1204 2497 
Q 953 2441 691 2322 
L 691 4666 
z
" transform="scale(0.015625)"/>
       </defs>
       <use xlink:href="#DejaVuSans-35"/>
       <use xlink:href="#DejaVuSans-30" x="63.623047"/>
       <use xlink:href="#DejaVuSans-30" x="127.246094"/>
       <use xlink:href="#DejaVuSans-30" x="190.869141"/>
       <use xlink:href="#DejaVuSans-30" x="254.492188"/>
      </g>
     </g>
    </g>
    <g id="text_7">
     <!-- Training step -->
     <g style="fill: #1a1a1a" transform="translate(232.337063 378.474688) scale(0.11 -0.11)">
      <defs>
       <path id="DejaVuSans-54" d="M -19 4666 
L 3928 4666 
L 3928 4134 
L 2272 4134 
L 2272 0 
L 1638 0 
L 1638 4134 
L -19 4134 
L -19 4666 
z
" transform="scale(0.015625)"/>
       <path id="DejaVuSans-72" d="M 2631 2963 
Q 2534 3019 2420 3045 
Q 2306 3072 2169 3072 
Q 1681 3072 1420 2755 
Q 1159 2438 1159 1844 
L 1159 0 
L 581 0 
L 581 3500 
L 1159 3500 
L 1159 2956 
Q 1341 3275 1631 3429 
Q 1922 3584 2338 3584 
Q 2397 3584 2469 3576 
Q 2541 3569 2628 3553 
L 2631 2963 
z
" transform="scale(0.015625)"/>
       <path id="DejaVuSans-61" d="M 2194 1759 
Q 1497 1759 1228 1600 
Q 959 1441 959 1056 
Q 959 750 1161 570 
Q 1363 391 1709 391 
Q 2188 391 2477 730 
Q 2766 1069 2766 1631 
L 2766 1759 
L 2194 1759 
z
M 3341 1997 
L 3341 0 
L 2766 0 
L 2766 531 
Q 2569 213 2275 61 
Q 1981 -91 1556 -91 
Q 1019 -91 701 211 
Q 384 513 384 1019 
Q 384 1609 779 1909 
Q 1175 2209 1959 2209 
L 2766 2209 
L 2766 2266 
Q 2766 2663 2505 2880 
Q 2244 3097 1772 3097 
Q 1472 3097 1187 3025 
Q 903 2953 641 2809 
L 641 3341 
Q 956 3463 1253 3523 
Q 1550 3584 1831 3584 
Q 2591 3584 2966 3190 
Q 3341 2797 3341 1997 
z
" transform="scale(0.015625)"/>
       <path id="DejaVuSans-69" d="M 603 3500 
L 1178 3500 
L 1178 0 
L 603 0 
L 603 3500 
z
M 603 4863 
L 1178 4863 
L 1178 4134 
L 603 4134 
L 603 4863 
z
" transform="scale(0.015625)"/>
       <path id="DejaVuSans-6e" d="M 3513 2113 
L 3513 0 
L 2938 0 
L 2938 2094 
Q 2938 2591 2744 2837 
Q 2550 3084 2163 3084 
Q 1697 3084 1428 2787 
Q 1159 2491 1159 1978 
L 1159 0 
L 581 0 
L 581 3500 
L 1159 3500 
L 1159 2956 
Q 1366 3272 1645 3428 
Q 1925 3584 2291 3584 
Q 2894 3584 3203 3211 
Q 3513 2838 3513 2113 
z
" transform="scale(0.015625)"/>
       <path id="DejaVuSans-67" d="M 2906 1791 
Q 2906 2416 2648 2759 
Q 2391 3103 1925 3103 
Q 1463 3103 1205 2759 
Q 947 2416 947 1791 
Q 947 1169 1205 825 
Q 1463 481 1925 481 
Q 2391 481 2648 825 
Q 2906 1169 2906 1791 
z
M 3481 434 
Q 3481 -459 3084 -895 
Q 2688 -1331 1869 -1331 
Q 1566 -1331 1297 -1286 
Q 1028 -1241 775 -1147 
L 775 -588 
Q 1028 -725 1275 -790 
Q 1522 -856 1778 -856 
Q 2344 -856 2625 -561 
Q 2906 -266 2906 331 
L 2906 616 
Q 2728 306 2450 153 
Q 2172 0 1784 0 
Q 1141 0 747 490 
Q 353 981 353 1791 
Q 353 2603 747 3093 
Q 1141 3584 1784 3584 
Q 2172 3584 2450 3431 
Q 2728 3278 2906 2969 
L 2906 3500 
L 3481 3500 
L 3481 434 
z
" transform="scale(0.015625)"/>
       <path id="DejaVuSans-20" transform="scale(0.015625)"/>
       <path id="DejaVuSans-73" d="M 2834 3397 
L 2834 2853 
Q 2591 2978 2328 3040 
Q 2066 3103 1784 3103 
Q 1356 3103 1142 2972 
Q 928 2841 928 2578 
Q 928 2378 1081 2264 
Q 1234 2150 1697 2047 
L 1894 2003 
Q 2506 1872 2764 1633 
Q 3022 1394 3022 966 
Q 3022 478 2636 193 
Q 2250 -91 1575 -91 
Q 1294 -91 989 -36 
Q 684 19 347 128 
L 347 722 
Q 666 556 975 473 
Q 1284 391 1588 391 
Q 1994 391 2212 530 
Q 2431 669 2431 922 
Q 2431 1156 2273 1281 
Q 2116 1406 1581 1522 
L 1381 1569 
Q 847 1681 609 1914 
Q 372 2147 372 2553 
Q 372 3047 722 3315 
Q 1072 3584 1716 3584 
Q 2034 3584 2315 3537 
Q 2597 3491 2834 3397 
z
" transform="scale(0.015625)"/>
       <path id="DejaVuSans-74" d="M 1172 4494 
L 1172 3500 
L 2356 3500 
L 2356 3053 
L 1172 3053 
L 1172 1153 
Q 1172 725 1289 603 
Q 1406 481 1766 481 
L 2356 481 
L 2356 0 
L 1766 0 
Q 1100 0 847 248 
Q 594 497 594 1153 
L 594 3053 
L 172 3053 
L 172 3500 
L 594 3500 
L 594 4494 
L 1172 4494 
z
" transform="scale(0.015625)"/>
       <path id="DejaVuSans-65" d="M 3597 1894 
L 3597 1613 
L 953 1613 
Q 991 1019 1311 708 
Q 1631 397 2203 397 
Q 2534 397 2845 478 
Q 3156 559 3463 722 
L 3463 178 
Q 3153 47 2828 -22 
Q 2503 -91 2169 -91 
Q 1331 -91 842 396 
Q 353 884 353 1716 
Q 353 2575 817 3079 
Q 1281 3584 2069 3584 
Q 2775 3584 3186 3129 
Q 3597 2675 3597 1894 
z
M 3022 2063 
Q 3016 2534 2758 2815 
Q 2500 3097 2075 3097 
Q 1594 3097 1305 2825 
Q 1016 2553 972 2059 
L 3022 2063 
z
" transform="scale(0.015625)"/>
       <path id="DejaVuSans-70" d="M 1159 525 
L 1159 -1331 
L 581 -1331 
L 581 3500 
L 1159 3500 
L 1159 2969 
Q 1341 3281 1617 3432 
Q 1894 3584 2278 3584 
Q 2916 3584 3314 3078 
Q 3713 2572 3713 1747 
Q 3713 922 3314 415 
Q 2916 -91 2278 -91 
Q 1894 -91 1617 61 
Q 1341 213 1159 525 
z
M 3116 1747 
Q 3116 2381 2855 2742 
Q 2594 3103 2138 3103 
Q 1681 3103 1420 2742 
Q 1159 2381 1159 1747 
Q 1159 1113 1420 752 
Q 1681 391 2138 391 
Q 2594 391 2855 752 
Q 3116 1113 3116 1747 
z
" transform="scale(0.015625)"/>
      </defs>
      <use xlink:href="#DejaVuSans-54"/>
      <use xlink:href="#DejaVuSans-72" x="46.333984"/>
      <use xlink:href="#DejaVuSans-61" x="87.447266"/>
      <use xlink:href="#DejaVuSans-69" x="148.726562"/>
      <use xlink:href="#DejaVuSans-6e" x="176.509766"/>
      <use xlink:href="#DejaVuSans-69" x="239.888672"/>
      <use xlink:href="#DejaVuSans-6e" x="267.671875"/>
      <use xlink:href="#DejaVuSans-67" x="331.050781"/>
      <use xlink:href="#DejaVuSans-20" x="394.527344"/>
      <use xlink:href="#DejaVuSans-73" x="426.314453"/>
      <use xlink:href="#DejaVuSans-74" x="478.414062"/>
      <use xlink:href="#DejaVuSans-65" x="517.623047"/>
      <use xlink:href="#DejaVuSans-70" x="579.146484"/>
     </g>
    </g>
   </g>
   <g id="matplotlib.axis_2">
    <g id="ytick_1">
     <g id="line2d_13">
      <path d="M 45.97 334.353162 
L 489.391158 334.353162 
" clip-path="url(#pb8664278c4)" style="fill: none; stroke: #d8d4cc; stroke-opacity: 0.6; stroke-width: 0.5; stroke-linecap: square"/>
     </g>
     <g id="line2d_14">
      <defs>
       <path id="me9b3c4cd9b" d="M 0 0 
L -3 0 
" style="stroke: #6b6b6b; stroke-width: 0.8"/>
      </defs>
      <g>
       <use xlink:href="#me9b3c4cd9b" x="45.97" y="334.353162" style="fill: #6b6b6b; stroke: #6b6b6b; stroke-width: 0.8"/>
      </g>
     </g>
     <g id="text_8">
      <!-- $\mathdefault{10^{0}}$ -->
      <g style="fill: #1a1a1a" transform="translate(21.87 338.152381) scale(0.1 -0.1)">
       <use xlink:href="#DejaVuSans-31" transform="translate(0 0.765625)"/>
       <use xlink:href="#DejaVuSans-30" transform="translate(63.623047 0.765625)"/>
       <use xlink:href="#DejaVuSans-30" transform="translate(128.203125 39.046875) scale(0.7)"/>
      </g>
     </g>
    </g>
    <g id="ytick_2">
     <g id="line2d_15">
      <path d="M 45.97 282.580519 
L 489.391158 282.580519 
" clip-path="url(#pb8664278c4)" style="fill: none; stroke: #d8d4cc; stroke-opacity: 0.6; stroke-width: 0.5; stroke-linecap: square"/>
     </g>
     <g id="line2d_16">
      <g>
       <use xlink:href="#me9b3c4cd9b" x="45.97" y="282.580519" style="fill: #6b6b6b; stroke: #6b6b6b; stroke-width: 0.8"/>
      </g>
     </g>
     <g id="text_9">
      <!-- $\mathdefault{10^{1}}$ -->
      <g style="fill: #1a1a1a" transform="translate(21.87 286.379737) scale(0.1 -0.1)">
       <use xlink:href="#DejaVuSans-31" transform="translate(0 0.684375)"/>
       <use xlink:href="#DejaVuSans-30" transform="translate(63.623047 0.684375)"/>
       <use xlink:href="#DejaVuSans-31" transform="translate(128.203125 38.965625) scale(0.7)"/>
      </g>
     </g>
    </g>
    <g id="ytick_3">
     <g id="line2d_17">
      <path d="M 45.97 230.807875 
L 489.391158 230.807875 
" clip-path="url(#pb8664278c4)" style="fill: none; stroke: #d8d4cc; stroke-opacity: 0.6; stroke-width: 0.5; stroke-linecap: square"/>
     </g>
     <g id="line2d_18">
      <g>
       <use xlink:href="#me9b3c4cd9b" x="45.97" y="230.807875" style="fill: #6b6b6b; stroke: #6b6b6b; stroke-width: 0.8"/>
      </g>
     </g>
     <g id="text_10">
      <!-- $\mathdefault{10^{2}}$ -->
      <g style="fill: #1a1a1a" transform="translate(21.87 234.607093) scale(0.1 -0.1)">
       <use xlink:href="#DejaVuSans-31" transform="translate(0 0.765625)"/>
       <use xlink:href="#DejaVuSans-30" transform="translate(63.623047 0.765625)"/>
       <use xlink:href="#DejaVuSans-32" transform="translate(128.203125 39.046875) scale(0.7)"/>
      </g>
     </g>
    </g>
    <g id="ytick_4">
     <g id="line2d_19">
      <path d="M 45.97 179.035231 
L 489.391158 179.035231 
" clip-path="url(#pb8664278c4)" style="fill: none; stroke: #d8d4cc; stroke-opacity: 0.6; stroke-width: 0.5; stroke-linecap: square"/>
     </g>
     <g id="line2d_20">
      <g>
       <use xlink:href="#me9b3c4cd9b" x="45.97" y="179.035231" style="fill: #6b6b6b; stroke: #6b6b6b; stroke-width: 0.8"/>
      </g>
     </g>
     <g id="text_11">
      <!-- $\mathdefault{10^{3}}$ -->
      <g style="fill: #1a1a1a" transform="translate(21.87 182.83445) scale(0.1 -0.1)">
       <use xlink:href="#DejaVuSans-31" transform="translate(0 0.765625)"/>
       <use xlink:href="#DejaVuSans-30" transform="translate(63.623047 0.765625)"/>
       <use xlink:href="#DejaVuSans-33" transform="translate(128.203125 39.046875) scale(0.7)"/>
      </g>
     </g>
    </g>
    <g id="ytick_5">
     <g id="line2d_21">
      <path d="M 45.97 127.262587 
L 489.391158 127.262587 
" clip-path="url(#pb8664278c4)" style="fill: none; stroke: #d8d4cc; stroke-opacity: 0.6; stroke-width: 0.5; stroke-linecap: square"/>
     </g>
     <g id="line2d_22">
      <g>
       <use xlink:href="#me9b3c4cd9b" x="45.97" y="127.262587" style="fill: #6b6b6b; stroke: #6b6b6b; stroke-width: 0.8"/>
      </g>
     </g>
     <g id="text_12">
      <!-- $\mathdefault{10^{4}}$ -->
      <g style="fill: #1a1a1a" transform="translate(21.87 131.061806) scale(0.1 -0.1)">
       <use xlink:href="#DejaVuSans-31" transform="translate(0 0.684375)"/>
       <use xlink:href="#DejaVuSans-30" transform="translate(63.623047 0.684375)"/>
       <use xlink:href="#DejaVuSans-34" transform="translate(128.203125 38.965625) scale(0.7)"/>
      </g>
     </g>
    </g>
    <g id="ytick_6">
     <g id="line2d_23">
      <path d="M 45.97 75.489943 
L 489.391158 75.489943 
" clip-path="url(#pb8664278c4)" style="fill: none; stroke: #d8d4cc; stroke-opacity: 0.6; stroke-width: 0.5; stroke-linecap: square"/>
     </g>
     <g id="line2d_24">
      <g>
       <use xlink:href="#me9b3c4cd9b" x="45.97" y="75.489943" style="fill: #6b6b6b; stroke: #6b6b6b; stroke-width: 0.8"/>
      </g>
     </g>
     <g id="text_13">
      <!-- $\mathdefault{10^{5}}$ -->
      <g style="fill: #1a1a1a" transform="translate(21.87 79.289162) scale(0.1 -0.1)">
       <use xlink:href="#DejaVuSans-31" transform="translate(0 0.684375)"/>
       <use xlink:href="#DejaVuSans-30" transform="translate(63.623047 0.684375)"/>
       <use xlink:href="#DejaVuSans-35" transform="translate(128.203125 38.965625) scale(0.7)"/>
      </g>
     </g>
    </g>
    <g id="ytick_7">
     <g id="line2d_25">
      <path d="M 45.97 23.717299 
L 489.391158 23.717299 
" clip-path="url(#pb8664278c4)" style="fill: none; stroke: #d8d4cc; stroke-opacity: 0.6; stroke-width: 0.5; stroke-linecap: square"/>
     </g>
     <g id="line2d_26">
      <g>
       <use xlink:href="#me9b3c4cd9b" x="45.97" y="23.717299" style="fill: #6b6b6b; stroke: #6b6b6b; stroke-width: 0.8"/>
      </g>
     </g>
     <g id="text_14">
      <!-- $\mathdefault{10^{6}}$ -->
      <g style="fill: #1a1a1a" transform="translate(21.87 27.516518) scale(0.1 -0.1)">
       <defs>
        <path id="DejaVuSans-36" d="M 2113 2584 
Q 1688 2584 1439 2293 
Q 1191 2003 1191 1497 
Q 1191 994 1439 701 
Q 1688 409 2113 409 
Q 2538 409 2786 701 
Q 3034 994 3034 1497 
Q 3034 2003 2786 2293 
Q 2538 2584 2113 2584 
z
M 3366 4563 
L 3366 3988 
Q 3128 4100 2886 4159 
Q 2644 4219 2406 4219 
Q 1781 4219 1451 3797 
Q 1122 3375 1075 2522 
Q 1259 2794 1537 2939 
Q 1816 3084 2150 3084 
Q 2853 3084 3261 2657 
Q 3669 2231 3669 1497 
Q 3669 778 3244 343 
Q 2819 -91 2113 -91 
Q 1303 -91 875 529 
Q 447 1150 447 2328 
Q 447 3434 972 4092 
Q 1497 4750 2381 4750 
Q 2619 4750 2861 4703 
Q 3103 4656 3366 4563 
z
" transform="scale(0.015625)"/>
       </defs>
       <use xlink:href="#DejaVuSans-31" transform="translate(0 0.765625)"/>
       <use xlink:href="#DejaVuSans-30" transform="translate(63.623047 0.765625)"/>
       <use xlink:href="#DejaVuSans-36" transform="translate(128.203125 39.046875) scale(0.7)"/>
      </g>
     </g>
    </g>
    <g id="ytick_8">
     <g id="line2d_27">
      <path d="M 45.97 349.938281 
L 489.391158 349.938281 
" clip-path="url(#pb8664278c4)" style="fill: none; stroke: #d8d4cc; stroke-opacity: 0.6; stroke-width: 0.5; stroke-linecap: square"/>
     </g>
     <g id="line2d_28">
      <defs>
       <path id="maf8c3a5e6a" d="M 0 0 
L -2 0 
" style="stroke: #000000; stroke-width: 0.6"/>
      </defs>
      <g>
       <use xlink:href="#maf8c3a5e6a" x="45.97" y="349.938281" style="stroke: #000000; stroke-width: 0.6"/>
      </g>
     </g>
    </g>
    <g id="ytick_9">
     <g id="line2d_29">
      <path d="M 45.97 345.838859 
L 489.391158 345.838859 
" clip-path="url(#pb8664278c4)" style="fill: none; stroke: #d8d4cc; stroke-opacity: 0.6; stroke-width: 0.5; stroke-linecap: square"/>
     </g>
     <g id="line2d_30">
      <g>
       <use xlink:href="#maf8c3a5e6a" x="45.97" y="345.838859" style="stroke: #000000; stroke-width: 0.6"/>
      </g>
     </g>
    </g>
    <g id="ytick_10">
     <g id="line2d_31">
      <path d="M 45.97 342.372846 
L 489.391158 342.372846 
" clip-path="url(#pb8664278c4)" style="fill: none; stroke: #d8d4cc; stroke-opacity: 0.6; stroke-width: 0.5; stroke-linecap: square"/>
     </g>
     <g id="line2d_32">
      <g>
       <use xlink:href="#maf8c3a5e6a" x="45.97" y="342.372846" style="stroke: #000000; stroke-width: 0.6"/>
      </g>
     </g>
    </g>
    <g id="ytick_11">
     <g id="line2d_33">
      <path d="M 45.97 339.37045 
L 489.391158 339.37045 
" clip-path="url(#pb8664278c4)" style="fill: none; stroke: #d8d4cc; stroke-opacity: 0.6; stroke-width: 0.5; stroke-linecap: square"/>
     </g>
     <g id="line2d_34">
      <g>
       <use xlink:href="#maf8c3a5e6a" x="45.97" y="339.37045" style="stroke: #000000; stroke-width: 0.6"/>
      </g>
     </g>
    </g>
    <g id="ytick_12">
     <g id="line2d_35">
      <path d="M 45.97 336.722149 
L 489.391158 336.722149 
" clip-path="url(#pb8664278c4)" style="fill: none; stroke: #d8d4cc; stroke-opacity: 0.6; stroke-width: 0.5; stroke-linecap: square"/>
     </g>
     <g id="line2d_36">
      <g>
       <use xlink:href="#maf8c3a5e6a" x="45.97" y="336.722149" style="stroke: #000000; stroke-width: 0.6"/>
      </g>
     </g>
    </g>
    <g id="ytick_13">
     <g id="line2d_37">
      <path d="M 45.97 318.768044 
L 489.391158 318.768044 
" clip-path="url(#pb8664278c4)" style="fill: none; stroke: #d8d4cc; stroke-opacity: 0.6; stroke-width: 0.5; stroke-linecap: square"/>
     </g>
     <g id="line2d_38">
      <g>
       <use xlink:href="#maf8c3a5e6a" x="45.97" y="318.768044" style="stroke: #000000; stroke-width: 0.6"/>
      </g>
     </g>
    </g>
    <g id="ytick_14">
     <g id="line2d_39">
      <path d="M 45.97 309.651334 
L 489.391158 309.651334 
" clip-path="url(#pb8664278c4)" style="fill: none; stroke: #d8d4cc; stroke-opacity: 0.6; stroke-width: 0.5; stroke-linecap: square"/>
     </g>
     <g id="line2d_40">
      <g>
       <use xlink:href="#maf8c3a5e6a" x="45.97" y="309.651334" style="stroke: #000000; stroke-width: 0.6"/>
      </g>
     </g>
    </g>
    <g id="ytick_15">
     <g id="line2d_41">
      <path d="M 45.97 303.182925 
L 489.391158 303.182925 
" clip-path="url(#pb8664278c4)" style="fill: none; stroke: #d8d4cc; stroke-opacity: 0.6; stroke-width: 0.5; stroke-linecap: square"/>
     </g>
     <g id="line2d_42">
      <g>
       <use xlink:href="#maf8c3a5e6a" x="45.97" y="303.182925" style="stroke: #000000; stroke-width: 0.6"/>
      </g>
     </g>
    </g>
    <g id="ytick_16">
     <g id="line2d_43">
      <path d="M 45.97 298.165637 
L 489.391158 298.165637 
" clip-path="url(#pb8664278c4)" style="fill: none; stroke: #d8d4cc; stroke-opacity: 0.6; stroke-width: 0.5; stroke-linecap: square"/>
     </g>
     <g id="line2d_44">
      <g>
       <use xlink:href="#maf8c3a5e6a" x="45.97" y="298.165637" style="stroke: #000000; stroke-width: 0.6"/>
      </g>
     </g>
    </g>
    <g id="ytick_17">
     <g id="line2d_45">
      <path d="M 45.97 294.066215 
L 489.391158 294.066215 
" clip-path="url(#pb8664278c4)" style="fill: none; stroke: #d8d4cc; stroke-opacity: 0.6; stroke-width: 0.5; stroke-linecap: square"/>
     </g>
     <g id="line2d_46">
      <g>
       <use xlink:href="#maf8c3a5e6a" x="45.97" y="294.066215" style="stroke: #000000; stroke-width: 0.6"/>
      </g>
     </g>
    </g>
    <g id="ytick_18">
     <g id="line2d_47">
      <path d="M 45.97 290.600203 
L 489.391158 290.600203 
" clip-path="url(#pb8664278c4)" style="fill: none; stroke: #d8d4cc; stroke-opacity: 0.6; stroke-width: 0.5; stroke-linecap: square"/>
     </g>
     <g id="line2d_48">
      <g>
       <use xlink:href="#maf8c3a5e6a" x="45.97" y="290.600203" style="stroke: #000000; stroke-width: 0.6"/>
      </g>
     </g>
    </g>
    <g id="ytick_19">
     <g id="line2d_49">
      <path d="M 45.97 287.597806 
L 489.391158 287.597806 
" clip-path="url(#pb8664278c4)" style="fill: none; stroke: #d8d4cc; stroke-opacity: 0.6; stroke-width: 0.5; stroke-linecap: square"/>
     </g>
     <g id="line2d_50">
      <g>
       <use xlink:href="#maf8c3a5e6a" x="45.97" y="287.597806" style="stroke: #000000; stroke-width: 0.6"/>
      </g>
     </g>
    </g>
    <g id="ytick_20">
     <g id="line2d_51">
      <path d="M 45.97 284.949505 
L 489.391158 284.949505 
" clip-path="url(#pb8664278c4)" style="fill: none; stroke: #d8d4cc; stroke-opacity: 0.6; stroke-width: 0.5; stroke-linecap: square"/>
     </g>
     <g id="line2d_52">
      <g>
       <use xlink:href="#maf8c3a5e6a" x="45.97" y="284.949505" style="stroke: #000000; stroke-width: 0.6"/>
      </g>
     </g>
    </g>
    <g id="ytick_21">
     <g id="line2d_53">
      <path d="M 45.97 266.9954 
L 489.391158 266.9954 
" clip-path="url(#pb8664278c4)" style="fill: none; stroke: #d8d4cc; stroke-opacity: 0.6; stroke-width: 0.5; stroke-linecap: square"/>
     </g>
     <g id="line2d_54">
      <g>
       <use xlink:href="#maf8c3a5e6a" x="45.97" y="266.9954" style="stroke: #000000; stroke-width: 0.6"/>
      </g>
     </g>
    </g>
    <g id="ytick_22">
     <g id="line2d_55">
      <path d="M 45.97 257.87869 
L 489.391158 257.87869 
" clip-path="url(#pb8664278c4)" style="fill: none; stroke: #d8d4cc; stroke-opacity: 0.6; stroke-width: 0.5; stroke-linecap: square"/>
     </g>
     <g id="line2d_56">
      <g>
       <use xlink:href="#maf8c3a5e6a" x="45.97" y="257.87869" style="stroke: #000000; stroke-width: 0.6"/>
      </g>
     </g>
    </g>
    <g id="ytick_23">
     <g id="line2d_57">
      <path d="M 45.97 251.410281 
L 489.391158 251.410281 
" clip-path="url(#pb8664278c4)" style="fill: none; stroke: #d8d4cc; stroke-opacity: 0.6; stroke-width: 0.5; stroke-linecap: square"/>
     </g>
     <g id="line2d_58">
      <g>
       <use xlink:href="#maf8c3a5e6a" x="45.97" y="251.410281" style="stroke: #000000; stroke-width: 0.6"/>
      </g>
     </g>
    </g>
    <g id="ytick_24">
     <g id="line2d_59">
      <path d="M 45.97 246.392993 
L 489.391158 246.392993 
" clip-path="url(#pb8664278c4)" style="fill: none; stroke: #d8d4cc; stroke-opacity: 0.6; stroke-width: 0.5; stroke-linecap: square"/>
     </g>
     <g id="line2d_60">
      <g>
       <use xlink:href="#maf8c3a5e6a" x="45.97" y="246.392993" style="stroke: #000000; stroke-width: 0.6"/>
      </g>
     </g>
    </g>
    <g id="ytick_25">
     <g id="line2d_61">
      <path d="M 45.97 242.293571 
L 489.391158 242.293571 
" clip-path="url(#pb8664278c4)" style="fill: none; stroke: #d8d4cc; stroke-opacity: 0.6; stroke-width: 0.5; stroke-linecap: square"/>
     </g>
     <g id="line2d_62">
      <g>
       <use xlink:href="#maf8c3a5e6a" x="45.97" y="242.293571" style="stroke: #000000; stroke-width: 0.6"/>
      </g>
     </g>
    </g>
    <g id="ytick_26">
     <g id="line2d_63">
      <path d="M 45.97 238.827559 
L 489.391158 238.827559 
" clip-path="url(#pb8664278c4)" style="fill: none; stroke: #d8d4cc; stroke-opacity: 0.6; stroke-width: 0.5; stroke-linecap: square"/>
     </g>
     <g id="line2d_64">
      <g>
       <use xlink:href="#maf8c3a5e6a" x="45.97" y="238.827559" style="stroke: #000000; stroke-width: 0.6"/>
      </g>
     </g>
    </g>
    <g id="ytick_27">
     <g id="line2d_65">
      <path d="M 45.97 235.825162 
L 489.391158 235.825162 
" clip-path="url(#pb8664278c4)" style="fill: none; stroke: #d8d4cc; stroke-opacity: 0.6; stroke-width: 0.5; stroke-linecap: square"/>
     </g>
     <g id="line2d_66">
      <g>
       <use xlink:href="#maf8c3a5e6a" x="45.97" y="235.825162" style="stroke: #000000; stroke-width: 0.6"/>
      </g>
     </g>
    </g>
    <g id="ytick_28">
     <g id="line2d_67">
      <path d="M 45.97 233.176861 
L 489.391158 233.176861 
" clip-path="url(#pb8664278c4)" style="fill: none; stroke: #d8d4cc; stroke-opacity: 0.6; stroke-width: 0.5; stroke-linecap: square"/>
     </g>
     <g id="line2d_68">
      <g>
       <use xlink:href="#maf8c3a5e6a" x="45.97" y="233.176861" style="stroke: #000000; stroke-width: 0.6"/>
      </g>
     </g>
    </g>
    <g id="ytick_29">
     <g id="line2d_69">
      <path d="M 45.97 215.222756 
L 489.391158 215.222756 
" clip-path="url(#pb8664278c4)" style="fill: none; stroke: #d8d4cc; stroke-opacity: 0.6; stroke-width: 0.5; stroke-linecap: square"/>
     </g>
     <g id="line2d_70">
      <g>
       <use xlink:href="#maf8c3a5e6a" x="45.97" y="215.222756" style="stroke: #000000; stroke-width: 0.6"/>
      </g>
     </g>
    </g>
    <g id="ytick_30">
     <g id="line2d_71">
      <path d="M 45.97 206.106046 
L 489.391158 206.106046 
" clip-path="url(#pb8664278c4)" style="fill: none; stroke: #d8d4cc; stroke-opacity: 0.6; stroke-width: 0.5; stroke-linecap: square"/>
     </g>
     <g id="line2d_72">
      <g>
       <use xlink:href="#maf8c3a5e6a" x="45.97" y="206.106046" style="stroke: #000000; stroke-width: 0.6"/>
      </g>
     </g>
    </g>
    <g id="ytick_31">
     <g id="line2d_73">
      <path d="M 45.97 199.637637 
L 489.391158 199.637637 
" clip-path="url(#pb8664278c4)" style="fill: none; stroke: #d8d4cc; stroke-opacity: 0.6; stroke-width: 0.5; stroke-linecap: square"/>
     </g>
     <g id="line2d_74">
      <g>
       <use xlink:href="#maf8c3a5e6a" x="45.97" y="199.637637" style="stroke: #000000; stroke-width: 0.6"/>
      </g>
     </g>
    </g>
    <g id="ytick_32">
     <g id="line2d_75">
      <path d="M 45.97 194.62035 
L 489.391158 194.62035 
" clip-path="url(#pb8664278c4)" style="fill: none; stroke: #d8d4cc; stroke-opacity: 0.6; stroke-width: 0.5; stroke-linecap: square"/>
     </g>
     <g id="line2d_76">
      <g>
       <use xlink:href="#maf8c3a5e6a" x="45.97" y="194.62035" style="stroke: #000000; stroke-width: 0.6"/>
      </g>
     </g>
    </g>
    <g id="ytick_33">
     <g id="line2d_77">
      <path d="M 45.97 190.520927 
L 489.391158 190.520927 
" clip-path="url(#pb8664278c4)" style="fill: none; stroke: #d8d4cc; stroke-opacity: 0.6; stroke-width: 0.5; stroke-linecap: square"/>
     </g>
     <g id="line2d_78">
      <g>
       <use xlink:href="#maf8c3a5e6a" x="45.97" y="190.520927" style="stroke: #000000; stroke-width: 0.6"/>
      </g>
     </g>
    </g>
    <g id="ytick_34">
     <g id="line2d_79">
      <path d="M 45.97 187.054915 
L 489.391158 187.054915 
" clip-path="url(#pb8664278c4)" style="fill: none; stroke: #d8d4cc; stroke-opacity: 0.6; stroke-width: 0.5; stroke-linecap: square"/>
     </g>
     <g id="line2d_80">
      <g>
       <use xlink:href="#maf8c3a5e6a" x="45.97" y="187.054915" style="stroke: #000000; stroke-width: 0.6"/>
      </g>
     </g>
    </g>
    <g id="ytick_35">
     <g id="line2d_81">
      <path d="M 45.97 184.052518 
L 489.391158 184.052518 
" clip-path="url(#pb8664278c4)" style="fill: none; stroke: #d8d4cc; stroke-opacity: 0.6; stroke-width: 0.5; stroke-linecap: square"/>
     </g>
     <g id="line2d_82">
      <g>
       <use xlink:href="#maf8c3a5e6a" x="45.97" y="184.052518" style="stroke: #000000; stroke-width: 0.6"/>
      </g>
     </g>
    </g>
    <g id="ytick_36">
     <g id="line2d_83">
      <path d="M 45.97 181.404217 
L 489.391158 181.404217 
" clip-path="url(#pb8664278c4)" style="fill: none; stroke: #d8d4cc; stroke-opacity: 0.6; stroke-width: 0.5; stroke-linecap: square"/>
     </g>
     <g id="line2d_84">
      <g>
       <use xlink:href="#maf8c3a5e6a" x="45.97" y="181.404217" style="stroke: #000000; stroke-width: 0.6"/>
      </g>
     </g>
    </g>
    <g id="ytick_37">
     <g id="line2d_85">
      <path d="M 45.97 163.450112 
L 489.391158 163.450112 
" clip-path="url(#pb8664278c4)" style="fill: none; stroke: #d8d4cc; stroke-opacity: 0.6; stroke-width: 0.5; stroke-linecap: square"/>
     </g>
     <g id="line2d_86">
      <g>
       <use xlink:href="#maf8c3a5e6a" x="45.97" y="163.450112" style="stroke: #000000; stroke-width: 0.6"/>
      </g>
     </g>
    </g>
    <g id="ytick_38">
     <g id="line2d_87">
      <path d="M 45.97 154.333402 
L 489.391158 154.333402 
" clip-path="url(#pb8664278c4)" style="fill: none; stroke: #d8d4cc; stroke-opacity: 0.6; stroke-width: 0.5; stroke-linecap: square"/>
     </g>
     <g id="line2d_88">
      <g>
       <use xlink:href="#maf8c3a5e6a" x="45.97" y="154.333402" style="stroke: #000000; stroke-width: 0.6"/>
      </g>
     </g>
    </g>
    <g id="ytick_39">
     <g id="line2d_89">
      <path d="M 45.97 147.864993 
L 489.391158 147.864993 
" clip-path="url(#pb8664278c4)" style="fill: none; stroke: #d8d4cc; stroke-opacity: 0.6; stroke-width: 0.5; stroke-linecap: square"/>
     </g>
     <g id="line2d_90">
      <g>
       <use xlink:href="#maf8c3a5e6a" x="45.97" y="147.864993" style="stroke: #000000; stroke-width: 0.6"/>
      </g>
     </g>
    </g>
    <g id="ytick_40">
     <g id="line2d_91">
      <path d="M 45.97 142.847706 
L 489.391158 142.847706 
" clip-path="url(#pb8664278c4)" style="fill: none; stroke: #d8d4cc; stroke-opacity: 0.6; stroke-width: 0.5; stroke-linecap: square"/>
     </g>
     <g id="line2d_92">
      <g>
       <use xlink:href="#maf8c3a5e6a" x="45.97" y="142.847706" style="stroke: #000000; stroke-width: 0.6"/>
      </g>
     </g>
    </g>
    <g id="ytick_41">
     <g id="line2d_93">
      <path d="M 45.97 138.748283 
L 489.391158 138.748283 
" clip-path="url(#pb8664278c4)" style="fill: none; stroke: #d8d4cc; stroke-opacity: 0.6; stroke-width: 0.5; stroke-linecap: square"/>
     </g>
     <g id="line2d_94">
      <g>
       <use xlink:href="#maf8c3a5e6a" x="45.97" y="138.748283" style="stroke: #000000; stroke-width: 0.6"/>
      </g>
     </g>
    </g>
    <g id="ytick_42">
     <g id="line2d_95">
      <path d="M 45.97 135.282271 
L 489.391158 135.282271 
" clip-path="url(#pb8664278c4)" style="fill: none; stroke: #d8d4cc; stroke-opacity: 0.6; stroke-width: 0.5; stroke-linecap: square"/>
     </g>
     <g id="line2d_96">
      <g>
       <use xlink:href="#maf8c3a5e6a" x="45.97" y="135.282271" style="stroke: #000000; stroke-width: 0.6"/>
      </g>
     </g>
    </g>
    <g id="ytick_43">
     <g id="line2d_97">
      <path d="M 45.97 132.279875 
L 489.391158 132.279875 
" clip-path="url(#pb8664278c4)" style="fill: none; stroke: #d8d4cc; stroke-opacity: 0.6; stroke-width: 0.5; stroke-linecap: square"/>
     </g>
     <g id="line2d_98">
      <g>
       <use xlink:href="#maf8c3a5e6a" x="45.97" y="132.279875" style="stroke: #000000; stroke-width: 0.6"/>
      </g>
     </g>
    </g>
    <g id="ytick_44">
     <g id="line2d_99">
      <path d="M 45.97 129.631573 
L 489.391158 129.631573 
" clip-path="url(#pb8664278c4)" style="fill: none; stroke: #d8d4cc; stroke-opacity: 0.6; stroke-width: 0.5; stroke-linecap: square"/>
     </g>
     <g id="line2d_100">
      <g>
       <use xlink:href="#maf8c3a5e6a" x="45.97" y="129.631573" style="stroke: #000000; stroke-width: 0.6"/>
      </g>
     </g>
    </g>
    <g id="ytick_45">
     <g id="line2d_101">
      <path d="M 45.97 111.677468 
L 489.391158 111.677468 
" clip-path="url(#pb8664278c4)" style="fill: none; stroke: #d8d4cc; stroke-opacity: 0.6; stroke-width: 0.5; stroke-linecap: square"/>
     </g>
     <g id="line2d_102">
      <g>
       <use xlink:href="#maf8c3a5e6a" x="45.97" y="111.677468" style="stroke: #000000; stroke-width: 0.6"/>
      </g>
     </g>
    </g>
    <g id="ytick_46">
     <g id="line2d_103">
      <path d="M 45.97 102.560758 
L 489.391158 102.560758 
" clip-path="url(#pb8664278c4)" style="fill: none; stroke: #d8d4cc; stroke-opacity: 0.6; stroke-width: 0.5; stroke-linecap: square"/>
     </g>
     <g id="line2d_104">
      <g>
       <use xlink:href="#maf8c3a5e6a" x="45.97" y="102.560758" style="stroke: #000000; stroke-width: 0.6"/>
      </g>
     </g>
    </g>
    <g id="ytick_47">
     <g id="line2d_105">
      <path d="M 45.97 96.092349 
L 489.391158 96.092349 
" clip-path="url(#pb8664278c4)" style="fill: none; stroke: #d8d4cc; stroke-opacity: 0.6; stroke-width: 0.5; stroke-linecap: square"/>
     </g>
     <g id="line2d_106">
      <g>
       <use xlink:href="#maf8c3a5e6a" x="45.97" y="96.092349" style="stroke: #000000; stroke-width: 0.6"/>
      </g>
     </g>
    </g>
    <g id="ytick_48">
     <g id="line2d_107">
      <path d="M 45.97 91.075062 
L 489.391158 91.075062 
" clip-path="url(#pb8664278c4)" style="fill: none; stroke: #d8d4cc; stroke-opacity: 0.6; stroke-width: 0.5; stroke-linecap: square"/>
     </g>
     <g id="line2d_108">
      <g>
       <use xlink:href="#maf8c3a5e6a" x="45.97" y="91.075062" style="stroke: #000000; stroke-width: 0.6"/>
      </g>
     </g>
    </g>
    <g id="ytick_49">
     <g id="line2d_109">
      <path d="M 45.97 86.975639 
L 489.391158 86.975639 
" clip-path="url(#pb8664278c4)" style="fill: none; stroke: #d8d4cc; stroke-opacity: 0.6; stroke-width: 0.5; stroke-linecap: square"/>
     </g>
     <g id="line2d_110">
      <g>
       <use xlink:href="#maf8c3a5e6a" x="45.97" y="86.975639" style="stroke: #000000; stroke-width: 0.6"/>
      </g>
     </g>
    </g>
    <g id="ytick_50">
     <g id="line2d_111">
      <path d="M 45.97 83.509627 
L 489.391158 83.509627 
" clip-path="url(#pb8664278c4)" style="fill: none; stroke: #d8d4cc; stroke-opacity: 0.6; stroke-width: 0.5; stroke-linecap: square"/>
     </g>
     <g id="line2d_112">
      <g>
       <use xlink:href="#maf8c3a5e6a" x="45.97" y="83.509627" style="stroke: #000000; stroke-width: 0.6"/>
      </g>
     </g>
    </g>
    <g id="ytick_51">
     <g id="line2d_113">
      <path d="M 45.97 80.507231 
L 489.391158 80.507231 
" clip-path="url(#pb8664278c4)" style="fill: none; stroke: #d8d4cc; stroke-opacity: 0.6; stroke-width: 0.5; stroke-linecap: square"/>
     </g>
     <g id="line2d_114">
      <g>
       <use xlink:href="#maf8c3a5e6a" x="45.97" y="80.507231" style="stroke: #000000; stroke-width: 0.6"/>
      </g>
     </g>
    </g>
    <g id="ytick_52">
     <g id="line2d_115">
      <path d="M 45.97 77.858929 
L 489.391158 77.858929 
" clip-path="url(#pb8664278c4)" style="fill: none; stroke: #d8d4cc; stroke-opacity: 0.6; stroke-width: 0.5; stroke-linecap: square"/>
     </g>
     <g id="line2d_116">
      <g>
       <use xlink:href="#maf8c3a5e6a" x="45.97" y="77.858929" style="stroke: #000000; stroke-width: 0.6"/>
      </g>
     </g>
    </g>
    <g id="ytick_53">
     <g id="line2d_117">
      <path d="M 45.97 59.904824 
L 489.391158 59.904824 
" clip-path="url(#pb8664278c4)" style="fill: none; stroke: #d8d4cc; stroke-opacity: 0.6; stroke-width: 0.5; stroke-linecap: square"/>
     </g>
     <g id="line2d_118">
      <g>
       <use xlink:href="#maf8c3a5e6a" x="45.97" y="59.904824" style="stroke: #000000; stroke-width: 0.6"/>
      </g>
     </g>
    </g>
    <g id="ytick_54">
     <g id="line2d_119">
      <path d="M 45.97 50.788114 
L 489.391158 50.788114 
" clip-path="url(#pb8664278c4)" style="fill: none; stroke: #d8d4cc; stroke-opacity: 0.6; stroke-width: 0.5; stroke-linecap: square"/>
     </g>
     <g id="line2d_120">
      <g>
       <use xlink:href="#maf8c3a5e6a" x="45.97" y="50.788114" style="stroke: #000000; stroke-width: 0.6"/>
      </g>
     </g>
    </g>
    <g id="ytick_55">
     <g id="line2d_121">
      <path d="M 45.97 44.319706 
L 489.391158 44.319706 
" clip-path="url(#pb8664278c4)" style="fill: none; stroke: #d8d4cc; stroke-opacity: 0.6; stroke-width: 0.5; stroke-linecap: square"/>
     </g>
     <g id="line2d_122">
      <g>
       <use xlink:href="#maf8c3a5e6a" x="45.97" y="44.319706" style="stroke: #000000; stroke-width: 0.6"/>
      </g>
     </g>
    </g>
    <g id="ytick_56">
     <g id="line2d_123">
      <path d="M 45.97 39.302418 
L 489.391158 39.302418 
" clip-path="url(#pb8664278c4)" style="fill: none; stroke: #d8d4cc; stroke-opacity: 0.6; stroke-width: 0.5; stroke-linecap: square"/>
     </g>
     <g id="line2d_124">
      <g>
       <use xlink:href="#maf8c3a5e6a" x="45.97" y="39.302418" style="stroke: #000000; stroke-width: 0.6"/>
      </g>
     </g>
    </g>
    <g id="ytick_57">
     <g id="line2d_125">
      <path d="M 45.97 35.202996 
L 489.391158 35.202996 
" clip-path="url(#pb8664278c4)" style="fill: none; stroke: #d8d4cc; stroke-opacity: 0.6; stroke-width: 0.5; stroke-linecap: square"/>
     </g>
     <g id="line2d_126">
      <g>
       <use xlink:href="#maf8c3a5e6a" x="45.97" y="35.202996" style="stroke: #000000; stroke-width: 0.6"/>
      </g>
     </g>
    </g>
    <g id="ytick_58">
     <g id="line2d_127">
      <path d="M 45.97 31.736983 
L 489.391158 31.736983 
" clip-path="url(#pb8664278c4)" style="fill: none; stroke: #d8d4cc; stroke-opacity: 0.6; stroke-width: 0.5; stroke-linecap: square"/>
     </g>
     <g id="line2d_128">
      <g>
       <use xlink:href="#maf8c3a5e6a" x="45.97" y="31.736983" style="stroke: #000000; stroke-width: 0.6"/>
      </g>
     </g>
    </g>
    <g id="ytick_59">
     <g id="line2d_129">
      <path d="M 45.97 28.734587 
L 489.391158 28.734587 
" clip-path="url(#pb8664278c4)" style="fill: none; stroke: #d8d4cc; stroke-opacity: 0.6; stroke-width: 0.5; stroke-linecap: square"/>
     </g>
     <g id="line2d_130">
      <g>
       <use xlink:href="#maf8c3a5e6a" x="45.97" y="28.734587" style="stroke: #000000; stroke-width: 0.6"/>
      </g>
     </g>
    </g>
    <g id="ytick_60">
     <g id="line2d_131">
      <path d="M 45.97 26.086285 
L 489.391158 26.086285 
" clip-path="url(#pb8664278c4)" style="fill: none; stroke: #d8d4cc; stroke-opacity: 0.6; stroke-width: 0.5; stroke-linecap: square"/>
     </g>
     <g id="line2d_132">
      <g>
       <use xlink:href="#maf8c3a5e6a" x="45.97" y="26.086285" style="stroke: #000000; stroke-width: 0.6"/>
      </g>
     </g>
    </g>
    <g id="text_15">
     <!-- $\sigma_{\max}$ (attention weights) -->
     <g style="fill: #1a1a1a" transform="translate(15.56 253.078281) rotate(-90) scale(0.11 -0.11)">
      <defs>
       <path id="DejaVuSans-Oblique-3c3" d="M 2219 3044 
Q 1744 3044 1422 2700 
Q 1081 2341 969 1747 
Q 844 1119 1044 756 
Q 1241 397 1706 397 
Q 2166 397 2503 759 
Q 2844 1122 2966 1747 
Q 3075 2319 2881 2700 
Q 2700 3044 2219 3044 
z
M 2309 3503 
L 4219 3500 
L 4106 2925 
L 3463 2925 
Q 3706 2438 3575 1747 
Q 3406 888 2884 400 
Q 2359 -91 1609 -91 
Q 856 -91 525 400 
Q 194 888 363 1747 
Q 528 2609 1050 3097 
Q 1484 3503 2309 3503 
z
" transform="scale(0.015625)"/>
       <path id="DejaVuSans-6d" d="M 3328 2828 
Q 3544 3216 3844 3400 
Q 4144 3584 4550 3584 
Q 5097 3584 5394 3201 
Q 5691 2819 5691 2113 
L 5691 0 
L 5113 0 
L 5113 2094 
Q 5113 2597 4934 2840 
Q 4756 3084 4391 3084 
Q 3944 3084 3684 2787 
Q 3425 2491 3425 1978 
L 3425 0 
L 2847 0 
L 2847 2094 
Q 2847 2600 2669 2842 
Q 2491 3084 2119 3084 
Q 1678 3084 1418 2786 
Q 1159 2488 1159 1978 
L 1159 0 
L 581 0 
L 581 3500 
L 1159 3500 
L 1159 2956 
Q 1356 3278 1631 3431 
Q 1906 3584 2284 3584 
Q 2666 3584 2933 3390 
Q 3200 3197 3328 2828 
z
" transform="scale(0.015625)"/>
       <path id="DejaVuSans-78" d="M 3513 3500 
L 2247 1797 
L 3578 0 
L 2900 0 
L 1881 1375 
L 863 0 
L 184 0 
L 1544 1831 
L 300 3500 
L 978 3500 
L 1906 2253 
L 2834 3500 
L 3513 3500 
z
" transform="scale(0.015625)"/>
       <path id="DejaVuSans-28" d="M 1984 4856 
Q 1566 4138 1362 3434 
Q 1159 2731 1159 2009 
Q 1159 1288 1364 580 
Q 1569 -128 1984 -844 
L 1484 -844 
Q 1016 -109 783 600 
Q 550 1309 550 2009 
Q 550 2706 781 3412 
Q 1013 4119 1484 4856 
L 1984 4856 
z
" transform="scale(0.015625)"/>
       <path id="DejaVuSans-6f" d="M 1959 3097 
Q 1497 3097 1228 2736 
Q 959 2375 959 1747 
Q 959 1119 1226 758 
Q 1494 397 1959 397 
Q 2419 397 2687 759 
Q 2956 1122 2956 1747 
Q 2956 2369 2687 2733 
Q 2419 3097 1959 3097 
z
M 1959 3584 
Q 2709 3584 3137 3096 
Q 3566 2609 3566 1747 
Q 3566 888 3137 398 
Q 2709 -91 1959 -91 
Q 1206 -91 779 398 
Q 353 888 353 1747 
Q 353 2609 779 3096 
Q 1206 3584 1959 3584 
z
" transform="scale(0.015625)"/>
       <path id="DejaVuSans-77" d="M 269 3500 
L 844 3500 
L 1563 769 
L 2278 3500 
L 2956 3500 
L 3675 769 
L 4391 3500 
L 4966 3500 
L 4050 0 
L 3372 0 
L 2619 2869 
L 1863 0 
L 1184 0 
L 269 3500 
z
" transform="scale(0.015625)"/>
       <path id="DejaVuSans-68" d="M 3513 2113 
L 3513 0 
L 2938 0 
L 2938 2094 
Q 2938 2591 2744 2837 
Q 2550 3084 2163 3084 
Q 1697 3084 1428 2787 
Q 1159 2491 1159 1978 
L 1159 0 
L 581 0 
L 581 4863 
L 1159 4863 
L 1159 2956 
Q 1366 3272 1645 3428 
Q 1925 3584 2291 3584 
Q 2894 3584 3203 3211 
Q 3513 2838 3513 2113 
z
" transform="scale(0.015625)"/>
       <path id="DejaVuSans-29" d="M 513 4856 
L 1013 4856 
Q 1481 4119 1714 3412 
Q 1947 2706 1947 2009 
Q 1947 1309 1714 600 
Q 1481 -109 1013 -844 
L 513 -844 
Q 928 -128 1133 580 
Q 1338 1288 1338 2009 
Q 1338 2731 1133 3434 
Q 928 4138 513 4856 
z
" transform="scale(0.015625)"/>
      </defs>
      <use xlink:href="#DejaVuSans-Oblique-3c3" transform="translate(0 0.015625)"/>
      <use xlink:href="#DejaVuSans-6d" transform="translate(63.378906 -16.390625) scale(0.7)"/>
      <use xlink:href="#DejaVuSans-61" transform="translate(131.567383 -16.390625) scale(0.7)"/>
      <use xlink:href="#DejaVuSans-78" transform="translate(174.462891 -16.390625) scale(0.7)"/>
      <use xlink:href="#DejaVuSans-20" transform="translate(218.623047 0.015625)"/>
      <use xlink:href="#DejaVuSans-28" transform="translate(250.410156 0.015625)"/>
      <use xlink:href="#DejaVuSans-61" transform="translate(289.423828 0.015625)"/>
      <use xlink:href="#DejaVuSans-74" transform="translate(350.703125 0.015625)"/>
      <use xlink:href="#DejaVuSans-74" transform="translate(389.912109 0.015625)"/>
      <use xlink:href="#DejaVuSans-65" transform="translate(429.121094 0.015625)"/>
      <use xlink:href="#DejaVuSans-6e" transform="translate(490.644531 0.015625)"/>
      <use xlink:href="#DejaVuSans-74" transform="translate(554.023438 0.015625)"/>
      <use xlink:href="#DejaVuSans-69" transform="translate(593.232422 0.015625)"/>
      <use xlink:href="#DejaVuSans-6f" transform="translate(621.015625 0.015625)"/>
      <use xlink:href="#DejaVuSans-6e" transform="translate(682.197266 0.015625)"/>
      <use xlink:href="#DejaVuSans-20" transform="translate(745.576172 0.015625)"/>
      <use xlink:href="#DejaVuSans-77" transform="translate(777.363281 0.015625)"/>
      <use xlink:href="#DejaVuSans-65" transform="translate(859.150391 0.015625)"/>
      <use xlink:href="#DejaVuSans-69" transform="translate(920.673828 0.015625)"/>
      <use xlink:href="#DejaVuSans-67" transform="translate(948.457031 0.015625)"/>
      <use xlink:href="#DejaVuSans-68" transform="translate(1011.933594 0.015625)"/>
      <use xlink:href="#DejaVuSans-74" transform="translate(1075.3125 0.015625)"/>
      <use xlink:href="#DejaVuSans-73" transform="translate(1114.521484 0.015625)"/>
      <use xlink:href="#DejaVuSans-29" transform="translate(1166.621094 0.015625)"/>
     </g>
    </g>
   </g>
   <g id="line2d_133">
    <path d="M 66.125507 324.994524 
L 74.18771 318.011826 
L 82.249913 308.46949 
L 90.312116 301.193942 
L 98.374319 295.316071 
L 106.436521 289.527727 
L 114.498724 283.520205 
L 122.560927 277.990583 
L 130.62313 272.39598 
L 138.685333 266.614612 
L 146.747536 260.800887 
L 154.809739 254.927238 
L 162.871942 249.036294 
L 170.934144 243.142297 
L 178.996347 237.310085 
L 187.05855 231.519441 
L 195.120753 225.681685 
L 203.182956 219.823776 
L 211.245159 214.051352 
L 219.307362 208.352132 
L 227.369564 202.811927 
L 235.431767 197.406564 
L 243.49397 192.033687 
L 251.556173 186.936856 
L 259.618376 182.793863 
L 267.680579 179.7116 
L 275.742782 176.574862 
L 283.804985 173.574225 
L 291.867187 169.315923 
L 299.92939 164.975623 
L 307.991593 160.08025 
L 316.053796 153.796353 
L 324.115999 147.672596 
L 332.178202 141.690513 
L 340.240405 135.801989 
L 348.302607 129.741537 
L 356.36481 123.737068 
L 364.427013 117.844608 
L 372.489216 112.068309 
L 380.551419 106.339856 
L 388.613622 100.688136 
L 396.675825 94.994583 
L 404.738028 89.369601 
L 412.80023 83.819465 
L 420.862433 78.325719 
L 428.924636 72.814954 
L 436.986839 67.356006 
L 445.049042 61.932913 
L 453.111245 56.52183 
L 461.173448 51.144548 
L 469.23565 45.838989 
" clip-path="url(#pb8664278c4)" style="fill: none; stroke: #4a7bb7; stroke-width: 1.6; stroke-linecap: square"/>
   </g>
   <g id="line2d_134">
    <path d="M 66.125507 324.994524 
L 74.18771 318.905264 
L 82.249913 309.395992 
L 90.312116 302.099668 
L 98.374319 296.151868 
L 106.436521 290.199193 
L 114.498724 284.627102 
L 122.560927 279.200898 
L 130.62313 273.779434 
L 138.685333 267.834552 
L 146.747536 261.81089 
L 154.809739 255.877699 
L 162.871942 250.02273 
L 170.934144 244.326868 
L 178.996347 238.697501 
L 187.05855 233.050992 
L 195.120753 227.353563 
L 203.182956 221.564434 
L 211.245159 215.974593 
L 219.307362 210.443889 
L 227.369564 205.083938 
L 235.431767 199.949916 
L 243.49397 195.066785 
L 251.556173 190.461163 
L 259.618376 185.86086 
L 267.680579 180.989282 
L 275.742782 176.037138 
L 283.804985 171.18078 
L 291.867187 166.29847 
L 299.92939 161.606094 
L 307.991593 155.292546 
L 316.053796 148.944765 
L 324.115999 142.647051 
L 332.178202 136.456579 
L 340.240405 130.439263 
L 348.302607 124.572085 
L 356.36481 118.89018 
L 364.427013 113.393937 
L 372.489216 108.213351 
L 380.551419 103.300792 
L 388.613622 98.100569 
L 396.675825 92.478609 
L 404.738028 86.42558 
L 412.80023 80.29444 
L 420.862433 74.191086 
L 428.924636 68.070057 
L 436.986839 61.997173 
L 445.049042 56.006397 
L 453.111245 50.07003 
L 461.173448 44.197829 
L 469.23565 38.356797 
" clip-path="url(#pb8664278c4)" style="fill: none; stroke: #c25450; stroke-width: 1.6; stroke-linecap: square"/>
   </g>
   <g id="line2d_135">
    <path d="M 66.125507 334.188155 
L 74.18771 334.293261 
L 82.249913 334.293945 
L 90.312116 334.293576 
L 98.374319 334.29351 
L 106.436521 334.293028 
L 114.498724 334.292459 
L 122.560927 334.293603 
L 130.62313 334.29563 
L 138.685333 334.293558 
L 146.747536 334.2961 
L 154.809739 334.296969 
L 162.871942 334.299196 
L 170.934144 334.300405 
L 178.996347 334.299445 
L 187.05855 334.298728 
L 195.120753 334.299774 
L 203.182956 334.296504 
L 211.245159 334.295392 
L 219.307362 334.298226 
L 227.369564 334.29286 
L 235.431767 334.291852 
L 243.49397 334.291735 
L 251.556173 334.290291 
L 259.618376 334.293772 
L 267.680579 334.287937 
L 275.742782 334.286651 
L 283.804985 334.288434 
L 291.867187 334.289781 
L 299.92939 334.289802 
L 307.991593 334.290259 
L 316.053796 334.290684 
L 324.115999 334.307458 
L 332.178202 334.306503 
L 340.240405 334.294753 
L 348.302607 334.296627 
L 356.36481 334.298632 
L 364.427013 334.297031 
L 372.489216 334.293603 
L 380.551419 334.29147 
L 388.613622 334.291315 
L 396.675825 334.291671 
L 404.738028 334.290257 
L 412.80023 334.290192 
L 420.862433 334.288543 
L 428.924636 334.289227 
L 436.986839 334.290444 
L 445.049042 334.29077 
L 453.111245 334.291163 
L 461.173448 334.290059 
L 469.23565 334.291176 
" clip-path="url(#pb8664278c4)" style="fill: none; stroke: #e8a24c; stroke-width: 1.6; stroke-linecap: square"/>
   </g>
   <g id="line2d_136">
    <path d="M 66.125507 334.188155 
L 74.18771 334.293555 
L 82.249913 334.292905 
L 90.312116 334.293937 
L 98.374319 334.293467 
L 106.436521 334.293448 
L 114.498724 334.292112 
L 122.560927 334.293325 
L 130.62313 334.294587 
L 138.685333 334.292938 
L 146.747536 334.294897 
L 154.809739 334.297886 
L 162.871942 334.298049 
L 170.934144 334.297196 
L 178.996347 334.300747 
L 187.05855 334.297247 
L 195.120753 334.30386 
L 203.182956 334.297619 
L 211.245159 334.296346 
L 219.307362 334.299755 
L 227.369564 334.294694 
L 235.431767 334.292721 
L 243.49397 334.292007 
L 251.556173 334.288837 
L 259.618376 334.29243 
L 267.680579 334.288682 
L 275.742782 334.285497 
L 283.804985 334.287001 
L 291.867187 334.289423 
L 299.92939 334.289527 
L 307.991593 334.289027 
L 316.053796 334.289872 
L 324.115999 334.327122 
L 332.178202 334.308859 
L 340.240405 334.293504 
L 348.302607 334.295616 
L 356.36481 334.297496 
L 364.427013 334.297301 
L 372.489216 334.293384 
L 380.551419 334.290305 
L 388.613622 334.290911 
L 396.675825 334.290473 
L 404.738028 334.291098 
L 412.80023 334.28962 
L 420.862433 334.288116 
L 428.924636 334.287723 
L 436.986839 334.288201 
L 445.049042 334.288279 
L 453.111245 334.289348 
L 461.173448 334.289233 
L 469.23565 334.289754 
" clip-path="url(#pb8664278c4)" style="fill: none; stroke: #2d9a5f; stroke-width: 1.6; stroke-linecap: square"/>
   </g>
   <g id="line2d_137">
    <path d="M 66.125507 324.997349 
L 74.18771 308.871737 
L 82.249913 305.713685 
L 90.312116 306.007913 
L 98.374319 305.731784 
L 106.436521 305.663121 
L 114.498724 305.314369 
L 122.560927 305.004053 
L 130.62313 305.074075 
L 138.685333 305.083547 
L 146.747536 303.840597 
L 154.809739 305.373349 
L 162.871942 305.266413 
L 170.934144 305.50643 
L 178.996347 305.714083 
L 187.05855 305.873648 
L 195.120753 306.246403 
L 203.182956 306.37438 
L 211.245159 306.683769 
L 219.307362 307.094912 
L 227.369564 307.160718 
L 235.431767 307.928612 
L 243.49397 307.926155 
L 251.556173 308.282679 
L 259.618376 308.440698 
L 267.680579 308.933528 
L 275.742782 309.305379 
L 283.804985 309.656717 
L 291.867187 310.24603 
L 299.92939 310.719669 
L 307.991593 311.070999 
L 316.053796 311.359139 
L 324.115999 311.80359 
L 332.178202 312.018767 
L 340.240405 312.474734 
L 348.302607 312.824559 
L 356.36481 313.374394 
L 364.427013 313.833911 
L 372.489216 314.242401 
L 380.551419 314.768056 
L 388.613622 315.170292 
L 396.675825 315.546048 
L 404.738028 315.998654 
L 412.80023 316.373122 
L 420.862433 316.784935 
L 428.924636 317.007906 
L 436.986839 317.343543 
L 445.049042 317.786548 
L 453.111245 317.995538 
L 461.173448 318.282967 
L 469.23565 318.532893 
" clip-path="url(#pb8664278c4)" style="fill: none; stroke-dasharray: 5.92,2.56; stroke-dashoffset: 0; stroke: #8b8b8b; stroke-width: 1.6"/>
   </g>
   <g id="patch_3">
    <path d="M 45.97 349.938281 
L 45.97 23.558281 
" style="fill: none; stroke: #d8d4cc; stroke-width: 0.8; stroke-linejoin: miter; stroke-linecap: square"/>
   </g>
   <g id="patch_4">
    <path d="M 45.97 349.938281 
L 489.391158 349.938281 
" style="fill: none; stroke: #d8d4cc; stroke-width: 0.8; stroke-linejoin: miter; stroke-linecap: square"/>
   </g>
   <g id="text_16">
    <!-- Attention: largest singular value -->
    <g style="fill: #1a1a1a" transform="translate(179.201048 15.558281) scale(0.11 -0.11)">
     <defs>
      <path id="DejaVuSans-41" d="M 2188 4044 
L 1331 1722 
L 3047 1722 
L 2188 4044 
z
M 1831 4666 
L 2547 4666 
L 4325 0 
L 3669 0 
L 3244 1197 
L 1141 1197 
L 716 0 
L 50 0 
L 1831 4666 
z
" transform="scale(0.015625)"/>
      <path id="DejaVuSans-3a" d="M 750 794 
L 1409 794 
L 1409 0 
L 750 0 
L 750 794 
z
M 750 3309 
L 1409 3309 
L 1409 2516 
L 750 2516 
L 750 3309 
z
" transform="scale(0.015625)"/>
      <path id="DejaVuSans-6c" d="M 603 4863 
L 1178 4863 
L 1178 0 
L 603 0 
L 603 4863 
z
" transform="scale(0.015625)"/>
      <path id="DejaVuSans-75" d="M 544 1381 
L 544 3500 
L 1119 3500 
L 1119 1403 
Q 1119 906 1312 657 
Q 1506 409 1894 409 
Q 2359 409 2629 706 
Q 2900 1003 2900 1516 
L 2900 3500 
L 3475 3500 
L 3475 0 
L 2900 0 
L 2900 538 
Q 2691 219 2414 64 
Q 2138 -91 1772 -91 
Q 1169 -91 856 284 
Q 544 659 544 1381 
z
M 1991 3584 
L 1991 3584 
z
" transform="scale(0.015625)"/>
      <path id="DejaVuSans-76" d="M 191 3500 
L 800 3500 
L 1894 563 
L 2988 3500 
L 3597 3500 
L 2284 0 
L 1503 0 
L 191 3500 
z
" transform="scale(0.015625)"/>
     </defs>
     <use xlink:href="#DejaVuSans-41"/>
     <use xlink:href="#DejaVuSans-74" x="66.658203"/>
     <use xlink:href="#DejaVuSans-74" x="105.867188"/>
     <use xlink:href="#DejaVuSans-65" x="145.076172"/>
     <use xlink:href="#DejaVuSans-6e" x="206.599609"/>
     <use xlink:href="#DejaVuSans-74" x="269.978516"/>
     <use xlink:href="#DejaVuSans-69" x="309.1875"/>
     <use xlink:href="#DejaVuSans-6f" x="336.970703"/>
     <use xlink:href="#DejaVuSans-6e" x="398.152344"/>
     <use xlink:href="#DejaVuSans-3a" x="461.53125"/>
     <use xlink:href="#DejaVuSans-20" x="495.222656"/>
     <use xlink:href="#DejaVuSans-6c" x="527.009766"/>
     <use xlink:href="#DejaVuSans-61" x="554.792969"/>
     <use xlink:href="#DejaVuSans-72" x="616.072266"/>
     <use xlink:href="#DejaVuSans-67" x="655.435547"/>
     <use xlink:href="#DejaVuSans-65" x="718.912109"/>
     <use xlink:href="#DejaVuSans-73" x="780.435547"/>
     <use xlink:href="#DejaVuSans-74" x="832.535156"/>
     <use xlink:href="#DejaVuSans-20" x="871.744141"/>
     <use xlink:href="#DejaVuSans-73" x="903.53125"/>
     <use xlink:href="#DejaVuSans-69" x="955.630859"/>
     <use xlink:href="#DejaVuSans-6e" x="983.414062"/>
     <use xlink:href="#DejaVuSans-67" x="1046.792969"/>
     <use xlink:href="#DejaVuSans-75" x="1110.269531"/>
     <use xlink:href="#DejaVuSans-6c" x="1173.648438"/>
     <use xlink:href="#DejaVuSans-61" x="1201.431641"/>
     <use xlink:href="#DejaVuSans-72" x="1262.710938"/>
     <use xlink:href="#DejaVuSans-20" x="1303.824219"/>
     <use xlink:href="#DejaVuSans-76" x="1335.611328"/>
     <use xlink:href="#DejaVuSans-61" x="1394.791016"/>
     <use xlink:href="#DejaVuSans-6c" x="1456.070312"/>
     <use xlink:href="#DejaVuSans-75" x="1483.853516"/>
     <use xlink:href="#DejaVuSans-65" x="1547.232422"/>
    </g>
   </g>
  </g>
  <g id="axes_2">
   <g id="patch_5">
    <path d="M 546.511158 349.938281 
L 989.932315 349.938281 
L 989.932315 23.558281 
L 546.511158 23.558281 
z
" style="fill: #faf9f6"/>
   </g>
   <g id="matplotlib.axis_3">
    <g id="xtick_7">
     <g id="line2d_138">
      <path d="M 566.666665 349.938281 
L 566.666665 23.558281 
" clip-path="url(#p1e3e39f705)" style="fill: none; stroke: #d8d4cc; stroke-opacity: 0.6; stroke-width: 0.5; stroke-linecap: square"/>
     </g>
     <g id="line2d_139">
      <g>
       <use xlink:href="#m22aeb80215" x="566.666665" y="349.938281" style="fill: #6b6b6b; stroke: #6b6b6b; stroke-width: 0.8"/>
      </g>
     </g>
     <g id="text_17">
      <!-- 0 -->
      <g style="fill: #1a1a1a" transform="translate(563.485415 364.036719) scale(0.1 -0.1)">
       <use xlink:href="#DejaVuSans-30"/>
      </g>
     </g>
    </g>
    <g id="xtick_8">
     <g id="line2d_140">
      <path d="M 647.288693 349.938281 
L 647.288693 23.558281 
" clip-path="url(#p1e3e39f705)" style="fill: none; stroke: #d8d4cc; stroke-opacity: 0.6; stroke-width: 0.5; stroke-linecap: square"/>
     </g>
     <g id="line2d_141">
      <g>
       <use xlink:href="#m22aeb80215" x="647.288693" y="349.938281" style="fill: #6b6b6b; stroke: #6b6b6b; stroke-width: 0.8"/>
      </g>
     </g>
     <g id="text_18">
      <!-- 10000 -->
      <g style="fill: #1a1a1a" transform="translate(631.382443 364.036719) scale(0.1 -0.1)">
       <use xlink:href="#DejaVuSans-31"/>
       <use xlink:href="#DejaVuSans-30" x="63.623047"/>
       <use xlink:href="#DejaVuSans-30" x="127.246094"/>
       <use xlink:href="#DejaVuSans-30" x="190.869141"/>
       <use xlink:href="#DejaVuSans-30" x="254.492188"/>
      </g>
     </g>
    </g>
    <g id="xtick_9">
     <g id="line2d_142">
      <path d="M 727.910722 349.938281 
L 727.910722 23.558281 
" clip-path="url(#p1e3e39f705)" style="fill: none; stroke: #d8d4cc; stroke-opacity: 0.6; stroke-width: 0.5; stroke-linecap: square"/>
     </g>
     <g id="line2d_143">
      <g>
       <use xlink:href="#m22aeb80215" x="727.910722" y="349.938281" style="fill: #6b6b6b; stroke: #6b6b6b; stroke-width: 0.8"/>
      </g>
     </g>
     <g id="text_19">
      <!-- 20000 -->
      <g style="fill: #1a1a1a" transform="translate(712.004472 364.036719) scale(0.1 -0.1)">
       <use xlink:href="#DejaVuSans-32"/>
       <use xlink:href="#DejaVuSans-30" x="63.623047"/>
       <use xlink:href="#DejaVuSans-30" x="127.246094"/>
       <use xlink:href="#DejaVuSans-30" x="190.869141"/>
       <use xlink:href="#DejaVuSans-30" x="254.492188"/>
      </g>
     </g>
    </g>
    <g id="xtick_10">
     <g id="line2d_144">
      <path d="M 808.532751 349.938281 
L 808.532751 23.558281 
" clip-path="url(#p1e3e39f705)" style="fill: none; stroke: #d8d4cc; stroke-opacity: 0.6; stroke-width: 0.5; stroke-linecap: square"/>
     </g>
     <g id="line2d_145">
      <g>
       <use xlink:href="#m22aeb80215" x="808.532751" y="349.938281" style="fill: #6b6b6b; stroke: #6b6b6b; stroke-width: 0.8"/>
      </g>
     </g>
     <g id="text_20">
      <!-- 30000 -->
      <g style="fill: #1a1a1a" transform="translate(792.626501 364.036719) scale(0.1 -0.1)">
       <use xlink:href="#DejaVuSans-33"/>
       <use xlink:href="#DejaVuSans-30" x="63.623047"/>
       <use xlink:href="#DejaVuSans-30" x="127.246094"/>
       <use xlink:href="#DejaVuSans-30" x="190.869141"/>
       <use xlink:href="#DejaVuSans-30" x="254.492188"/>
      </g>
     </g>
    </g>
    <g id="xtick_11">
     <g id="line2d_146">
      <path d="M 889.154779 349.938281 
L 889.154779 23.558281 
" clip-path="url(#p1e3e39f705)" style="fill: none; stroke: #d8d4cc; stroke-opacity: 0.6; stroke-width: 0.5; stroke-linecap: square"/>
     </g>
     <g id="line2d_147">
      <g>
       <use xlink:href="#m22aeb80215" x="889.154779" y="349.938281" style="fill: #6b6b6b; stroke: #6b6b6b; stroke-width: 0.8"/>
      </g>
     </g>
     <g id="text_21">
      <!-- 40000 -->
      <g style="fill: #1a1a1a" transform="translate(873.248529 364.036719) scale(0.1 -0.1)">
       <use xlink:href="#DejaVuSans-34"/>
       <use xlink:href="#DejaVuSans-30" x="63.623047"/>
       <use xlink:href="#DejaVuSans-30" x="127.246094"/>
       <use xlink:href="#DejaVuSans-30" x="190.869141"/>
       <use xlink:href="#DejaVuSans-30" x="254.492188"/>
      </g>
     </g>
    </g>
    <g id="xtick_12">
     <g id="line2d_148">
      <path d="M 969.776808 349.938281 
L 969.776808 23.558281 
" clip-path="url(#p1e3e39f705)" style="fill: none; stroke: #d8d4cc; stroke-opacity: 0.6; stroke-width: 0.5; stroke-linecap: square"/>
     </g>
     <g id="line2d_149">
      <g>
       <use xlink:href="#m22aeb80215" x="969.776808" y="349.938281" style="fill: #6b6b6b; stroke: #6b6b6b; stroke-width: 0.8"/>
      </g>
     </g>
     <g id="text_22">
      <!-- 50000 -->
      <g style="fill: #1a1a1a" transform="translate(953.870558 364.036719) scale(0.1 -0.1)">
       <use xlink:href="#DejaVuSans-35"/>
       <use xlink:href="#DejaVuSans-30" x="63.623047"/>
       <use xlink:href="#DejaVuSans-30" x="127.246094"/>
       <use xlink:href="#DejaVuSans-30" x="190.869141"/>
       <use xlink:href="#DejaVuSans-30" x="254.492188"/>
      </g>
     </g>
    </g>
    <g id="text_23">
     <!-- Training step -->
     <g style="fill: #1a1a1a" transform="translate(732.878221 378.474688) scale(0.11 -0.11)">
      <use xlink:href="#DejaVuSans-54"/>
      <use xlink:href="#DejaVuSans-72" x="46.333984"/>
      <use xlink:href="#DejaVuSans-61" x="87.447266"/>
      <use xlink:href="#DejaVuSans-69" x="148.726562"/>
      <use xlink:href="#DejaVuSans-6e" x="176.509766"/>
      <use xlink:href="#DejaVuSans-69" x="239.888672"/>
      <use xlink:href="#DejaVuSans-6e" x="267.671875"/>
      <use xlink:href="#DejaVuSans-67" x="331.050781"/>
      <use xlink:href="#DejaVuSans-20" x="394.527344"/>
      <use xlink:href="#DejaVuSans-73" x="426.314453"/>
      <use xlink:href="#DejaVuSans-74" x="478.414062"/>
      <use xlink:href="#DejaVuSans-65" x="517.623047"/>
      <use xlink:href="#DejaVuSans-70" x="579.146484"/>
     </g>
    </g>
   </g>
   <g id="matplotlib.axis_4">
    <g id="ytick_61">
     <g id="line2d_150">
      <path d="M 546.511158 309.903725 
L 989.932315 309.903725 
" clip-path="url(#p1e3e39f705)" style="fill: none; stroke: #d8d4cc; stroke-opacity: 0.6; stroke-width: 0.5; stroke-linecap: square"/>
     </g>
     <g id="line2d_151">
      <g>
       <use xlink:href="#me9b3c4cd9b" x="546.511158" y="309.903725" style="fill: #6b6b6b; stroke: #6b6b6b; stroke-width: 0.8"/>
      </g>
     </g>
     <g id="text_24">
      <!-- 2.5 -->
      <g style="fill: #1a1a1a" transform="translate(524.108033 313.702943) scale(0.1 -0.1)">
       <defs>
        <path id="DejaVuSans-2e" d="M 684 794 
L 1344 794 
L 1344 0 
L 684 0 
L 684 794 
z
" transform="scale(0.015625)"/>
       </defs>
       <use xlink:href="#DejaVuSans-32"/>
       <use xlink:href="#DejaVuSans-2e" x="63.623047"/>
       <use xlink:href="#DejaVuSans-35" x="95.410156"/>
      </g>
     </g>
    </g>
    <g id="ytick_62">
     <g id="line2d_152">
      <path d="M 546.511158 267.910201 
L 989.932315 267.910201 
" clip-path="url(#p1e3e39f705)" style="fill: none; stroke: #d8d4cc; stroke-opacity: 0.6; stroke-width: 0.5; stroke-linecap: square"/>
     </g>
     <g id="line2d_153">
      <g>
       <use xlink:href="#me9b3c4cd9b" x="546.511158" y="267.910201" style="fill: #6b6b6b; stroke: #6b6b6b; stroke-width: 0.8"/>
      </g>
     </g>
     <g id="text_25">
      <!-- 5.0 -->
      <g style="fill: #1a1a1a" transform="translate(524.108033 271.70942) scale(0.1 -0.1)">
       <use xlink:href="#DejaVuSans-35"/>
       <use xlink:href="#DejaVuSans-2e" x="63.623047"/>
       <use xlink:href="#DejaVuSans-30" x="95.410156"/>
      </g>
     </g>
    </g>
    <g id="ytick_63">
     <g id="line2d_154">
      <path d="M 546.511158 225.916677 
L 989.932315 225.916677 
" clip-path="url(#p1e3e39f705)" style="fill: none; stroke: #d8d4cc; stroke-opacity: 0.6; stroke-width: 0.5; stroke-linecap: square"/>
     </g>
     <g id="line2d_155">
      <g>
       <use xlink:href="#me9b3c4cd9b" x="546.511158" y="225.916677" style="fill: #6b6b6b; stroke: #6b6b6b; stroke-width: 0.8"/>
      </g>
     </g>
     <g id="text_26">
      <!-- 7.5 -->
      <g style="fill: #1a1a1a" transform="translate(524.108033 229.715896) scale(0.1 -0.1)">
       <defs>
        <path id="DejaVuSans-37" d="M 525 4666 
L 3525 4666 
L 3525 4397 
L 1831 0 
L 1172 0 
L 2766 4134 
L 525 4134 
L 525 4666 
z
" transform="scale(0.015625)"/>
       </defs>
       <use xlink:href="#DejaVuSans-37"/>
       <use xlink:href="#DejaVuSans-2e" x="63.623047"/>
       <use xlink:href="#DejaVuSans-35" x="95.410156"/>
      </g>
     </g>
    </g>
    <g id="ytick_64">
     <g id="line2d_156">
      <path d="M 546.511158 183.923153 
L 989.932315 183.923153 
" clip-path="url(#p1e3e39f705)" style="fill: none; stroke: #d8d4cc; stroke-opacity: 0.6; stroke-width: 0.5; stroke-linecap: square"/>
     </g>
     <g id="line2d_157">
      <g>
       <use xlink:href="#me9b3c4cd9b" x="546.511158" y="183.923153" style="fill: #6b6b6b; stroke: #6b6b6b; stroke-width: 0.8"/>
      </g>
     </g>
     <g id="text_27">
      <!-- 10.0 -->
      <g style="fill: #1a1a1a" transform="translate(517.745533 187.722372) scale(0.1 -0.1)">
       <use xlink:href="#DejaVuSans-31"/>
       <use xlink:href="#DejaVuSans-30" x="63.623047"/>
       <use xlink:href="#DejaVuSans-2e" x="127.246094"/>
       <use xlink:href="#DejaVuSans-30" x="159.033203"/>
      </g>
     </g>
    </g>
    <g id="ytick_65">
     <g id="line2d_158">
      <path d="M 546.511158 141.929629 
L 989.932315 141.929629 
" clip-path="url(#p1e3e39f705)" style="fill: none; stroke: #d8d4cc; stroke-opacity: 0.6; stroke-width: 0.5; stroke-linecap: square"/>
     </g>
     <g id="line2d_159">
      <g>
       <use xlink:href="#me9b3c4cd9b" x="546.511158" y="141.929629" style="fill: #6b6b6b; stroke: #6b6b6b; stroke-width: 0.8"/>
      </g>
     </g>
     <g id="text_28">
      <!-- 12.5 -->
      <g style="fill: #1a1a1a" transform="translate(517.745533 145.728848) scale(0.1 -0.1)">
       <use xlink:href="#DejaVuSans-31"/>
       <use xlink:href="#DejaVuSans-32" x="63.623047"/>
       <use xlink:href="#DejaVuSans-2e" x="127.246094"/>
       <use xlink:href="#DejaVuSans-35" x="159.033203"/>
      </g>
     </g>
    </g>
    <g id="ytick_66">
     <g id="line2d_160">
      <path d="M 546.511158 99.936105 
L 989.932315 99.936105 
" clip-path="url(#p1e3e39f705)" style="fill: none; stroke: #d8d4cc; stroke-opacity: 0.6; stroke-width: 0.5; stroke-linecap: square"/>
     </g>
     <g id="line2d_161">
      <g>
       <use xlink:href="#me9b3c4cd9b" x="546.511158" y="99.936105" style="fill: #6b6b6b; stroke: #6b6b6b; stroke-width: 0.8"/>
      </g>
     </g>
     <g id="text_29">
      <!-- 15.0 -->
      <g style="fill: #1a1a1a" transform="translate(517.745533 103.735324) scale(0.1 -0.1)">
       <use xlink:href="#DejaVuSans-31"/>
       <use xlink:href="#DejaVuSans-35" x="63.623047"/>
       <use xlink:href="#DejaVuSans-2e" x="127.246094"/>
       <use xlink:href="#DejaVuSans-30" x="159.033203"/>
      </g>
     </g>
    </g>
    <g id="ytick_67">
     <g id="line2d_162">
      <path d="M 546.511158 57.942581 
L 989.932315 57.942581 
" clip-path="url(#p1e3e39f705)" style="fill: none; stroke: #d8d4cc; stroke-opacity: 0.6; stroke-width: 0.5; stroke-linecap: square"/>
     </g>
     <g id="line2d_163">
      <g>
       <use xlink:href="#me9b3c4cd9b" x="546.511158" y="57.942581" style="fill: #6b6b6b; stroke: #6b6b6b; stroke-width: 0.8"/>
      </g>
     </g>
     <g id="text_30">
      <!-- 17.5 -->
      <g style="fill: #1a1a1a" transform="translate(517.745533 61.7418) scale(0.1 -0.1)">
       <use xlink:href="#DejaVuSans-31"/>
       <use xlink:href="#DejaVuSans-37" x="63.623047"/>
       <use xlink:href="#DejaVuSans-2e" x="127.246094"/>
       <use xlink:href="#DejaVuSans-35" x="159.033203"/>
      </g>
     </g>
    </g>
    <g id="text_31">
     <!-- $\sigma_{\max}$ (MLP weights) -->
     <g style="fill: #1a1a1a" transform="translate(511.435533 239.108281) rotate(-90) scale(0.11 -0.11)">
      <defs>
       <path id="DejaVuSans-4d" d="M 628 4666 
L 1569 4666 
L 2759 1491 
L 3956 4666 
L 4897 4666 
L 4897 0 
L 4281 0 
L 4281 4097 
L 3078 897 
L 2444 897 
L 1241 4097 
L 1241 0 
L 628 0 
L 628 4666 
z
" transform="scale(0.015625)"/>
       <path id="DejaVuSans-4c" d="M 628 4666 
L 1259 4666 
L 1259 531 
L 3531 531 
L 3531 0 
L 628 0 
L 628 4666 
z
" transform="scale(0.015625)"/>
       <path id="DejaVuSans-50" d="M 1259 4147 
L 1259 2394 
L 2053 2394 
Q 2494 2394 2734 2622 
Q 2975 2850 2975 3272 
Q 2975 3691 2734 3919 
Q 2494 4147 2053 4147 
L 1259 4147 
z
M 628 4666 
L 2053 4666 
Q 2838 4666 3239 4311 
Q 3641 3956 3641 3272 
Q 3641 2581 3239 2228 
Q 2838 1875 2053 1875 
L 1259 1875 
L 1259 0 
L 628 0 
L 628 4666 
z
" transform="scale(0.015625)"/>
      </defs>
      <use xlink:href="#DejaVuSans-Oblique-3c3" transform="translate(0 0.015625)"/>
      <use xlink:href="#DejaVuSans-6d" transform="translate(63.378906 -16.390625) scale(0.7)"/>
      <use xlink:href="#DejaVuSans-61" transform="translate(131.567383 -16.390625) scale(0.7)"/>
      <use xlink:href="#DejaVuSans-78" transform="translate(174.462891 -16.390625) scale(0.7)"/>
      <use xlink:href="#DejaVuSans-20" transform="translate(218.623047 0.015625)"/>
      <use xlink:href="#DejaVuSans-28" transform="translate(250.410156 0.015625)"/>
      <use xlink:href="#DejaVuSans-4d" transform="translate(289.423828 0.015625)"/>
      <use xlink:href="#DejaVuSans-4c" transform="translate(375.703125 0.015625)"/>
      <use xlink:href="#DejaVuSans-50" transform="translate(431.416016 0.015625)"/>
      <use xlink:href="#DejaVuSans-20" transform="translate(491.71875 0.015625)"/>
      <use xlink:href="#DejaVuSans-77" transform="translate(523.505859 0.015625)"/>
      <use xlink:href="#DejaVuSans-65" transform="translate(605.292969 0.015625)"/>
      <use xlink:href="#DejaVuSans-69" transform="translate(666.816406 0.015625)"/>
      <use xlink:href="#DejaVuSans-67" transform="translate(694.599609 0.015625)"/>
      <use xlink:href="#DejaVuSans-68" transform="translate(758.076172 0.015625)"/>
      <use xlink:href="#DejaVuSans-74" transform="translate(821.455078 0.015625)"/>
      <use xlink:href="#DejaVuSans-73" transform="translate(860.664062 0.015625)"/>
      <use xlink:href="#DejaVuSans-29" transform="translate(912.763672 0.015625)"/>
     </g>
    </g>
   </g>
   <g id="line2d_164">
    <path d="M 566.666665 323.970522 
L 574.728868 306.82031 
L 582.791071 300.226243 
L 590.853273 297.999614 
L 598.915476 297.184097 
L 606.977679 295.939577 
L 615.039882 295.650818 
L 623.102085 295.173392 
L 631.164288 293.196804 
L 639.226491 290.145936 
L 647.288693 288.594267 
L 655.350896 285.45917 
L 663.413099 279.347142 
L 671.475302 271.65737 
L 679.537505 268.168167 
L 687.599708 266.146312 
L 695.661911 258.728547 
L 703.724113 251.696477 
L 711.786316 244.826274 
L 719.848519 239.984685 
L 727.910722 236.3136 
L 735.972925 234.077119 
L 744.035128 232.314825 
L 752.097331 230.574589 
L 760.159534 229.071974 
L 768.221736 227.76739 
L 776.283939 226.829839 
L 784.346142 225.683156 
L 792.408345 224.76144 
L 800.470548 224.215023 
L 808.532751 223.72014 
L 816.594954 223.180139 
L 824.657156 222.987179 
L 832.719359 222.653834 
L 840.781562 222.499985 
L 848.843765 222.32065 
L 856.905968 222.218567 
L 864.968171 222.322043 
L 873.030374 222.387746 
L 881.092577 222.537591 
L 889.154779 222.713001 
L 897.216982 222.815228 
L 905.279185 223.019866 
L 913.341388 223.335286 
L 921.403591 223.647557 
L 929.465794 223.977474 
L 937.527997 224.263834 
L 945.590199 224.565308 
L 953.652402 224.934176 
L 961.714605 225.313408 
L 969.776808 225.697245 
" clip-path="url(#p1e3e39f705)" style="fill: none; stroke: #4a7bb7; stroke-width: 1.6; stroke-linecap: square"/>
   </g>
   <g id="line2d_165">
    <path d="M 566.666665 335.063968 
L 574.728868 335.06357 
L 582.791071 335.063936 
L 590.853273 335.063341 
L 598.915476 335.063385 
L 606.977679 335.063231 
L 615.039882 335.063572 
L 623.102085 335.063912 
L 631.164288 335.064823 
L 639.226491 335.065566 
L 647.288693 335.065638 
L 655.350896 335.06559 
L 663.413099 335.065043 
L 671.475302 335.065692 
L 679.537505 335.065484 
L 687.599708 335.066071 
L 695.661911 335.06538 
L 703.724113 335.064042 
L 711.786316 335.065043 
L 719.848519 335.064749 
L 727.910722 335.063712 
L 735.972925 335.063037 
L 744.035128 335.061845 
L 752.097331 335.061771 
L 760.159534 335.064887 
L 768.221736 335.060856 
L 776.283939 335.059591 
L 784.346142 335.06067 
L 792.408345 335.061639 
L 800.470548 335.061505 
L 808.532751 335.060568 
L 816.594954 335.060358 
L 824.657156 335.102827 
L 832.719359 335.09702 
L 840.781562 335.065115 
L 848.843765 335.088065 
L 856.905968 335.092112 
L 864.968171 335.066073 
L 873.030374 335.064014 
L 881.092577 335.062849 
L 889.154779 335.062993 
L 897.216982 335.062494 
L 905.279185 335.061137 
L 913.341388 335.061865 
L 921.403591 335.062526 
L 929.465794 335.0619 
L 937.527997 335.062586 
L 945.590199 335.062518 
L 953.652402 335.063073 
L 961.714605 335.063155 
L 969.776808 335.062384 
" clip-path="url(#p1e3e39f705)" style="fill: none; stroke: #c25450; stroke-width: 1.6; stroke-linecap: square"/>
   </g>
   <g id="line2d_166">
    <path d="M 566.666665 335.063968 
L 574.728868 335.06375 
L 582.791071 335.063938 
L 590.853273 335.06408 
L 598.915476 335.063894 
L 606.977679 335.064535 
L 615.039882 335.064467 
L 623.102085 335.06529 
L 631.164288 335.065226 
L 639.226491 335.065894 
L 647.288693 335.064737 
L 655.350896 335.065808 
L 663.413099 335.06602 
L 671.475302 335.065193 
L 679.537505 335.064727 
L 687.599708 335.064427 
L 695.661911 335.063576 
L 703.724113 335.063361 
L 711.786316 335.063183 
L 719.848519 335.063455 
L 727.910722 335.06266 
L 735.972925 335.061904 
L 744.035128 335.062416 
L 752.097331 335.061451 
L 760.159534 335.061341 
L 768.221736 335.062074 
L 776.283939 335.063165 
L 784.346142 335.063215 
L 792.408345 335.062568 
L 800.470548 335.06262 
L 808.532751 335.100495 
L 816.594954 335.095017 
L 824.657156 335.066327 
L 832.719359 335.069803 
L 840.781562 335.066153 
L 848.843765 335.067476 
L 856.905968 335.066018 
L 864.968171 335.064407 
L 873.030374 335.06251 
L 881.092577 335.063145 
L 889.154779 335.062558 
L 897.216982 335.062805 
L 905.279185 335.0627 
L 913.341388 335.064244 
L 921.403591 335.06396 
L 929.465794 335.064162 
L 937.527997 335.064046 
L 945.590199 335.063477 
L 953.652402 335.063203 
L 961.714605 335.063465 
L 969.776808 335.063533 
" clip-path="url(#p1e3e39f705)" style="fill: none; stroke: #e8a24c; stroke-width: 1.6; stroke-linecap: square"/>
   </g>
   <g id="line2d_167">
    <path d="M 566.666665 323.970522 
L 574.728868 308.446004 
L 582.791071 298.011104 
L 590.853273 288.697155 
L 598.915476 281.939154 
L 606.977679 275.650859 
L 615.039882 270.054691 
L 623.102085 265.453455 
L 631.164288 260.964843 
L 639.226491 256.354365 
L 647.288693 253.222335 
L 655.350896 247.773433 
L 663.413099 238.504842 
L 671.475302 233.464711 
L 679.537505 228.818413 
L 687.599708 222.880315 
L 695.661911 215.638288 
L 703.724113 209.968224 
L 711.786316 204.755157 
L 719.848519 199.651149 
L 727.910722 194.678339 
L 735.972925 190.819091 
L 744.035128 187.836497 
L 752.097331 184.478252 
L 760.159534 180.514864 
L 768.221736 173.921081 
L 776.283939 168.050952 
L 784.346142 161.224729 
L 792.408345 153.953588 
L 800.470548 142.693475 
L 808.532751 130.853129 
L 816.594954 118.307711 
L 824.657156 105.06797 
L 832.719359 91.234893 
L 840.781562 80.076038 
L 848.843765 73.233219 
L 856.905968 69.450752 
L 864.968171 67.434088 
L 873.030374 65.830944 
L 881.092577 63.085019 
L 889.154779 58.087043 
L 897.216982 53.036171 
L 905.279185 48.202295 
L 913.341388 44.743257 
L 921.403591 42.399351 
L 929.465794 40.915007 
L 937.527997 40.101613 
L 945.590199 40.011104 
L 953.652402 40.012674 
L 961.714605 40.078481 
L 969.776808 38.393736 
" clip-path="url(#p1e3e39f705)" style="fill: none; stroke: #2d9a5f; stroke-width: 1.6; stroke-linecap: square"/>
   </g>
   <g id="line2d_168">
    <path d="M 566.666665 323.973273 
L 574.728868 294.258825 
L 582.791071 278.996064 
L 590.853273 278.511802 
L 598.915476 278.485939 
L 606.977679 278.164592 
L 615.039882 278.319539 
L 623.102085 279.404659 
L 631.164288 279.565405 
L 639.226491 280.262915 
L 647.288693 280.730261 
L 655.350896 281.567075 
L 663.413099 281.936054 
L 671.475302 283.266085 
L 679.537505 283.964277 
L 687.599708 284.554955 
L 695.661911 284.582732 
L 703.724113 285.792623 
L 711.786316 286.501247 
L 719.848519 287.506403 
L 727.910722 288.008943 
L 735.972925 289.986985 
L 744.035128 290.738352 
L 752.097331 292.023882 
L 760.159534 293.776417 
L 768.221736 294.709519 
L 776.283939 296.610688 
L 784.346142 297.963578 
L 792.408345 298.782455 
L 800.470548 300.725835 
L 808.532751 301.835257 
L 816.594954 302.751751 
L 824.657156 304.15881 
L 832.719359 305.466266 
L 840.781562 307.082233 
L 848.843765 308.508852 
L 856.905968 309.827053 
L 864.968171 311.233539 
L 873.030374 312.573182 
L 881.092577 313.79093 
L 889.154779 315.029823 
L 897.216982 316.325809 
L 905.279185 317.577178 
L 913.341388 318.522118 
L 921.403591 319.343775 
L 929.465794 319.999229 
L 937.527997 320.617859 
L 945.590199 321.218011 
L 953.652402 321.693775 
L 961.714605 322.145339 
L 969.776808 322.468816 
" clip-path="url(#p1e3e39f705)" style="fill: none; stroke-dasharray: 5.92,2.56; stroke-dashoffset: 0; stroke: #8b8b8b; stroke-width: 1.6"/>
   </g>
   <g id="patch_6">
    <path d="M 546.511158 349.938281 
L 546.511158 23.558281 
" style="fill: none; stroke: #d8d4cc; stroke-width: 0.8; stroke-linejoin: miter; stroke-linecap: square"/>
   </g>
   <g id="patch_7">
    <path d="M 546.511158 349.938281 
L 989.932315 349.938281 
" style="fill: none; stroke: #d8d4cc; stroke-width: 0.8; stroke-linejoin: miter; stroke-linecap: square"/>
   </g>
   <g id="text_32">
    <!-- MLP: largest singular value -->
    <g style="fill: #1a1a1a" transform="translate(693.999236 15.558281) scale(0.11 -0.11)">
     <use xlink:href="#DejaVuSans-4d"/>
     <use xlink:href="#DejaVuSans-4c" x="86.279297"/>
     <use xlink:href="#DejaVuSans-50" x="141.992188"/>
     <use xlink:href="#DejaVuSans-3a" x="202.294922"/>
     <use xlink:href="#DejaVuSans-20" x="235.986328"/>
     <use xlink:href="#DejaVuSans-6c" x="267.773438"/>
     <use xlink:href="#DejaVuSans-61" x="295.556641"/>
     <use xlink:href="#DejaVuSans-72" x="356.835938"/>
     <use xlink:href="#DejaVuSans-67" x="396.199219"/>
     <use xlink:href="#DejaVuSans-65" x="459.675781"/>
     <use xlink:href="#DejaVuSans-73" x="521.199219"/>
     <use xlink:href="#DejaVuSans-74" x="573.298828"/>
     <use xlink:href="#DejaVuSans-20" x="612.507812"/>
     <use xlink:href="#DejaVuSans-73" x="644.294922"/>
     <use xlink:href="#DejaVuSans-69" x="696.394531"/>
     <use xlink:href="#DejaVuSans-6e" x="724.177734"/>
     <use xlink:href="#DejaVuSans-67" x="787.556641"/>
     <use xlink:href="#DejaVuSans-75" x="851.033203"/>
     <use xlink:href="#DejaVuSans-6c" x="914.412109"/>
     <use xlink:href="#DejaVuSans-61" x="942.195312"/>
     <use xlink:href="#DejaVuSans-72" x="1003.474609"/>
     <use xlink:href="#DejaVuSans-20" x="1044.587891"/>
     <use xlink:href="#DejaVuSans-76" x="1076.375"/>
     <use xlink:href="#DejaVuSans-61" x="1135.554688"/>
     <use xlink:href="#DejaVuSans-6c" x="1196.833984"/>
     <use xlink:href="#DejaVuSans-75" x="1224.617188"/>
     <use xlink:href="#DejaVuSans-65" x="1287.996094"/>
    </g>
   </g>
   <g id="legend_1">
    <g id="patch_8">
     <path d="M 552.811158 96.809844 
L 646.948345 96.809844 
Q 648.748345 96.809844 648.748345 95.009844 
L 648.748345 29.858281 
Q 648.748345 28.058281 646.948345 28.058281 
L 552.811158 28.058281 
Q 551.011158 28.058281 551.011158 29.858281 
L 551.011158 95.009844 
Q 551.011158 96.809844 552.811158 96.809844 
z
" style="fill: #faf9f6; opacity: 0.8; stroke: #d8d4cc; stroke-linejoin: miter"/>
    </g>
    <g id="line2d_169">
     <path d="M 554.611158 35.346875 
L 563.611158 35.346875 
L 572.611158 35.346875 
" style="fill: none; stroke: #4a7bb7; stroke-width: 1.6; stroke-linecap: square"/>
    </g>
    <g id="text_33">
     <!-- All DGram -->
     <g transform="translate(579.811158 38.496875) scale(0.09 -0.09)">
      <defs>
       <path id="DejaVuSans-44" d="M 1259 4147 
L 1259 519 
L 2022 519 
Q 2988 519 3436 956 
Q 3884 1394 3884 2338 
Q 3884 3275 3436 3711 
Q 2988 4147 2022 4147 
L 1259 4147 
z
M 628 4666 
L 1925 4666 
Q 3281 4666 3915 4102 
Q 4550 3538 4550 2338 
Q 4550 1131 3912 565 
Q 3275 0 1925 0 
L 628 0 
L 628 4666 
z
" transform="scale(0.015625)"/>
       <path id="DejaVuSans-47" d="M 3809 666 
L 3809 1919 
L 2778 1919 
L 2778 2438 
L 4434 2438 
L 4434 434 
Q 4069 175 3628 42 
Q 3188 -91 2688 -91 
Q 1594 -91 976 548 
Q 359 1188 359 2328 
Q 359 3472 976 4111 
Q 1594 4750 2688 4750 
Q 3144 4750 3555 4637 
Q 3966 4525 4313 4306 
L 4313 3634 
Q 3963 3931 3569 4081 
Q 3175 4231 2741 4231 
Q 1884 4231 1454 3753 
Q 1025 3275 1025 2328 
Q 1025 1384 1454 906 
Q 1884 428 2741 428 
Q 3075 428 3337 486 
Q 3600 544 3809 666 
z
" transform="scale(0.015625)"/>
      </defs>
      <use xlink:href="#DejaVuSans-41"/>
      <use xlink:href="#DejaVuSans-6c" x="68.408203"/>
      <use xlink:href="#DejaVuSans-6c" x="96.191406"/>
      <use xlink:href="#DejaVuSans-20" x="123.974609"/>
      <use xlink:href="#DejaVuSans-44" x="155.761719"/>
      <use xlink:href="#DejaVuSans-47" x="232.763672"/>
      <use xlink:href="#DejaVuSans-72" x="310.253906"/>
      <use xlink:href="#DejaVuSans-61" x="351.367188"/>
      <use xlink:href="#DejaVuSans-6d" x="412.646484"/>
     </g>
    </g>
    <g id="line2d_170">
     <path d="M 554.611158 48.557187 
L 563.611158 48.557187 
L 572.611158 48.557187 
" style="fill: none; stroke: #c25450; stroke-width: 1.6; stroke-linecap: square"/>
    </g>
    <g id="text_34">
     <!-- Hetero-inv -->
     <g transform="translate(579.811158 51.707187) scale(0.09 -0.09)">
      <defs>
       <path id="DejaVuSans-48" d="M 628 4666 
L 1259 4666 
L 1259 2753 
L 3553 2753 
L 3553 4666 
L 4184 4666 
L 4184 0 
L 3553 0 
L 3553 2222 
L 1259 2222 
L 1259 0 
L 628 0 
L 628 4666 
z
" transform="scale(0.015625)"/>
       <path id="DejaVuSans-2d" d="M 313 2009 
L 1997 2009 
L 1997 1497 
L 313 1497 
L 313 2009 
z
" transform="scale(0.015625)"/>
      </defs>
      <use xlink:href="#DejaVuSans-48"/>
      <use xlink:href="#DejaVuSans-65" x="75.195312"/>
      <use xlink:href="#DejaVuSans-74" x="136.71875"/>
      <use xlink:href="#DejaVuSans-65" x="175.927734"/>
      <use xlink:href="#DejaVuSans-72" x="237.451172"/>
      <use xlink:href="#DejaVuSans-6f" x="276.314453"/>
      <use xlink:href="#DejaVuSans-2d" x="339.371094"/>
      <use xlink:href="#DejaVuSans-69" x="375.455078"/>
      <use xlink:href="#DejaVuSans-6e" x="403.238281"/>
      <use xlink:href="#DejaVuSans-76" x="466.617188"/>
     </g>
    </g>
    <g id="line2d_171">
     <path d="M 554.611158 61.7675 
L 563.611158 61.7675 
L 572.611158 61.7675 
" style="fill: none; stroke: #e8a24c; stroke-width: 1.6; stroke-linecap: square"/>
    </g>
    <g id="text_35">
     <!-- All Stiefel -->
     <g transform="translate(579.811158 64.9175) scale(0.09 -0.09)">
      <defs>
       <path id="DejaVuSans-53" d="M 3425 4513 
L 3425 3897 
Q 3066 4069 2747 4153 
Q 2428 4238 2131 4238 
Q 1616 4238 1336 4038 
Q 1056 3838 1056 3469 
Q 1056 3159 1242 3001 
Q 1428 2844 1947 2747 
L 2328 2669 
Q 3034 2534 3370 2195 
Q 3706 1856 3706 1288 
Q 3706 609 3251 259 
Q 2797 -91 1919 -91 
Q 1588 -91 1214 -16 
Q 841 59 441 206 
L 441 856 
Q 825 641 1194 531 
Q 1563 422 1919 422 
Q 2459 422 2753 634 
Q 3047 847 3047 1241 
Q 3047 1584 2836 1778 
Q 2625 1972 2144 2069 
L 1759 2144 
Q 1053 2284 737 2584 
Q 422 2884 422 3419 
Q 422 4038 858 4394 
Q 1294 4750 2059 4750 
Q 2388 4750 2728 4690 
Q 3069 4631 3425 4513 
z
" transform="scale(0.015625)"/>
       <path id="DejaVuSans-66" d="M 2375 4863 
L 2375 4384 
L 1825 4384 
Q 1516 4384 1395 4259 
Q 1275 4134 1275 3809 
L 1275 3500 
L 2222 3500 
L 2222 3053 
L 1275 3053 
L 1275 0 
L 697 0 
L 697 3053 
L 147 3053 
L 147 3500 
L 697 3500 
L 697 3744 
Q 697 4328 969 4595 
Q 1241 4863 1831 4863 
L 2375 4863 
z
" transform="scale(0.015625)"/>
      </defs>
      <use xlink:href="#DejaVuSans-41"/>
      <use xlink:href="#DejaVuSans-6c" x="68.408203"/>
      <use xlink:href="#DejaVuSans-6c" x="96.191406"/>
      <use xlink:href="#DejaVuSans-20" x="123.974609"/>
      <use xlink:href="#DejaVuSans-53" x="155.761719"/>
      <use xlink:href="#DejaVuSans-74" x="219.238281"/>
      <use xlink:href="#DejaVuSans-69" x="258.447266"/>
      <use xlink:href="#DejaVuSans-65" x="286.230469"/>
      <use xlink:href="#DejaVuSans-66" x="347.753906"/>
      <use xlink:href="#DejaVuSans-65" x="382.958984"/>
      <use xlink:href="#DejaVuSans-6c" x="444.482422"/>
     </g>
    </g>
    <g id="line2d_172">
     <path d="M 554.611158 74.977812 
L 563.611158 74.977812 
L 572.611158 74.977812 
" style="fill: none; stroke: #2d9a5f; stroke-width: 1.6; stroke-linecap: square"/>
    </g>
    <g id="text_36">
     <!-- Hetero -->
     <g transform="translate(579.811158 78.127813) scale(0.09 -0.09)">
      <use xlink:href="#DejaVuSans-48"/>
      <use xlink:href="#DejaVuSans-65" x="75.195312"/>
      <use xlink:href="#DejaVuSans-74" x="136.71875"/>
      <use xlink:href="#DejaVuSans-65" x="175.927734"/>
      <use xlink:href="#DejaVuSans-72" x="237.451172"/>
      <use xlink:href="#DejaVuSans-6f" x="276.314453"/>
     </g>
    </g>
    <g id="line2d_173">
     <path d="M 554.611158 88.188125 
L 563.611158 88.188125 
L 572.611158 88.188125 
" style="fill: none; stroke-dasharray: 5.92,2.56; stroke-dashoffset: 0; stroke: #8b8b8b; stroke-width: 1.6"/>
    </g>
    <g id="text_37">
     <!-- Unconstrained -->
     <g transform="translate(579.811158 91.338125) scale(0.09 -0.09)">
      <defs>
       <path id="DejaVuSans-55" d="M 556 4666 
L 1191 4666 
L 1191 1831 
Q 1191 1081 1462 751 
Q 1734 422 2344 422 
Q 2950 422 3222 751 
Q 3494 1081 3494 1831 
L 3494 4666 
L 4128 4666 
L 4128 1753 
Q 4128 841 3676 375 
Q 3225 -91 2344 -91 
Q 1459 -91 1007 375 
Q 556 841 556 1753 
L 556 4666 
z
" transform="scale(0.015625)"/>
       <path id="DejaVuSans-63" d="M 3122 3366 
L 3122 2828 
Q 2878 2963 2633 3030 
Q 2388 3097 2138 3097 
Q 1578 3097 1268 2742 
Q 959 2388 959 1747 
Q 959 1106 1268 751 
Q 1578 397 2138 397 
Q 2388 397 2633 464 
Q 2878 531 3122 666 
L 3122 134 
Q 2881 22 2623 -34 
Q 2366 -91 2075 -91 
Q 1284 -91 818 406 
Q 353 903 353 1747 
Q 353 2603 823 3093 
Q 1294 3584 2113 3584 
Q 2378 3584 2631 3529 
Q 2884 3475 3122 3366 
z
" transform="scale(0.015625)"/>
       <path id="DejaVuSans-64" d="M 2906 2969 
L 2906 4863 
L 3481 4863 
L 3481 0 
L 2906 0 
L 2906 525 
Q 2725 213 2448 61 
Q 2172 -91 1784 -91 
Q 1150 -91 751 415 
Q 353 922 353 1747 
Q 353 2572 751 3078 
Q 1150 3584 1784 3584 
Q 2172 3584 2448 3432 
Q 2725 3281 2906 2969 
z
M 947 1747 
Q 947 1113 1208 752 
Q 1469 391 1925 391 
Q 2381 391 2643 752 
Q 2906 1113 2906 1747 
Q 2906 2381 2643 2742 
Q 2381 3103 1925 3103 
Q 1469 3103 1208 2742 
Q 947 2381 947 1747 
z
" transform="scale(0.015625)"/>
      </defs>
      <use xlink:href="#DejaVuSans-55"/>
      <use xlink:href="#DejaVuSans-6e" x="73.193359"/>
      <use xlink:href="#DejaVuSans-63" x="136.572266"/>
      <use xlink:href="#DejaVuSans-6f" x="191.552734"/>
      <use xlink:href="#DejaVuSans-6e" x="252.734375"/>
      <use xlink:href="#DejaVuSans-73" x="316.113281"/>
      <use xlink:href="#DejaVuSans-74" x="368.212891"/>
      <use xlink:href="#DejaVuSans-72" x="407.421875"/>
      <use xlink:href="#DejaVuSans-61" x="448.535156"/>
      <use xlink:href="#DejaVuSans-69" x="509.814453"/>
      <use xlink:href="#DejaVuSans-6e" x="537.597656"/>
      <use xlink:href="#DejaVuSans-65" x="600.976562"/>
      <use xlink:href="#DejaVuSans-64" x="662.5"/>
     </g>
    </g>
   </g>
  </g>
 </g>
 <defs>
  <clipPath id="pb8664278c4">
   <rect x="45.97" y="23.558281" width="443.421158" height="326.38"/>
  </clipPath>
  <clipPath id="p1e3e39f705">
   <rect x="546.511158" y="23.558281" width="443.421158" height="326.38"/>
  </clipPath>
 </defs>
</svg>
