<svg xmlns="http://www.w3.org/2000/svg" width="900" height="300" viewBox="0 0 900 300" role="img" aria-labelledby="title desc"><title id="title">Clash locations help the model choose a repair</title><desc id="desc">Schematic clash locations and measured development results. Small repairs passing within three tries: correct location 23.58%, no location 2.83%, wrong location 1.89%. A small repair allows at most 30% of the ligand&#x27;s non-hydrogen atoms to move; the first accepted candidate must pass the study&#x27;s 20 checks. Orange marks the clash; blue marks the supplied location. Each condition trains the same graph neural network architecture separately, with evaluation on protein families excluded from training.</desc><style>text{font-family:Arial,Helvetica,sans-serif}</style><defs><marker id="arrow-gray" viewBox="0 0 8 8" refX="7" refY="4" markerWidth="7" markerHeight="7" orient="auto-start-reverse"><path d="M1 1 L7 4 L1 7" fill="none" stroke="#a2abb7" stroke-width="1.2" stroke-linecap="round" stroke-linejoin="round"/></marker><marker id="arrow-blue" viewBox="0 0 8 8" refX="7" refY="4" markerWidth="7" markerHeight="7" orient="auto-start-reverse"><path d="M1 1 L7 4 L1 7" fill="none" stroke="#6495ed" stroke-width="1.2" stroke-linecap="round" stroke-linejoin="round"/></marker><marker id="arrow-orange" viewBox="0 0 8 8" refX="7" refY="4" markerWidth="7" markerHeight="7" orient="auto-start-reverse"><path d="M1 1 L7 4 L1 7" fill="none" stroke="#c98263" stroke-width="1.2" stroke-linecap="round" stroke-linejoin="round"/></marker></defs><g transform="translate(0 0)"><text x="18" y="29" font-size="18" fill="#1a1a1a" text-anchor="start" font-weight="400">Correct clash location</text><circle cx="205" cy="122" r="16" fill="#e4e7eb"/><path d="M226 92 Q242 122 226 152" stroke="#c5cbd3" stroke-width="2" fill="none"/><g transform="translate(84 123) scale(1.2)"><line x1="0" y1="-21" x2="18" y2="-10" stroke="#74808e" stroke-width="3"/><line x1="18" y1="-10" x2="18" y2="11" stroke="#74808e" stroke-width="3"/><line x1="18" y1="11" x2="0" y2="22" stroke="#74808e" stroke-width="3"/><line x1="0" y1="22" x2="-18" y2="11" stroke="#74808e" stroke-width="3"/><line x1="-18" y1="11" x2="-18" y2="-10" stroke="#74808e" stroke-width="3"/><line x1="-18" y1="-10" x2="0" y2="-21" stroke="#74808e" stroke-width="3"/><line x1="18" y1="11" x2="44" y2="11" stroke="#74808e" stroke-width="3"/><line x1="44" y1="11" x2="62" y2="-9" stroke="#74808e" stroke-width="3"/><line x1="62" y1="-9" x2="83" y2="-1" stroke="#74808e" stroke-width="3"/><circle cx="0" cy="-21" r="4.5" fill="#74808e"/><circle cx="18" cy="-10" r="4.5" fill="#74808e"/><circle cx="18" cy="11" r="4.5" fill="#74808e"/><circle cx="0" cy="22" r="4.5" fill="#74808e"/><circle cx="-18" cy="11" r="4.5" fill="#74808e"/><circle cx="-18" cy="-10" r="4.5" fill="#74808e"/><circle cx="44" cy="11" r="4.5" fill="#74808e"/><circle cx="62" cy="-9" r="4.5" fill="#74808e"/><circle cx="83" cy="-1" r="4.5" fill="#74808e"/></g><circle cx="183.6" cy="121.8" r="13" fill="none" stroke="#c98263" stroke-width="1.5"/><path d="M183.6 66 V103" stroke="#6495ed" stroke-width="1.8"/><circle cx="183.6" cy="60" r="5.5" fill="#6495ed"/><text x="150" y="232" font-size="38" fill="#1a1a1a" text-anchor="middle" font-weight="400">23.6%</text><text x="150" y="263" font-size="14" fill="#6b6b6b" text-anchor="middle" font-weight="400">Small repairs that pass</text></g><g transform="translate(300 0)"><text x="18" y="29" font-size="18" fill="#1a1a1a" text-anchor="start" font-weight="400">No clash location</text><circle cx="205" cy="122" r="16" fill="#e4e7eb"/><path d="M226 92 Q242 122 226 152" stroke="#c5cbd3" stroke-width="2" fill="none"/><g transform="translate(84 123) scale(1.2)"><line x1="0" y1="-21" x2="18" y2="-10" stroke="#74808e" stroke-width="3"/><line x1="18" y1="-10" x2="18" y2="11" stroke="#74808e" stroke-width="3"/><line x1="18" y1="11" x2="0" y2="22" stroke="#74808e" stroke-width="3"/><line x1="0" y1="22" x2="-18" y2="11" stroke="#74808e" stroke-width="3"/><line x1="-18" y1="11" x2="-18" y2="-10" stroke="#74808e" stroke-width="3"/><line x1="-18" y1="-10" x2="0" y2="-21" stroke="#74808e" stroke-width="3"/><line x1="18" y1="11" x2="44" y2="11" stroke="#74808e" stroke-width="3"/><line x1="44" y1="11" x2="62" y2="-9" stroke="#74808e" stroke-width="3"/><line x1="62" y1="-9" x2="83" y2="-1" stroke="#74808e" stroke-width="3"/><circle cx="0" cy="-21" r="4.5" fill="#74808e"/><circle cx="18" cy="-10" r="4.5" fill="#74808e"/><circle cx="18" cy="11" r="4.5" fill="#74808e"/><circle cx="0" cy="22" r="4.5" fill="#74808e"/><circle cx="-18" cy="11" r="4.5" fill="#74808e"/><circle cx="-18" cy="-10" r="4.5" fill="#74808e"/><circle cx="44" cy="11" r="4.5" fill="#74808e"/><circle cx="62" cy="-9" r="4.5" fill="#74808e"/><circle cx="83" cy="-1" r="4.5" fill="#74808e"/></g><circle cx="183.6" cy="121.8" r="13" fill="none" stroke="#c98263" stroke-width="1.5"/><text x="150" y="232" font-size="38" fill="#1a1a1a" text-anchor="middle" font-weight="400">2.8%</text><text x="150" y="263" font-size="14" fill="#6b6b6b" text-anchor="middle" font-weight="400">Small repairs that pass</text></g><g transform="translate(600 0)"><text x="18" y="29" font-size="18" fill="#1a1a1a" text-anchor="start" font-weight="400">Wrong clash location</text><circle cx="205" cy="122" r="16" fill="#e4e7eb"/><path d="M226 92 Q242 122 226 152" stroke="#c5cbd3" stroke-width="2" fill="none"/><g transform="translate(84 123) scale(1.2)"><line x1="0" y1="-21" x2="18" y2="-10" stroke="#74808e" stroke-width="3"/><line x1="18" y1="-10" x2="18" y2="11" stroke="#74808e" stroke-width="3"/><line x1="18" y1="11" x2="0" y2="22" stroke="#74808e" stroke-width="3"/><line x1="0" y1="22" x2="-18" y2="11" stroke="#74808e" stroke-width="3"/><line x1="-18" y1="11" x2="-18" y2="-10" stroke="#74808e" stroke-width="3"/><line x1="-18" y1="-10" x2="0" y2="-21" stroke="#74808e" stroke-width="3"/><line x1="18" y1="11" x2="44" y2="11" stroke="#74808e" stroke-width="3"/><line x1="44" y1="11" x2="62" y2="-9" stroke="#74808e" stroke-width="3"/><line x1="62" y1="-9" x2="83" y2="-1" stroke="#74808e" stroke-width="3"/><circle cx="0" cy="-21" r="4.5" fill="#74808e"/><circle cx="18" cy="-10" r="4.5" fill="#74808e"/><circle cx="18" cy="11" r="4.5" fill="#74808e"/><circle cx="0" cy="22" r="4.5" fill="#74808e"/><circle cx="-18" cy="11" r="4.5" fill="#74808e"/><circle cx="-18" cy="-10" r="4.5" fill="#74808e"/><circle cx="44" cy="11" r="4.5" fill="#74808e"/><circle cx="62" cy="-9" r="4.5" fill="#74808e"/><circle cx="83" cy="-1" r="4.5" fill="#74808e"/></g><circle cx="183.6" cy="121.8" r="13" fill="none" stroke="#c98263" stroke-width="1.5"/><path d="M84 66 V87" stroke="#6495ed" stroke-width="1.8"/><circle cx="84" cy="60" r="5.5" fill="#6495ed"/><text x="150" y="232" font-size="38" fill="#1a1a1a" text-anchor="middle" font-weight="400">1.9%</text><text x="150" y="263" font-size="14" fill="#6b6b6b" text-anchor="middle" font-weight="400">Small repairs that pass</text></g></svg>